<svg id="Layer_1" data-name="Layer 1" xmlns="http://www.w3.org/2000/svg" viewBox="0 0 942 241"><defs><style>.cls-1{fill:#0d204c;}.cls-2{fill:#2c3e5a;}</style></defs><path class="cls-1" d="M467.3,154.82H880.58c.92,0,1.85,0,2.77,0a3,3,0,0,1,.83.19.93.93,0,0,1,.58.71,6.89,6.89,0,0,1,0,3.13,1,1,0,0,1-.75.83,3.56,3.56,0,0,1-.85.12c-.71,0-1.42,0-2.13,0H53c-.93,0-1.85,0-2.77-.11a1.19,1.19,0,0,1-1-1.19c0-.26-.06-.53-.06-.79,0-2.5.2-2.95,2.27-2.94.78,0,1.57,0,2.35,0Z"/><path class="cls-2" d="M141.57,131.25H123.22c-.71,0-1.42,0-2.13-.07a.81.81,0,0,1-.72-.9,14.55,14.55,0,0,1,.16-1.48q1-6,2.08-12c0-.14,0-.28.07-.42.52-2.33.26-2,2.14-3.45A50.75,50.75,0,0,0,138.3,97.16a56.13,56.13,0,0,0,4.86-11.82c.15-.54.23-1.1.33-1.66a.63.63,0,0,0-.48-.62,10.69,10.69,0,0,0-1.27-.1c-1.49,0-3,0-4.48,0-.28,0-.57,0-.85,0A3.15,3.15,0,0,1,133,80.89c-.68-1.56-1.5-3.06-2.27-4.59a7.71,7.71,0,0,0-.44-.72.37.37,0,0,0-.55,0c-.24.51-.5,1-.71,1.55l-9.81,24.79c-.37.92-.73,1.85-1.12,2.77a7.16,7.16,0,0,1-.68,1.32,1.82,1.82,0,0,1-3-.1,2.78,2.78,0,0,1-.34-.77c-.15-.55-.27-1.11-.37-1.67-.76-4.56-1.5-9.12-2.26-13.68l-2.37-14.09c-.78-4.69-1.55-9.39-2.34-14.09-.12-.7-.29-1.39-.45-2.08a.19.19,0,0,0-.14-.1.26.26,0,0,0-.17.11,5.77,5.77,0,0,0-.29.79l-3,11.36q-3.23,12.38-6.47,24.76c-.15.55-.31,1.1-.51,1.63a1.85,1.85,0,0,1-1.84,1.19,1.64,1.64,0,0,1-1.44-.78,17,17,0,0,1-.94-1.67Q88.73,91.2,86,85.55c-.25-.5-.52-1-.78-1.52a1.78,1.78,0,0,0-1.73-1l-.64,0H74.48a4.13,4.13,0,0,0-1,.18.44.44,0,0,0-.24.32,4.73,4.73,0,0,0,.1,1.25c.33,1.24.68,2.47,1.08,3.69a45.84,45.84,0,0,0,8.52,15.4,39.46,39.46,0,0,0,7,6.58c.81.58,1.6,1.19,2.43,1.74a3,3,0,0,1,1.32,2.09c.26,1.55.56,3.08.83,4.62q.84,4.72,1.67,9.45c.1.56.19,1.12.25,1.69a.94.94,0,0,1-.9,1.18l-.85.05H57.5c-.78,0-1.57,0-2.34-.11a.93.93,0,0,1-.8-.63,9.57,9.57,0,0,1-.44-1.65c-.83-4.76-1.63-9.52-2.44-14.29,0-.28-.08-.56-.11-.85a1.09,1.09,0,0,1,1.11-1.27c.92,0,1.85,0,2.77,0a1.46,1.46,0,0,1,1.19.8c.2.38.37.77.56,1.15a22.32,22.32,0,0,0,2.76,4.3,10.78,10.78,0,0,0,2.92,2.46,7,7,0,0,0,3.24,1l1.49,0H78.08c.36,0,.71,0,1.07,0a5.25,5.25,0,0,0,3.19-1A3.78,3.78,0,0,0,84,118.28c0-.49,0-1,.06-1.49a2.45,2.45,0,0,0-1.28-2.49,74,74,0,0,1-6.35-4.67,69.05,69.05,0,0,1-5.36-4.89,65.66,65.66,0,0,1-6.75-7.68,52.59,52.59,0,0,1-6.24-10.9,41,41,0,0,1-2.9-11.33,17.51,17.51,0,0,1-.08-1.92c0-2.41,0-4.83.06-7.25a44.53,44.53,0,0,1,.48-4.88,57.17,57.17,0,0,1,3.86-14.16,46.26,46.26,0,0,1,7.06-11.87,44.22,44.22,0,0,1,8.73-8.11,52.72,52.72,0,0,1,19.31-8.19c2.37-.51,4.76-.86,7.15-1.18.57-.08,1.14-.09,1.7-.13s1.29,0,1.92-.11a37.84,37.84,0,0,1,8.51,0,64.32,64.32,0,0,1,9.64,1.75,53.13,53.13,0,0,1,15.59,6.75,47.09,47.09,0,0,1,10.79,9.62,50.89,50.89,0,0,1,7.75,13.19,56.81,56.81,0,0,1,3.49,12.94,37.75,37.75,0,0,1,.41,5.31c0,1.42,0,2.84,0,4.26a40.55,40.55,0,0,1-1.66,10.94,53,53,0,0,1-5,12.19,50.76,50.76,0,0,1-7.42,10.12c-.69.72-1.4,1.42-2.09,2.14a53.44,53.44,0,0,1-8.58,7c-.7.48-1.41,1-2.13,1.42a2,2,0,0,0-.94,1.8c0,.86,0,1.71,0,2.56a3.46,3.46,0,0,0,1,2.32,4.21,4.21,0,0,0,3.13,1.6l1.28,0c4.26,0,8.53,0,12.8,0,2.11,0,2.12,0,3.67-1.3a15.78,15.78,0,0,0,5.2-7.4c.37-1.18.61-1.46,2-1.48a16,16,0,0,1,1.69.09.94.94,0,0,1,.73.94c-.1,1.13-.2,2.26-.33,3.39q-.36,3.18-.75,6.35-.37,3-.78,5.92a4.79,4.79,0,0,1-.16.84,1.08,1.08,0,0,1-.87.84,5.83,5.83,0,0,1-.84.08c-.64,0-1.28,0-1.92,0Zm3.71-61.19a60.1,60.1,0,0,0-.46-8.52A55.65,55.65,0,0,0,141.14,48a38.94,38.94,0,0,0-9.44-13.8,34.55,34.55,0,0,0-11.16-6.92,39.34,39.34,0,0,0-10.82-2.23A10.85,10.85,0,0,0,108,25c-1.55.14-3.12.23-4.66.48a32,32,0,0,0-8.53,2.63A35.79,35.79,0,0,0,78.53,43.58a49.4,49.4,0,0,0-4,9.39,60.14,60.14,0,0,0-1.67,6.6c-.31,1.68-.59,3.36-.83,5.05-.2,1.48-.37,3-.47,4.45A46.28,46.28,0,0,0,72,77.79a1.91,1.91,0,0,0,.11.41,1,1,0,0,0,.76.68,13.52,13.52,0,0,0,1.91.13h9.17c.63,0,1.28,0,1.91,0a2.34,2.34,0,0,1,1.78,1.05,11,11,0,0,1,.74,1.29c.66,1.34,1.29,2.7,1.94,4q1.36,2.77,2.75,5.53c0,.09.23.12.36.14s.11-.09.13-.15c.27-.89.56-1.77.79-2.66q1.52-5.78,3-11.55l6.84-26.42c.15-.55.3-1.1.47-1.64a3,3,0,0,1,.39-.76,1.82,1.82,0,0,1,1.63-.84,1.84,1.84,0,0,1,1.66,1.14,4,4,0,0,1,.26.81q.22,1.16.42,2.31c.63,3.79,1.24,7.57,1.88,11.36.92,5.53,1.87,11.07,2.8,16.6s1.8,10.94,2.71,16.41a5.7,5.7,0,0,0,.25.8.31.31,0,0,0,.16.14.23.23,0,0,0,.19-.06c.28-.57.58-1.13.81-1.72,2.15-5.42,4.28-10.85,6.43-16.26q1.68-4.27,3.39-8.52a6.86,6.86,0,0,1,.68-1.32,1.86,1.86,0,0,1,2.81-.17,3.45,3.45,0,0,1,.51.68c.28.49.53,1,.79,1.51q1.52,3.06,3,6.11a16.48,16.48,0,0,0,.83,1.48,1.18,1.18,0,0,0,.89.53,4.46,4.46,0,0,0,.63,0h5.33c.22,0,.43,0,.64-.06a1,1,0,0,0,.87-.82,28.59,28.59,0,0,0,.53-4C145.21,72.6,145.26,71.11,145.28,70.06Z"/><path d="M345.07,72.94V118.6c0,.85,0,1.71-.08,2.56a1.12,1.12,0,0,1-1.11,1.08,7.92,7.92,0,0,1-.85.05h-6.4a7.75,7.75,0,0,1-1.06-.1,1.12,1.12,0,0,1-.83-.87c0-.35-.08-.71-.09-1.06,0-.71,0-1.42,0-2.13q0-35,0-70c0-.77-.05-1.55-.09-2.33,0-.05-.08-.14-.12-.14s-.32,0-.37.08c-.43.65-.85,1.31-1.24,2q-6,10.44-12,20.88c-2.74,4.74-5.5,9.47-8.24,14.21q-4.59,7.94-9.17,15.89-2.55,4.44-5.12,8.86c-.32.56-.67,1.1-1,1.62a1.35,1.35,0,0,1-1.08.61c-1.21,0-2.42,0-3.62,0a1.51,1.51,0,0,1-1.23-.76c-.19-.3-.37-.6-.55-.91L277.62,85.64,260.88,56.88,255,46.75a2.82,2.82,0,0,0-.55-.6s-.16,0-.19.05a1,1,0,0,0-.12.4c0,.79,0,1.57,0,2.35v69.13c0,.78,0,1.56,0,2.34a5.35,5.35,0,0,1-.17,1,.92.92,0,0,1-.72.71,5.27,5.27,0,0,1-1,.11h-6.62a6.35,6.35,0,0,1-1.06-.11.91.91,0,0,1-.75-.66,4.2,4.2,0,0,1-.22-1c0-.64,0-1.28,0-1.92q0-45.66,0-91.32a24.19,24.19,0,0,1,.13-2.55,1.17,1.17,0,0,1,1.12-1.09,4.48,4.48,0,0,1,.64-.05h5.54a7.9,7.9,0,0,1,.85.07,1.53,1.53,0,0,1,1.07.64,9.36,9.36,0,0,1,.7,1.07l7.2,12.35q4.33,7.47,8.65,14.95L279.92,70.9c2,3.44,4,6.88,6,10.33q3.75,6.45,7.5,12.91a12.09,12.09,0,0,0,.71,1,.53.53,0,0,0,.76,0c.2-.29.42-.58.59-.88q5.91-10.26,11.8-20.53,4.41-7.68,8.84-15.35,5.37-9.33,10.72-18.68,4.14-7.21,8.29-14.43c1-1.68,1.15-1.78,3-1.79,1.56,0,3.13,0,4.69,0a8.94,8.94,0,0,1,1.27.11,1.09,1.09,0,0,1,.84.87,9.28,9.28,0,0,1,.09,1.06c0,.71,0,1.42,0,2.13Z"/><path d="M675.75,72.19h16.43q1.07,0,2.13.09a1.11,1.11,0,0,1,1,1,8.4,8.4,0,0,1,.08.85c0,.64,0,1.28,0,1.92q0,15.9,0,31.79c0,.71,0,1.42,0,2.13a2,2,0,0,1-.74,1.49c-.71.59-1.4,1.2-2.14,1.75a51.65,51.65,0,0,1-16,7.94,58.66,58.66,0,0,1-11.7,2.3,72.84,72.84,0,0,1-12.79,0,53.44,53.44,0,0,1-26.25-9.81,47.52,47.52,0,0,1-12.13-12.76,49.56,49.56,0,0,1-7.15-17.69,46.25,46.25,0,0,1-.91-9.54c0-1.14,0-2.27,0-3.41a49.56,49.56,0,0,1,7-24.33,47.19,47.19,0,0,1,9.17-11.17,51,51,0,0,1,8.45-6.13,53,53,0,0,1,13.59-5.51,57.62,57.62,0,0,1,6.91-1.3,85,85,0,0,1,12.56-.35,54.24,54.24,0,0,1,21.66,5.91,39.51,39.51,0,0,1,9.56,7.09c.29.3.58.62.86.95a1,1,0,0,1,0,1.35c-.28.33-.58.64-.87.94-1.25,1.27-2.49,2.54-3.74,3.8-.35.35-.73.68-1.1,1a.86.86,0,0,1-1,.06q-.66-.54-1.29-1.11a36.2,36.2,0,0,0-11.72-7.25,45.23,45.23,0,0,0-10.13-2.44,57.65,57.65,0,0,0-8.09-.36A43.09,43.09,0,0,0,639,35.69a39,39,0,0,0-8.37,5.47,40.28,40.28,0,0,0-11.78,17,37.45,37.45,0,0,0-2,8.49,49.43,49.43,0,0,0-.39,6,44.41,44.41,0,0,0,1.44,11.18,40.84,40.84,0,0,0,9.43,17,39.24,39.24,0,0,0,7.54,6.24,41.47,41.47,0,0,0,15.41,6,32.78,32.78,0,0,0,5.93.62c1.28,0,2.56,0,3.84,0a45.7,45.7,0,0,0,10.15-1.19,37.31,37.31,0,0,0,10.55-3.93c1-.59,2-1.27,3.06-1.93a1.71,1.71,0,0,0,.76-1.46c0-.42,0-.85,0-1.28q0-9.16,0-18.34c0-.57-.06-1.14-.11-1.7a1,1,0,0,0-.73-.7,8.17,8.17,0,0,0-.85-.09H659.43c-.71,0-1.42,0-2.13-.08a1.16,1.16,0,0,1-1-.91,3.47,3.47,0,0,1-.11-.63c0-2.49,0-5,0-7.47a3,3,0,0,1,.16-.83,1,1,0,0,1,.91-.79c.7-.07,1.41-.11,2.12-.11Z"/><path d="M442.59,73.07V27.42c0-.78,0-1.57,0-2.35A1.3,1.3,0,0,1,444,23.71a9.45,9.45,0,0,1,1.07-.07h64.63c.72,0,1.43,0,2.14,0a4.5,4.5,0,0,1,1,.22.9.9,0,0,1,.57.6,3,3,0,0,1,.15.83q0,3.21,0,6.4a3.3,3.3,0,0,1-.09.63,1.1,1.1,0,0,1-.84.88,5.32,5.32,0,0,1-1.05.15c-.78,0-1.56,0-2.34,0H457.61c-.85,0-1.71,0-2.56.06A1.1,1.1,0,0,0,454,34.58c0,.57,0,1.14,0,1.71q0,14.19,0,28.37c0,.64,0,1.28.07,1.92a1,1,0,0,0,.81.88,8,8,0,0,0,.84.09h47.57c.86,0,1.71,0,2.56.08s1.23.52,1.32,1.39c0,.15,0,.29,0,.43v5.76a1.48,1.48,0,0,1,0,.21c-.08,1.17-.44,1.55-1.55,1.6-.71,0-1.42,0-2.13,0H457.37c-.78,0-1.56,0-2.34,0A1.06,1.06,0,0,0,454,78.21c0,.42,0,.85,0,1.28q0,15.35,0,30.71c0,.57,0,1.14.08,1.71a1.06,1.06,0,0,0,.87.83c.35,0,.7.08,1.06.09.71,0,1.42,0,2.13,0h53.33c.71,0,1.43,0,2.14,0a6,6,0,0,1,1.26.17,1,1,0,0,1,.83.87,7.6,7.6,0,0,1,.1,1.06c0,1.92,0,3.84,0,5.76a6.25,6.25,0,0,1-.08.85,1.12,1.12,0,0,1-.81.89,6.1,6.1,0,0,1-.84.13c-.71,0-1.42,0-2.13,0h-65.5c-.92,0-1.84,0-2.76-.11a1.08,1.08,0,0,1-1-1c0-.7-.07-1.42-.07-2.13,0-4.62,0-9.24,0-13.86Z"/><path d="M789.24,123.06H785.4a7.59,7.59,0,0,1-1-.15.72.72,0,0,1-.44-.66,8.51,8.51,0,0,1,.35-1.22c.59-1.37,1.21-2.73,1.82-4.09q4-9,8-17.9t8.08-18.11q3.12-7,6.27-14c2-4.48,4-9,6-13.44L819,43.37q3.31-7.4,6.61-14.8l1.74-3.89c.12-.26.25-.51.39-.76a1.55,1.55,0,0,1,1.39-.83l.64,0h7.46a1.8,1.8,0,0,1,1.88,1.12c.32.71.68,1.41,1,2.12q5.29,11.88,10.6,23.75c3.28,7.34,6.53,14.68,9.81,22l8.11,18.09,9.81,22q1.9,4.27,3.83,8.56c.17.39.33.79.47,1.19A.81.81,0,0,1,882,123a8.12,8.12,0,0,1-.85.07h-7.46c-.22,0-.43,0-.64,0a1.79,1.79,0,0,1-1.67-1.11c-.81-1.82-1.63-3.64-2.42-5.46q-4-9.08-8-18.17l-.27-.58a1.73,1.73,0,0,0-1.66-1.12l-1.7,0h-48.2c-.71,0-1.42,0-2.13.1a1.27,1.27,0,0,0-1,.67,16.57,16.57,0,0,0-.76,1.52l-9.48,21.69c-.22.52-.48,1-.73,1.54a1.56,1.56,0,0,1-1.34.92c-.42,0-.85,0-1.27.06-1.07,0-2.13,0-3.2,0Zm44.1-35.83h20.48c.49,0,1-.07,1.48-.12a.57.57,0,0,0,.39-.66c-.29-.79-.57-1.6-.91-2.38-1.73-4-3.48-7.94-5.22-11.91q-3.46-7.92-6.91-15.83l-5.55-12.7c-1-2.34-2.05-4.69-3.08-7a1.57,1.57,0,0,0-.58-.86c-.1-.06-.33-.06-.37,0a9,9,0,0,0-.75,1.27c-1.07,2.4-2.12,4.81-3.17,7.22q-3.92,9-7.83,18-4.92,11.24-9.85,22.45c-.23.52-.41,1.06-.59,1.6a.7.7,0,0,0,.51.81c.71.07,1.41.14,2.12.14Z"/><path d="M257.05,198.86v21.79a20.32,20.32,0,0,1-.12,2.21.84.84,0,0,1-.65.7,1.06,1.06,0,0,1-.19.06,15.65,15.65,0,0,1-3.62,0,1,1,0,0,1-.8-.81c0-.67-.09-1.34-.09-2q0-5.55,0-11.1v-22.4c0-.53-.06-1.07-.09-1.6,0-.15-.09-.17-.19-.06a2.67,2.67,0,0,0-.38.45q-2.61,4.44-5.21,8.88-2.91,5-5.8,9.93L234,215c-.37.63-.79,1.25-1.2,1.86a1.12,1.12,0,0,1-.83.52,7.26,7.26,0,0,1-1.4.07,1.33,1.33,0,0,1-1-.57,11.69,11.69,0,0,1-.64-1q-3.9-6.6-7.78-13.21l-7-11.82c-.81-1.39-1.63-2.79-2.46-4.17a1.34,1.34,0,0,0-.44-.37.2.2,0,0,0-.18.07.82.82,0,0,0-.13.37c0,.67,0,1.34,0,2q0,15.84,0,31.68c0,.74,0,1.48-.09,2.21a1.05,1.05,0,0,1-1.06,1c-1.14,0-2.29,0-3.43,0a1.06,1.06,0,0,1-1-1c-.06-.74-.08-1.48-.08-2.22V183.64c0-2.42,0-4.84,0-7.26a5.2,5.2,0,0,1,.17-1.8.91.91,0,0,1,.69-.66,11.53,11.53,0,0,1,3.42,0,1.13,1.13,0,0,1,.68.39,11.94,11.94,0,0,1,1,1.49c1.44,2.43,2.86,4.87,4.29,7.3q3.11,5.31,6.22,10.63l8,13.76c.31.52.62,1,.95,1.54s.81.57,1.23-.08c.29-.45.57-.91.84-1.37q4.86-8.39,9.73-16.75,4.14-7.17,8.29-14.32c.4-.7.83-1.38,1.28-2.06a1.23,1.23,0,0,1,1-.58c1,0,2,0,3,0a1,1,0,0,1,.89.94c0,.74.07,1.48.07,2.22Z"/><path d="M52.08,198.68q0-10.8,0-21.59c0-.74,0-1.48.08-2.22a1.06,1.06,0,0,1,1.06-1c.33,0,.67,0,1,0H72.59A23.06,23.06,0,0,1,81,175.51a15.7,15.7,0,0,1,8.07,6.71,9.68,9.68,0,0,1,.74,1.43,17.81,17.81,0,0,1,1.31,9.67c-.12.73-.2,1.47-.38,2.18a15.12,15.12,0,0,1-7.72,9.86c-.71.39-1.44.73-2.15,1.1a.65.65,0,0,0-.23.72c.23.41.45.82.72,1.21l6.69,9.35c1,1.37,2,2.74,2.91,4.12a6.7,6.7,0,0,1,.54,1.07.58.58,0,0,1-.37.63,2.79,2.79,0,0,1-.39.1h-4a1.6,1.6,0,0,1-1.21-.64c-.33-.42-.67-.84-1-1.28L77.09,211.2c-.62-.87-1.26-1.74-1.91-2.6A1.54,1.54,0,0,0,74,208l-.81,0-12.91,0h-.81c-1.25,0-1.53.3-1.55,1.57,0,1.81,0,3.63,0,5.45,0,2.21,0,4.43,0,6.65,0,1.74-.3,2-2,2-.94,0-1.89,0-2.82-.08a1,1,0,0,1-.91-.93c0-.74-.08-1.48-.08-2.21Q52.07,209.57,52.08,198.68Zm5.8-7.86v2.83c0,2.35,0,4.7,0,7a12.21,12.21,0,0,0,.15,1.59.66.66,0,0,0,.54.54,12.16,12.16,0,0,0,1.8.16H70.84c.81,0,1.61,0,2.42-.07a15.77,15.77,0,0,0,5.66-1.32,10.26,10.26,0,0,0,6-6.42,14.19,14.19,0,0,0,.66-4.16,15.54,15.54,0,0,0-.38-3.19A10,10,0,0,0,80.32,181a13.15,13.15,0,0,0-4.11-1.61,22.05,22.05,0,0,0-4.59-.53c-3.83,0-7.65,0-11.48,0-.47,0-.94,0-1.41.08a.93.93,0,0,0-.77.82c-.05.6-.08,1.2-.08,1.81C57.87,184.65,57.88,187.74,57.88,190.82Z"/><path d="M150.59,218.79a24,24,0,0,0,4.76-.44,18.62,18.62,0,0,0,7.26-3.39c.64-.49,1.25-1,1.88-1.52a.84.84,0,0,1,.95,0,13.55,13.55,0,0,1,2.65,2.75.63.63,0,0,1,0,.76,10.31,10.31,0,0,1-1.21,1.34,21.59,21.59,0,0,1-7.08,4.18,28.5,28.5,0,0,1-9.1,1.63,29.42,29.42,0,0,1-7.6-.81,24.9,24.9,0,0,1-11.85-6.58,24.41,24.41,0,0,1-6.62-12,16.28,16.28,0,0,1-.48-3.19c0-.54-.11-1.07-.15-1.61a8.06,8.06,0,0,1-.08-1.2,26.07,26.07,0,0,1,4.79-15,24.2,24.2,0,0,1,9.55-7.87,25.31,25.31,0,0,1,7.12-2.17c.8-.11,1.6-.22,2.4-.25,1.28-.05,2.56-.05,3.84,0a24.94,24.94,0,0,1,10.52,2.5,18.19,18.19,0,0,1,5.26,3.69,7,7,0,0,1,.65.77.84.84,0,0,1,0,.77,2.9,2.9,0,0,1-.35.49c-.7.72-1.41,1.44-2.14,2.14-.48.45-.88.43-1.42,0l-.6-.54a17.64,17.64,0,0,0-9.58-4.37,21.85,21.85,0,0,0-3.61-.35,22.37,22.37,0,0,0-10.65,2.7,19,19,0,0,0-7.35,7.3,18.21,18.21,0,0,0-2.19,5.62,19.92,19.92,0,0,0,14.56,24.14A20.58,20.58,0,0,0,150.59,218.79Z"/><path d="M815.85,198.87v21.59c0,.74,0,1.48-.07,2.22a1.07,1.07,0,0,1-1,1c-1,0-2,0-3,0a1.51,1.51,0,0,1-1.05-.53c-.28-.3-.52-.62-.77-.93l-10.67-13.43-12-15.17c-2.22-2.79-4.42-5.59-6.63-8.39-.17-.21-.32-.45-.61-.48a.19.19,0,0,0-.17.09.85.85,0,0,0-.12.37c0,.67,0,1.35,0,2v33.29c0,.74,0,1.48-.07,2.22a1,1,0,0,1-.92.92,14.37,14.37,0,0,1-3.82,0,1,1,0,0,1-.81-.8,4.73,4.73,0,0,1-.14-1c0-.54,0-1.08,0-1.61q0-21.6,0-43.18a21.5,21.5,0,0,1,.14-2.41.91.91,0,0,1,.77-.83,7.65,7.65,0,0,1,3.4,0,2,2,0,0,1,.85.5,19.35,19.35,0,0,1,1.31,1.54l16.31,20.53,12.43,15.63a2.63,2.63,0,0,0,.59.52c.06,0,.28-.06.31-.14a1.86,1.86,0,0,0,.11-.58c0-.67,0-1.35,0-2V177.19c0-.74,0-1.48.06-2.21a1.1,1.1,0,0,1,1-1.13,10.84,10.84,0,0,1,3.81,0,1,1,0,0,1,.8.81,4.29,4.29,0,0,1,.11.79c0,.61,0,1.21,0,1.82Z"/><path d="M433.12,198.86a21.38,21.38,0,0,1-.53,5.54,24.08,24.08,0,0,1-7.95,13.49,24.55,24.55,0,0,1-9.52,5.12,21.56,21.56,0,0,1-5.35,1c-.4,0-.8.09-1.2.13a11.14,11.14,0,0,1-1.41.1,29.59,29.59,0,0,1-12.68-2.88,24.36,24.36,0,0,1-11.85-12.71,22.69,22.69,0,0,1-1.82-8.83c0-.61,0-1.21,0-1.82a23.25,23.25,0,0,1,2.25-10.15,24.13,24.13,0,0,1,3.34-5.28,24.42,24.42,0,0,1,7.27-6,26,26,0,0,1,8.76-2.89,30.58,30.58,0,0,1,5.23-.35,29.07,29.07,0,0,1,7.36,1.11,24.89,24.89,0,0,1,12.5,8.13A24.23,24.23,0,0,1,432.76,194,23.24,23.24,0,0,1,433.12,198.86Zm-26.61-20.24a18.67,18.67,0,0,0-7.27,1.28,18.9,18.9,0,0,0-11.94,12.76,20.81,20.81,0,0,0-.73,8.17,20.39,20.39,0,0,0,2.44,8,18.8,18.8,0,0,0,9.45,8.42,21.85,21.85,0,0,0,15,.7,18.81,18.81,0,0,0,12.32-11.08,21.32,21.32,0,0,0,1.14-12.65,19.37,19.37,0,0,0-15-15.18A25.08,25.08,0,0,0,406.51,178.62Z"/><path d="M722.47,224.2a26.4,26.4,0,0,1-15.72-4.92,24,24,0,0,1-9.83-15.44,27.06,27.06,0,0,1-.47-5.62A25.1,25.1,0,0,1,702,182.76a24.16,24.16,0,0,1,10.7-7.64,23.88,23.88,0,0,1,7.47-1.6c.4,0,.8-.09,1.2-.12a8.21,8.21,0,0,1,1.21-.09A30.16,30.16,0,0,1,734.72,176,24.38,24.38,0,0,1,746,186.8a23.32,23.32,0,0,1,2.52,7.63,28.17,28.17,0,0,1,.25,6.43,26.79,26.79,0,0,1-1.51,7.08,23.65,23.65,0,0,1-7.87,10.76,26.07,26.07,0,0,1-12.32,5.17A28.77,28.77,0,0,1,722.47,224.2ZM743,198.6c0-.32,0-.93,0-1.53A18.55,18.55,0,0,0,738.76,186a19.63,19.63,0,0,0-14.5-7.32,21.91,21.91,0,0,0-5.42.28,20.43,20.43,0,0,0-6.28,2.11,19.06,19.06,0,0,0-9,10,21.38,21.38,0,0,0-1.18,11.1A18.81,18.81,0,0,0,708,213.23a19.41,19.41,0,0,0,12.81,5.61c1.07.07,2.15,0,3.23,0a18.16,18.16,0,0,0,7-1.51A19.07,19.07,0,0,0,741.91,206,18.29,18.29,0,0,0,743,198.6Z"/><path d="M561.82,190.21c0-4.58,0-9.15,0-13.73a19,19,0,0,1,.14-2,1,1,0,0,1,.83-.77,16.36,16.36,0,0,1,3.83,0,1.06,1.06,0,0,1,.82.8,5.44,5.44,0,0,1,.08.6c0,.4,0,.8,0,1.21v26.24a31.78,31.78,0,0,1-.73,6.6,20,20,0,0,1-.57,2.15c-2.17,6.69-6.82,10.61-13.6,12.13a19.26,19.26,0,0,1-4.21.46l-3.43,0a18.84,18.84,0,0,1-6.13-1.13A17.08,17.08,0,0,1,528,212.17a25.85,25.85,0,0,1-1.4-6.28,71.18,71.18,0,0,1-.26-7.86q0-10.6,0-21.2a20.65,20.65,0,0,1,.14-2.21,1,1,0,0,1,.93-.91,15.83,15.83,0,0,1,3.83,0,1,1,0,0,1,.79.81,7.22,7.22,0,0,1,.08.8c0,.61,0,1.21,0,1.82q0,12,0,24a35.57,35.57,0,0,0,.74,7.21,14.44,14.44,0,0,0,1.9,4.65,10.79,10.79,0,0,0,3.55,3.53,13.19,13.19,0,0,0,3.69,1.6,19,19,0,0,0,11.51-.48,11.41,11.41,0,0,0,7-7,19.58,19.58,0,0,0,1.22-5.91c.06-1.14.07-2.28.07-3.43C561.83,197.61,561.82,193.91,561.82,190.21Z"/><path d="M333.94,173.42a26.73,26.73,0,0,1,10.3,1.59,25.16,25.16,0,0,1,4.21,2,4.27,4.27,0,0,1,.66.45,1,1,0,0,1,.38,1.08c-.21.64-.44,1.27-.7,1.89s-.47,1-.72,1.43a.66.66,0,0,1-.72.23c-.3-.14-.61-.28-.9-.45a23,23,0,0,0-8.92-3,24.29,24.29,0,0,0-8.83.32,12.56,12.56,0,0,0-4.36,2.05,7.69,7.69,0,0,0-2.55,8.33,6.51,6.51,0,0,0,2.19,3.07,12.45,12.45,0,0,0,3.18,1.74,64,64,0,0,0,6.37,1.92c1.7.41,3.4.83,5.09,1.29a32.27,32.27,0,0,1,6.78,2.56,13.81,13.81,0,0,1,3.69,2.79,9.84,9.84,0,0,1,2.63,5.76,14.05,14.05,0,0,1-.56,6,11.9,11.9,0,0,1-4.65,6.18,18.46,18.46,0,0,1-7.6,3.08,32.65,32.65,0,0,1-16.14-1.25,23.73,23.73,0,0,1-5.95-2.94,7.45,7.45,0,0,1-1.68-1.44,1.12,1.12,0,0,1-.28-1.12,11.6,11.6,0,0,1,1.54-3,.78.78,0,0,1,1.08-.16,7.85,7.85,0,0,1,.66.47,22.42,22.42,0,0,0,6.55,3.52A26.31,26.31,0,0,0,336,219a16,16,0,0,0,5.08-1.2,8.25,8.25,0,0,0,4-3.3,7.28,7.28,0,0,0,.54-6.59,5.21,5.21,0,0,0-1-1.52,10,10,0,0,0-3.78-2.62,35.43,35.43,0,0,0-4.6-1.53c-2.6-.67-5.21-1.33-7.81-2a28.91,28.91,0,0,1-6.58-2.54,11.88,11.88,0,0,1-4.32-3.86,8.89,8.89,0,0,1-.95-1.77,12.81,12.81,0,0,1,2.5-13.55,11.66,11.66,0,0,1,3.17-2.48,20.07,20.07,0,0,1,9-2.57C332.19,173.38,333.07,173.42,333.94,173.42Z"/><path d="M864.3,173.4a28.15,28.15,0,0,1,11.17,2,18.3,18.3,0,0,1,3.75,2,1,1,0,0,1,.47,1.22c-.08.26-.16.52-.26.77-.21.49-.42,1-.64,1.48-.64,1.39-.87,1.54-2.25.74a23.89,23.89,0,0,0-7.93-2.86,15,15,0,0,0-2.2-.27c-1.48,0-3,0-4.44,0a14.52,14.52,0,0,0-4.9,1.08,10.09,10.09,0,0,0-2.46,1.38,6.9,6.9,0,0,0-2.86,5.12,15,15,0,0,0,0,2,5.21,5.21,0,0,0,1.64,3.58,10.61,10.61,0,0,0,3.88,2.48,49.07,49.07,0,0,0,5,1.54c2.15.55,4.3,1.1,6.45,1.68a32.21,32.21,0,0,1,7.14,2.74,12.25,12.25,0,0,1,4.38,3.8,8.7,8.7,0,0,1,1.09,2.15,12.64,12.64,0,0,1-5.09,14.88,18.31,18.31,0,0,1-7.09,2.78,33,33,0,0,1-8.65.36A29.53,29.53,0,0,1,849,220.66a19.42,19.42,0,0,1-3.17-2.15,6.11,6.11,0,0,1-.58-.56A.92.92,0,0,1,845,217a13.07,13.07,0,0,1,1.65-3.22.72.72,0,0,1,.91-.14c.35.22.69.43,1,.67a23.64,23.64,0,0,0,8.92,4.1,26,26,0,0,0,11.21.17,11.57,11.57,0,0,0,3.41-1.21c.29-.16.59-.32.87-.51,2.94-2.1,3.72-4.59,3.17-7.92a5.41,5.41,0,0,0-1.91-3.24,11.47,11.47,0,0,0-3.06-1.93,42.87,42.87,0,0,0-5.75-1.87l-6.66-1.67a28.77,28.77,0,0,1-5.67-2.08,14.33,14.33,0,0,1-3.83-2.58,10.23,10.23,0,0,1-3.1-5.77,14,14,0,0,1,0-5.21,12.41,12.41,0,0,1,5.86-8.33,18.57,18.57,0,0,1,5.39-2.23A25,25,0,0,1,864.3,173.4Z"/><path d="M609.23,201.44q0,9.69,0,19.37c0,.67,0,1.34-.08,2a1,1,0,0,1-.75.85,1.83,1.83,0,0,1-.39.09c-1.07,0-2.15,0-3.22,0-.8,0-1.19-.46-1.28-1.28,0-.34,0-.67-.06-1,0-.6,0-1.21,0-1.82q0-18.66,0-37.33c0-.74,0-1.48-.06-2.22a1.1,1.1,0,0,0-1-1.06c-.6,0-1.21-.07-1.81-.07H589.24q-1,0-2-.09a1.14,1.14,0,0,1-1.05-1,11.09,11.09,0,0,1,0-2.82,1.19,1.19,0,0,1,1.14-1.2c.6-.06,1.21-.08,1.81-.08h34.31c.74,0,1.48,0,2.21.08a1.12,1.12,0,0,1,1.08,1,9.11,9.11,0,0,1,0,3.21,1,1,0,0,1-.82.78A12.16,12.16,0,0,1,624,179H611.12a8.26,8.26,0,0,0-1,.09.94.94,0,0,0-.81.79c0,.67-.07,1.34-.07,2Q609.23,191.65,609.23,201.44Z"/><path d="M465.35,198.55q0-10.89,0-21.79c0-.74,0-1.48.1-2.21a.87.87,0,0,1,.65-.7,1.4,1.4,0,0,1,.39-.1c1.14,0,2.29,0,3.43,0a1.12,1.12,0,0,1,1.09,1,6.8,6.8,0,0,1,.11,1c0,.67,0,1.35,0,2V215.3c0,.74,0,1.48.08,2.22a1,1,0,0,0,.91.93q1,.09,2,.09,10.5,0,21,0c.6,0,1.21,0,1.81,0a5.52,5.52,0,0,1,1,.16.84.84,0,0,1,.66.69,12.63,12.63,0,0,1,0,3.42,1,1,0,0,1-.8.81,6.84,6.84,0,0,1-.79.12c-.54,0-1.08,0-1.62,0H468.58c-.61,0-1.21,0-1.82-.05a3.07,3.07,0,0,1-.78-.19.83.83,0,0,1-.51-.58,4.27,4.27,0,0,1-.1-.8c0-.6,0-1.21,0-1.82Z"/><path d="M661.75,198.68q0,11,0,22c0,.74,0,1.48-.1,2.21a1,1,0,0,1-.79.82,15.38,15.38,0,0,1-4,0,1.08,1.08,0,0,1-.79-.83,7,7,0,0,1-.09-.8c0-.54,0-1.07,0-1.61V177.1c0-.74,0-1.48.07-2.21a1.11,1.11,0,0,1,1-1.07,12.48,12.48,0,0,1,3.61,0l.19.05a1,1,0,0,1,.79.83,8.09,8.09,0,0,1,.1,1.2c0,1.21,0,2.42,0,3.63Z"/><path d="M868.71,35.7V24.93h-4.23v-2h10.84v2h-4.24V35.7Z"/><path d="M877.11,35.7V22.92h1.95l5.58,9.33h-1l5.49-9.33h2l0,12.78h-2.28V26.44h.46l-4.64,7.82h-1.07l-4.75-7.82h.55V35.7Z"/></svg>