<svg version="1.1" id="Layer_1" xmlns="http://www.w3.org/2000/svg" xmlns:xlink="http://www.w3.org/1999/xlink" x="0px" y="0px"
	 width="100%" viewBox="0 0 1024 1024" enable-background="new 0 0 1024 1024" xml:space="preserve">
<path fill="#000000" opacity="1.000000" stroke="none" 
	d="
M588.663452,302.809723 
	C592.298950,309.404785 594.950623,316.049103 596.936890,322.937347 
	C597.624878,325.323395 598.597595,326.533997 601.285706,326.740906 
	C606.240784,327.122223 611.145142,328.133545 616.097717,328.585968 
	C620.360962,328.975372 622.449890,331.283966 622.676575,335.302338 
	C623.136292,343.450745 623.294189,351.604309 622.481018,359.752045 
	C622.154602,363.022369 620.583679,365.013031 617.272400,365.430298 
	C612.004700,366.094238 606.743347,366.879486 601.453979,367.272278 
	C598.871277,367.464111 597.537598,368.462097 596.827087,370.869507 
	C594.796997,377.748352 592.214478,384.421875 588.765869,390.722748 
	C587.608398,392.837494 588.005798,394.426697 589.631897,396.059235 
	C592.805603,399.245514 595.992981,402.430847 598.969482,405.797943 
	C603.057495,410.422394 603.056519,413.152191 598.852051,417.482544 
	C593.750000,422.737366 588.562195,427.921753 583.189270,432.896484 
	C579.318542,436.480347 575.731445,436.362122 571.628723,432.928375 
	C568.436401,430.256592 565.293640,427.513000 562.290222,424.633026 
	C560.579773,422.992859 559.181824,422.786774 557.039734,423.979401 
	C550.480835,427.631165 543.629395,430.663452 536.285461,432.415253 
	C533.400940,433.103302 532.077576,434.770874 532.336975,437.785248 
	C532.697083,441.969910 531.784607,446.069977 531.354431,450.203613 
	C530.947083,454.118378 528.997559,456.341278 524.947815,456.354736 
	C517.116943,456.380829 509.285828,456.333679 501.455017,456.360718 
	C497.098236,456.375732 495.148804,453.947357 494.727509,449.914246 
	C494.365417,446.447937 493.579376,442.945282 493.816254,439.516449 
	C494.148438,434.708313 492.109833,432.627594 487.647614,431.659149 
	C481.264862,430.273804 475.322815,427.571991 469.727509,424.235657 
	C467.308472,422.793243 465.629791,422.991455 463.618774,424.955933 
	C460.644714,427.861237 457.365417,430.453308 454.228027,433.192413 
	C450.652039,436.314484 446.863983,436.406403 443.457458,433.267548 
	C437.826385,428.079071 432.326202,422.730347 427.039154,417.193024 
	C423.468262,413.453094 423.641144,409.612946 427.138794,405.646271 
	C429.780548,402.650330 432.569489,399.775330 435.416901,396.972504 
	C437.600159,394.823395 438.119904,392.832489 436.496826,389.929291 
	C433.328003,384.261230 430.597778,378.321838 429.253021,371.925720 
	C428.479523,368.246765 426.520599,367.327087 422.973541,367.243774 
	C418.180664,367.131226 413.394440,366.306824 408.627960,365.628845 
	C404.512665,365.043518 402.634491,362.476532 402.656158,358.355499 
	C402.695587,350.858002 402.649384,343.360016 402.679016,335.862427 
	C402.696259,331.501556 404.866608,329.124451 409.266449,328.631989 
	C414.046753,328.096954 418.789246,327.127380 423.578918,326.808258 
	C426.553528,326.610016 428.027130,325.563721 428.830597,322.672546 
	C430.752686,315.756073 433.507111,309.128296 437.060394,302.890259 
	C438.305023,300.705292 437.978210,299.288696 436.294464,297.671753 
	C433.291046,294.787567 430.336670,291.844818 427.490906,288.805664 
	C423.329773,284.361725 423.342712,279.466034 427.694855,275.140656 
	C432.538055,270.327332 437.556122,265.687164 442.567749,261.046875 
	C446.398987,257.499512 449.957489,257.464996 454.092560,260.925842 
	C457.412262,263.704346 460.714325,266.519135 463.834839,269.515045 
	C465.790527,271.392639 467.547882,271.918274 470.011383,270.479706 
	C476.222687,266.852570 482.857208,264.154907 489.801605,262.304230 
	C492.716675,261.527374 493.711395,259.944519 493.729767,256.947723 
	C493.755157,252.809860 494.298187,248.669159 494.732208,244.541504 
	C495.196472,240.126083 498.116913,238.052155 502.184784,237.934799 
	C509.340424,237.728333 516.514282,237.722870 523.666870,237.994049 
	C528.433655,238.174759 531.407288,240.596558 531.402588,245.870834 
	C531.400696,248.010605 532.031799,250.142929 532.217407,252.292236 
	C532.978455,261.105591 533.006470,260.962982 541.732117,264.001678 
	C546.117493,265.528870 550.534241,267.277618 554.475830,269.681824 
	C558.552856,272.168640 561.339844,271.575439 564.460938,268.261444 
	C567.301758,265.245117 570.563721,262.597290 573.808777,259.997620 
	C577.155090,257.316772 580.518799,257.523987 583.635437,260.599701 
	C588.615356,265.514130 593.753296,270.276428 598.575867,275.339813 
	C603.150635,280.143097 603.016113,283.999481 598.470215,288.842010 
	C595.621460,291.876678 592.615906,294.763702 589.702698,297.738525 
	C588.388367,299.080658 587.108154,300.470276 588.663452,302.809723 
M464.252899,340.364502 
	C457.461761,340.662140 452.766205,344.248016 451.515106,350.092041 
	C450.475830,354.946686 453.360168,360.567688 458.114960,362.953705 
	C462.459534,365.133911 469.455811,364.202789 472.180115,360.028107 
	C474.823669,355.977142 478.039490,355.269318 482.244476,355.593964 
	C484.892303,355.798370 487.583221,355.817444 490.228180,355.598358 
	C494.099030,355.277740 495.495148,356.733429 495.418274,360.705750 
	C495.202454,371.854431 495.329010,383.010101 495.366791,394.162872 
	C495.372375,395.810455 495.411865,397.514404 495.827576,399.088776 
	C496.272339,400.773285 497.534546,402.075775 499.395111,402.123627 
	C501.490540,402.177490 502.838837,400.841217 503.297577,398.899261 
	C503.635742,397.467743 503.626801,395.934143 503.627167,394.445984 
	C503.630737,380.130402 502.881836,365.767853 503.810425,351.513947 
	C504.569946,339.854614 501.609619,330.690521 492.236603,323.643402 
	C489.752533,321.775726 488.587433,319.552887 489.389801,315.924927 
	C490.683105,310.077148 486.731262,305.176758 480.777496,304.028259 
	C476.005127,303.107666 471.004272,306.589325 469.610199,311.803101 
	C468.312134,316.657806 471.399506,323.276947 476.623291,323.892700 
	C483.700317,324.726929 486.810455,330.068451 491.285675,333.998291 
	C495.732300,337.903107 496.036346,342.705261 494.754028,348.365753 
	C490.743866,348.365753 486.939636,348.224976 483.150177,348.401855 
	C478.539307,348.617065 474.373138,348.453278 471.503510,343.832092 
	C470.221558,341.767670 467.579834,340.835632 464.252899,340.364502 
M520.206543,369.500000 
	C520.204956,371.165924 520.201355,372.831818 520.201965,374.497742 
	C520.205627,384.159546 520.205444,393.821320 520.218262,403.483124 
	C520.221252,405.690399 520.797485,407.490356 523.465759,407.606812 
	C526.091919,407.721436 527.570618,406.467743 527.732117,403.835632 
	C527.844299,402.008514 527.850525,400.172913 527.849670,398.341125 
	C527.839722,378.350861 528.170593,358.350739 527.610168,338.375702 
	C527.414734,331.410004 529.538879,327.585297 535.958313,325.288086 
	C539.096680,324.164948 541.194336,323.576447 543.782043,326.475800 
	C546.768982,329.822540 550.809753,331.510681 555.509094,330.106476 
	C561.465210,328.326752 565.398254,323.536530 565.624573,317.867462 
	C565.815613,313.082947 562.487427,307.937958 557.934937,305.980042 
	C552.957703,303.839508 546.339783,305.157593 542.600586,310.000763 
	C540.086121,313.257629 536.921265,314.957611 533.472168,316.580475 
	C530.760620,317.856262 528.100403,319.254883 525.334045,320.397003 
	C521.641357,321.921570 520.107666,324.436798 520.159607,328.520386 
	C520.328979,341.844971 520.213684,355.173187 520.206543,369.500000 
M575.094666,364.494781 
	C577.878296,360.294525 578.945862,355.986053 575.652405,351.560822 
	C573.283997,348.378510 570.052734,346.730621 566.095947,347.514221 
	C560.910156,348.541168 558.184082,352.124542 557.373657,357.174774 
	C557.053223,359.171234 555.989868,359.998810 554.150757,360.356110 
	C551.549683,360.861481 548.981079,361.531738 546.387939,362.081024 
	C543.143372,362.768311 541.454407,364.864990 541.422852,368.049072 
	C541.329041,377.526978 541.365356,387.006439 541.402649,396.485107 
	C541.411438,398.718994 542.431824,400.422607 544.801147,400.698090 
	C547.178650,400.974518 548.567383,399.524353 549.061646,397.361176 
	C549.427063,395.762146 549.603699,394.081848 549.587341,392.440491 
	C549.525940,386.292053 549.217773,380.143005 549.297363,373.998016 
	C549.321960,372.098816 548.362244,369.341888 551.439209,368.593018 
	C555.404541,367.627838 559.240295,365.780548 563.554504,367.416870 
	C567.630249,368.962769 571.396362,368.031067 575.094666,364.494781 
M504.991028,299.343842 
	C507.490479,301.371674 509.127625,304.772614 513.011230,304.616486 
	C516.458862,304.477905 522.524231,298.102722 522.506775,294.769623 
	C522.488342,291.270081 519.421753,289.499664 513.330750,289.467651 
	C512.335999,289.462433 511.340515,289.409363 510.346771,289.434021 
	C503.818390,289.595978 501.878510,292.710419 504.991028,299.343842 
z"/>
<path fill="#000000" opacity="1.000000" stroke="none" 
	d="
M906.404419,482.000122 
	C906.393494,491.997131 906.418579,501.494324 906.362000,510.991028 
	C906.294128,522.382080 899.476624,529.271545 887.938538,529.319580 
	C864.946228,529.415344 841.953125,529.321411 818.960754,529.408997 
	C816.809692,529.417175 813.497070,528.151123 812.784485,531.000549 
	C811.839417,534.779663 811.613708,538.955383 813.070618,542.749817 
	C813.651794,544.263184 815.752625,543.698059 817.207214,543.704651 
	C825.537781,543.742188 833.871521,543.589966 842.198181,543.775208 
	C849.072693,543.928101 853.017944,547.530579 853.339111,553.421387 
	C853.735291,560.687256 850.386169,564.355286 843.105347,564.360535 
	C805.283997,564.387695 767.462646,564.381409 729.641296,564.354614 
	C722.325500,564.349365 718.678711,561.000122 718.663391,554.482788 
	C718.648010,547.972229 722.732239,543.884094 729.790405,543.759216 
	C738.285095,543.608948 746.788818,543.557434 755.279785,543.789490 
	C759.421265,543.902588 761.170105,542.427368 760.673279,538.304749 
	C760.554565,537.319397 760.545044,536.292786 760.675415,535.310364 
	C761.275024,530.791748 759.529785,529.215942 754.831055,529.259155 
	C732.006958,529.469238 709.179749,529.372864 686.353699,529.336548 
	C672.937134,529.315186 665.712158,522.125305 665.701172,508.650116 
	C665.660889,459.165833 665.672668,409.681458 665.687561,360.197144 
	C665.691284,347.829285 672.337952,340.973114 684.706421,340.765594 
	C694.200867,340.606262 703.699890,340.720825 713.196899,340.721191 
	C769.845642,340.723358 826.494324,340.725281 883.143066,340.740051 
	C885.472961,340.740662 887.830750,340.662354 890.128113,340.972137 
	C901.811707,342.547607 906.379333,347.756165 906.387390,359.539185 
	C906.415405,400.192841 906.401917,440.846466 906.404419,482.000122 
M685.273987,480.494324 
	C685.275269,484.158875 685.408997,487.829559 685.238586,491.486115 
	C685.084961,494.781036 686.518005,495.905151 689.684509,495.827759 
	C695.511841,495.685272 701.349731,495.638733 707.173950,495.832336 
	C710.730774,495.950562 711.896606,494.473907 711.730530,491.092194 
	C711.542786,487.269958 711.662415,483.430786 711.704529,479.599609 
	C711.744263,475.984528 712.886963,473.002228 716.743652,471.915833 
	C722.877380,470.188049 731.811707,471.770782 733.614990,474.771637 
	C734.448792,476.159210 734.337158,477.651978 734.351196,479.134277 
	C734.389099,483.132233 734.529114,487.138062 734.335876,491.126617 
	C734.171570,494.518951 735.319580,496.028137 738.887817,495.843597 
	C743.041443,495.628754 747.228027,495.591217 751.376038,495.856567 
	C755.656677,496.130402 756.800171,494.253174 756.721008,490.247192 
	C756.517090,479.922485 756.643982,469.590912 756.665955,459.262146 
	C756.681885,451.745880 758.554749,449.890320 766.112610,449.816620 
	C767.445190,449.803650 768.778992,449.793945 770.110596,449.834503 
	C777.105286,450.047485 779.279602,452.250458 779.305115,459.304382 
	C779.343689,469.966248 779.393311,480.629089 779.277039,491.289795 
	C779.242981,494.410004 780.190796,495.940063 783.526367,495.823853 
	C787.852356,495.673126 792.189148,495.725006 796.518555,495.816040 
	C799.485535,495.878387 800.739746,494.598999 800.671204,491.621368 
	C800.563843,486.959381 800.761902,482.289948 800.638000,477.628784 
	C800.201233,461.202606 801.412109,462.616882 816.780457,462.674438 
	C820.968201,462.690125 823.419312,464.806030 823.726746,468.931213 
	C824.023132,472.908936 823.973450,476.915527 823.996948,480.909943 
	C824.085449,495.932159 824.075439,495.737793 838.975159,495.891327 
	C843.781250,495.940826 844.837341,494.191681 844.780762,489.787109 
	C844.570862,473.463623 844.695374,457.135803 844.695862,440.809631 
	C844.696228,427.604340 844.721558,427.579712 857.691772,427.644043 
	C866.113586,427.685822 867.342102,428.877228 867.345825,437.095520 
	C867.353943,454.921051 867.439087,472.747345 867.278992,490.571442 
	C867.244629,494.404633 868.302002,496.164795 872.343323,495.838715 
	C875.322205,495.598358 878.369629,495.519226 881.328003,495.866760 
	C886.422546,496.465210 887.799805,494.507690 887.774841,489.443848 
	C887.573181,448.629364 887.661926,407.813507 887.655212,366.998047 
	C887.654175,360.322815 887.638855,360.307892 881.163757,360.307343 
	C818.191345,360.302063 755.218933,360.301056 692.246521,360.302399 
	C685.297363,360.302551 685.285339,360.312988 685.284058,367.545776 
	C685.277283,404.862762 685.277222,442.179718 685.273987,480.494324 
z"/>
<path fill="#000000" opacity="1.000000" stroke="none" 
	d="
M278.332275,433.438629 
	C270.029144,436.785461 262.174744,440.058990 258.736664,448.975159 
	C256.773956,454.065247 256.657043,459.464630 256.502197,464.690002 
	C256.087921,478.667969 255.791138,492.695679 256.518677,506.647766 
	C257.200653,519.726196 260.932861,532.168518 268.519287,543.168762 
	C269.629272,544.778320 271.137909,546.201416 271.373474,548.418518 
	C269.928375,550.064392 267.976196,549.352417 266.281372,549.354919 
	C235.297501,549.400879 204.313538,549.405212 173.329620,549.373596 
	C161.638184,549.361633 155.653214,543.240479 155.651978,531.405945 
	C155.645950,473.935699 155.647690,416.465485 155.650345,358.995239 
	C155.650879,347.342407 161.106171,341.533569 172.823669,340.954559 
	C177.477188,340.724579 182.150055,340.873444 186.814102,340.871216 
	C229.125320,340.851196 271.436646,340.787537 313.747681,340.868347 
	C320.545715,340.881348 327.127136,342.010895 331.046844,348.699951 
	C332.592499,351.337585 333.399170,354.105469 333.383575,357.231476 
	C333.303162,373.389374 333.247833,389.548950 333.422516,405.705353 
	C333.461334,409.296509 332.171936,411.003235 328.899933,412.339874 
	C312.109833,419.198700 295.418152,426.298431 278.332275,433.438629 
M220.876648,415.499634 
	C230.532593,409.264130 234.600494,400.504761 232.621521,389.124054 
	C230.565262,377.298859 217.849518,367.776489 205.755188,369.532745 
	C191.460754,371.608490 182.767288,382.653198 183.633301,394.844482 
	C185.224167,417.239838 207.388931,423.270447 220.876648,415.499634 
M242.461945,451.066895 
	C241.030457,449.563629 239.278015,448.506989 237.220016,448.499481 
	C222.263260,448.444794 207.304993,448.377808 192.350021,448.554443 
	C188.655350,448.598083 185.681030,450.892487 185.793640,454.721863 
	C185.905258,458.516907 188.943954,460.549194 192.658081,460.576324 
	C207.448654,460.684509 222.242554,460.756927 237.030792,460.539825 
	C242.272278,460.462891 244.271027,457.018951 242.461945,451.066895 
M290.421692,373.380524 
	C277.277588,373.390961 264.133026,373.342316 250.989700,373.448395 
	C247.124359,373.479584 243.689041,375.258118 243.682236,379.370392 
	C243.676361,382.914032 246.718979,384.712036 250.321503,384.718842 
	C266.293762,384.749115 282.266083,384.737091 298.238403,384.725098 
	C301.771179,384.722443 304.197693,382.768677 304.419830,379.465302 
	C304.672699,375.705048 301.834717,373.891113 298.370514,373.476868 
	C296.072418,373.202057 293.718323,373.395874 290.421692,373.380524 
M198.574539,509.107819 
	C196.744446,509.111206 194.912949,509.162537 193.084564,509.108185 
	C189.029633,508.987701 185.726517,510.680206 185.773605,514.805908 
	C185.819778,518.850281 189.210434,520.606995 193.145676,520.622131 
	C204.458878,520.665833 215.772827,520.702393 227.085480,520.612854 
	C231.793640,520.575562 234.946426,517.960327 234.594940,514.456848 
	C234.138992,509.911896 230.826187,509.127136 227.005539,509.134735 
	C217.855118,509.152924 208.704590,509.120483 198.574539,509.107819 
M245.977112,405.204651 
	C244.250641,406.768890 243.183640,408.600372 244.320450,410.913269 
	C245.615250,413.547546 247.869843,414.675995 250.802521,414.670135 
	C261.918579,414.647949 273.035767,414.590759 284.150360,414.726044 
	C288.275879,414.776306 291.542267,413.685577 292.386658,409.321167 
	C292.990051,406.202393 288.934662,403.407898 284.113617,403.389252 
	C273.495361,403.348175 262.876801,403.394318 252.258438,403.367004 
	C250.228989,403.361786 248.279114,403.509064 245.977112,405.204651 
M224.885406,490.635986 
	C228.838821,490.441040 231.944016,488.682312 232.127609,484.581329 
	C232.268845,481.426544 229.804047,479.364594 226.558228,479.332458 
	C214.738846,479.215485 202.917236,479.220062 191.097519,479.313599 
	C188.012192,479.338043 186.072647,481.462860 185.647888,484.273895 
	C185.226349,487.063690 187.287079,488.786072 189.633240,490.006378 
	C191.192062,490.817139 192.879593,490.635345 194.532654,490.637970 
	C204.357300,490.653534 214.182007,490.644531 224.885406,490.635986 
z"/>
<path fill="#000000" opacity="1.000000" stroke="none" 
	d="
M646.763428,207.224365 
	C626.417419,184.333618 620.154419,158.326996 629.666870,129.609451 
	C639.291443,100.553665 659.888123,82.490929 689.994141,76.757133 
	C735.091919,68.168091 776.894409,97.444031 784.081177,142.424194 
	C790.399658,181.970062 764.957336,221.045731 723.201294,230.222351 
	C693.844482,236.674057 668.259094,228.959747 646.763428,207.224365 
M682.293396,157.206253 
	C680.179565,155.080154 678.083923,152.935654 675.947388,150.832581 
	C673.225769,148.153534 670.285950,147.158951 667.251221,150.258453 
	C664.163147,153.412430 664.831970,156.575821 667.726501,159.449188 
	C674.462708,166.136276 681.158569,172.868576 688.050903,179.392227 
	C692.503967,183.607025 695.415039,183.530212 699.566162,179.064606 
	C704.323486,173.946762 708.765381,168.535446 713.340942,163.248734 
	C723.254761,151.794357 733.176575,140.346924 743.071289,128.876083 
	C745.331909,126.255333 746.647583,123.493416 743.427551,120.623131 
	C740.177063,117.725746 737.154602,118.071289 734.383423,121.364502 
	C733.525818,122.383675 732.622009,123.363770 731.752441,124.373032 
	C720.123108,137.870483 708.435791,151.318787 696.917114,164.910110 
	C694.481079,167.784409 692.707703,168.045975 690.198242,165.136276 
	C687.920654,162.495361 685.274048,160.172668 682.293396,157.206253 
z"/>
<path fill="#000000" opacity="1.000000" stroke="none" 
	d="
M283.311432,148.845123 
	C275.536743,146.188400 268.141449,143.641815 260.715424,141.188141 
	C255.899689,139.596939 252.345749,140.701859 251.575897,144.167831 
	C250.568970,148.701248 253.770218,150.402985 257.256989,151.595459 
	C279.929352,159.349350 302.623291,167.040207 325.287506,174.817673 
	C327.333527,175.519806 330.252106,175.493729 330.207550,178.809677 
	C330.168335,181.728088 327.614563,181.932129 325.687744,182.688324 
	C305.388947,190.654633 285.001343,198.402557 264.819550,206.654053 
	C259.140167,208.976120 254.326004,208.990570 248.673416,206.601944 
	C210.951691,190.661697 173.108765,175.008209 135.301224,159.271164 
	C132.842926,158.247940 130.357712,157.288223 127.873566,156.328598 
	C125.130287,155.268845 122.679642,154.053619 122.666466,150.480438 
	C122.653992,147.096741 124.998337,146.016205 127.545387,144.963501 
	C146.162338,137.268997 164.779068,129.573792 183.379974,121.840607 
	C205.208603,112.765526 227.066071,103.757057 248.809753,94.482239 
	C254.366135,92.112152 259.329712,91.878296 265.035858,94.254845 
	C304.992920,110.896439 345.057983,127.278702 385.088257,143.744461 
	C386.011963,144.124390 386.922241,144.539719 387.857544,144.888184 
	C390.534241,145.885468 392.687927,147.507553 392.803497,150.538910 
	C392.922485,153.659622 390.687134,155.184570 388.066681,156.282227 
	C378.546143,160.270096 369.131805,164.532425 359.494934,168.213516 
	C354.174988,170.245636 352.063538,173.338913 352.233765,179.088547 
	C352.593567,191.241867 352.394043,203.413681 352.302948,215.577011 
	C352.280731,218.542969 352.849274,220.871353 355.124451,223.137512 
	C359.604889,227.600250 359.723541,233.726288 355.527008,238.415817 
	C353.718506,240.436813 353.358948,242.069336 354.091309,244.635696 
	C356.688782,253.737762 358.818085,262.975098 361.492188,272.052948 
	C362.870819,276.733032 361.076324,279.439270 357.171173,281.298431 
	C353.815491,282.896057 350.226196,283.544525 346.492432,283.297943 
	C336.269836,282.622894 333.282623,278.454529 335.877228,268.646393 
	C337.958038,260.780334 339.806061,252.850891 342.001190,245.017899 
	C342.757080,242.320648 342.512207,240.491898 340.486847,238.328842 
	C336.310883,233.869003 336.425934,227.491821 340.760681,223.018799 
	C342.953552,220.755936 343.679199,218.452042 343.650360,215.453690 
	C343.539764,203.957199 343.621033,192.459015 343.573792,180.961716 
	C343.537842,172.211639 340.990570,168.483597 332.822205,165.673920 
	C316.463806,160.047089 300.061768,154.547043 283.311432,148.845123 
z"/>
<path fill="#000000" opacity="1.000000" stroke="none" 
	d="
M311.454224,569.594971 
	C294.588257,557.538513 281.126190,543.138489 273.648590,523.803406 
	C270.503265,515.670410 268.853302,507.269745 268.622559,498.538696 
	C268.292969,486.066010 267.951263,473.601898 268.259399,461.118500 
	C268.426239,454.360901 271.172241,449.791595 277.480347,447.174377 
	C292.846313,440.799103 308.178833,434.341400 323.470490,427.789978 
	C328.311096,425.716125 332.862640,425.442047 337.887665,427.464569 
	C353.313324,433.673218 368.895447,439.491730 384.361633,445.601410 
	C394.025604,449.419037 396.336487,453.010956 396.341827,463.305176 
	C396.347748,474.793152 396.135590,486.285583 396.383636,497.768158 
	C396.837341,518.773132 388.888092,536.298889 374.714752,551.299927 
	C364.917084,561.669678 353.476196,569.924438 341.089996,576.941772 
	C334.863525,580.469360 328.719452,580.408447 322.644714,576.847290 
	C318.916748,574.661865 315.368958,572.169189 311.454224,569.594971 
M334.710876,492.250946 
	C330.895203,492.503906 329.151611,491.408478 330.252319,487.034088 
	C331.910767,480.442993 332.976593,473.704041 334.355316,467.040527 
	C334.731384,465.222992 334.527008,463.633667 332.829315,462.704193 
	C330.832977,461.611145 329.261932,462.607269 328.115326,464.229736 
	C327.257172,465.444000 326.567017,466.791504 325.914612,468.134338 
	C321.111328,478.020905 316.365234,487.935303 311.542450,497.812317 
	C308.305023,504.442566 309.549377,506.585175 316.868500,506.636871 
	C322.624969,506.677551 328.381989,506.645081 334.373871,506.645081 
	C334.498566,515.240906 332.087494,522.586731 331.122894,530.119690 
	C330.829254,532.412598 330.171753,534.576904 332.934204,535.507324 
	C335.723450,536.446777 337.289246,534.685730 338.387146,532.391907 
	C343.780884,521.122742 349.223999,509.876556 354.528381,498.565399 
	C356.365784,494.647308 355.011810,492.493591 350.664978,492.339020 
	C345.671082,492.161469 340.666901,492.272491 334.710876,492.250946 
z"/>
<path fill="#000000" opacity="1.000000" stroke="none" 
	d="
M604.000732,529.668579 
	C609.997559,529.672058 615.496399,529.590271 620.991333,529.699890 
	C628.799500,529.855713 633.282166,534.427307 633.331116,542.276672 
	C633.392334,552.104370 633.234558,561.934570 633.389832,571.760254 
	C633.467041,576.646301 631.017151,579.398865 626.601440,580.189453 
	C612.552551,582.704773 598.449585,584.916626 584.388000,587.363342 
	C580.736328,587.998779 579.982117,585.531067 578.791809,583.074158 
	C567.047485,558.832764 532.509155,550.867615 511.806549,567.608398 
	C506.257202,572.095764 502.380981,577.926392 499.263733,584.231628 
	C498.024536,586.738098 496.423218,587.727966 493.777313,587.283752 
	C480.198792,585.004028 466.628296,582.674500 453.037201,580.472168 
	C448.003693,579.656555 445.900024,576.558960 445.855682,571.823242 
	C445.760529,561.662842 445.663147,551.499451 445.814209,541.340942 
	C445.919678,534.247070 450.661682,529.798523 458.076569,529.708496 
	C468.569550,529.581116 479.067596,529.534119 489.558258,529.731384 
	C493.529144,529.805969 494.932037,528.342346 494.708679,524.473511 
	C494.478668,520.489197 494.603760,516.479370 494.686401,512.483093 
	C494.868103,503.697571 500.234406,497.851562 508.975342,497.765228 
	C529.295837,497.564545 549.621094,497.573486 569.941650,497.776062 
	C579.381958,497.870148 584.300293,503.214905 584.339478,512.508667 
	C584.357727,516.839661 584.439819,521.173035 584.326172,525.500977 
	C584.247192,528.509827 585.578308,529.715881 588.509216,529.672729 
	C593.505432,529.599182 598.503601,529.662720 604.000732,529.668579 
M536.500000,529.669312 
	C544.832947,529.666992 553.166138,529.703064 561.498718,529.648254 
	C566.731384,529.613892 566.932373,529.024170 567.001099,521.641357 
	C567.040710,517.388123 565.364929,515.465942 561.107300,515.608582 
	C546.615906,516.093872 532.120544,516.130920 517.629578,515.640991 
	C514.085693,515.521179 512.233459,516.820862 512.339111,520.498230 
	C512.382202,521.996826 512.445496,523.506775 512.317200,524.995911 
	C512.017395,528.475952 513.592773,529.771851 517.001892,529.695984 
	C523.165100,529.558838 529.333679,529.664246 536.500000,529.669312 
z"/>
<path fill="#000000" opacity="1.000000" stroke="none" 
	d="
M220.659012,205.222046 
	C230.854538,209.448807 240.761826,213.379745 250.523346,217.644363 
	C255.477951,219.808929 260.048767,219.443558 264.926971,217.496155 
	C285.026825,209.472244 305.185181,201.594635 325.336914,193.701172 
	C326.686798,193.172394 327.966217,192.161224 329.624969,192.640228 
	C330.747253,194.094055 330.317444,195.813995 330.321289,197.423233 
	C330.355682,211.753159 330.224487,226.084824 330.421753,240.412109 
	C330.473663,244.183838 329.100525,246.651794 326.224030,248.839172 
	C316.295044,256.389435 304.821320,260.187988 292.843719,262.676392 
	C263.786285,268.713104 235.026245,267.755432 206.744293,258.374420 
	C197.679611,255.367737 189.133682,251.236679 182.126358,244.526123 
	C176.473740,239.112869 173.331116,232.732437 173.553360,224.572571 
	C173.892487,212.121017 173.642242,199.653397 173.642242,185.855408 
	C189.798264,192.505280 205.054382,198.784760 220.659012,205.222046 
z"/>
<path fill="#000000" opacity="1.000000" stroke="none" 
	d="
M570.690552,650.995422 
	C570.691345,649.163147 570.776794,647.823608 570.679443,646.497559 
	C570.058594,638.043823 570.898743,630.343262 577.049500,623.399353 
	C581.905090,617.917542 582.840820,610.347839 582.536987,603.099060 
	C582.352722,598.703552 584.276184,597.296631 588.088684,596.673401 
	C599.887207,594.744873 611.671448,592.721252 623.433411,590.581604 
	C626.495728,590.024475 629.456482,588.909424 632.469543,588.049011 
	C633.924255,589.288879 633.319275,590.893005 633.322144,592.288757 
	C633.362793,612.121033 633.362122,631.953430 633.342896,651.785767 
	C633.334900,660.021973 629.594299,664.713562 621.382141,665.481628 
	C605.765259,666.942139 590.080505,665.792114 574.427856,666.077454 
	C571.595154,666.129028 570.643921,664.613892 570.694397,661.993469 
	C570.761780,658.495117 570.698059,654.994263 570.690552,650.995422 
z"/>
<path fill="#000000" opacity="1.000000" stroke="none" 
	d="
M457.008179,665.442017 
	C449.007782,663.060242 445.944763,659.736328 445.890076,652.339661 
	C445.738495,631.849426 445.874878,611.357056 445.923615,590.865601 
	C445.925537,590.057129 446.195679,589.249329 446.454834,587.806641 
	C453.444794,590.403259 460.529785,591.728516 467.690430,592.783508 
	C475.567627,593.944031 483.383240,595.516785 491.242310,596.808960 
	C494.849823,597.402100 496.590698,598.906982 496.436523,603.003967 
	C496.058014,613.061096 499.391418,621.960754 506.108368,629.515076 
	C507.480957,631.058777 508.415192,632.641724 508.394379,634.839478 
	C508.309113,643.835144 508.319122,652.832031 508.360382,661.828247 
	C508.371704,664.299194 507.876190,666.105225 504.869171,666.053467 
	C489.056488,665.780884 473.228851,666.780762 457.008179,665.442017 
z"/>
<path fill="#000000" opacity="1.000000" stroke="none" 
	d="
M680.995361,270.912598 
	C678.552490,276.056610 676.434509,280.945709 673.986633,285.663635 
	C671.428589,290.593964 667.089478,290.902740 663.798889,286.468719 
	C659.438782,280.593506 655.133911,274.672882 650.977234,268.653107 
	C649.019226,265.817505 647.115417,264.407867 643.217896,265.036255 
	C635.869080,266.221100 628.378601,266.532654 620.945251,267.186768 
	C615.140442,267.697571 613.009949,264.460754 615.601318,258.485779 
	C620.032776,248.268097 624.727844,238.164764 629.313416,228.013962 
	C631.550232,223.062607 633.789795,218.112564 636.454773,212.218140 
	C652.088867,229.254318 670.478088,239.811340 693.657715,243.024857 
	C689.313293,252.615936 685.244263,261.599182 680.995361,270.912598 
z"/>
<path fill="#000000" opacity="1.000000" stroke="none" 
	d="
M757.794128,226.778412 
	C763.747314,222.734909 768.378418,217.692764 773.339355,212.933426 
	C775.960449,214.884995 776.502563,217.611404 777.591675,219.943558 
	C783.086243,231.708725 788.485229,243.518631 793.886292,255.327209 
	C794.715576,257.140411 795.606567,258.973541 796.075012,260.893555 
	C797.051453,264.895996 794.817688,267.487915 790.704346,267.117096 
	C782.436707,266.371918 774.162659,265.631287 765.932495,264.568787 
	C762.757690,264.158966 760.871521,265.363312 759.242004,267.738617 
	C755.002441,273.918457 750.750610,280.090088 746.463013,286.236664 
	C743.315308,290.749115 738.651855,290.672150 736.296265,285.743256 
	C729.836853,272.227173 723.648132,258.581573 717.377991,244.975433 
	C717.185181,244.557144 717.275757,244.008270 717.194458,243.052841 
	C731.772034,240.610077 745.449524,235.769180 757.794128,226.778412 
z"/>
<path fill="#000000" opacity="1.000000" stroke="none" 
	d="
M532.210632,569.710632 
	C545.128296,568.387512 556.095886,571.295715 564.384216,581.380432 
	C572.372742,591.100403 573.853516,607.082031 567.849365,618.054565 
	C561.940552,628.852905 548.644775,635.774780 536.868896,634.183228 
	C522.649292,632.261353 512.385803,623.576294 509.230988,609.720947 
	C504.728363,589.946289 516.648743,573.024841 532.210632,569.710632 
M538.292053,618.505188 
	C544.443909,612.926758 550.621033,607.375793 556.733704,601.754761 
	C558.834412,599.823059 559.499817,597.604187 557.250000,595.262695 
	C555.083679,593.008179 552.904907,593.250000 550.730103,595.283264 
	C548.424622,597.438782 546.127380,599.604004 543.782776,601.716309 
	C541.563232,603.715942 539.578430,606.340637 536.964050,607.447693 
	C533.465942,608.929138 532.360474,604.522644 529.896362,603.148010 
	C527.260254,601.677551 525.513306,602.753845 523.748840,604.520569 
	C521.756714,606.515198 522.840149,608.120300 524.409546,609.602417 
	C526.582642,611.654663 528.776123,613.689270 531.035461,615.645264 
	C532.955994,617.307800 534.438232,619.994507 538.292053,618.505188 
z"/>
<path fill="#000000" opacity="1.000000" stroke="none" 
	d="
M672.072632,749.532593 
	C676.433472,735.769165 690.439697,730.610962 702.697754,731.958130 
	C717.892273,733.628174 725.723022,742.037109 727.511719,756.602295 
	C728.114624,761.512085 727.941833,766.244690 726.811646,770.915283 
	C723.063232,786.405029 709.754211,792.395447 695.519836,790.947876 
	C673.290588,788.687317 668.870239,771.002747 671.086731,753.808655 
	C671.255737,752.497253 671.647705,751.214600 672.072632,749.532593 
M684.332642,764.170898 
	C685.325500,774.477173 690.577087,779.786072 699.612061,779.616821 
	C708.197571,779.456116 713.365540,773.751343 713.871399,763.764832 
	C713.971985,761.778870 713.863892,759.771912 713.710999,757.785461 
	C713.109985,749.974487 708.402405,744.764404 701.610535,744.312439 
	C691.834595,743.661865 686.365967,747.275879 684.654968,755.824036 
	C684.172241,758.235718 684.411926,760.791992 684.332642,764.170898 
z"/>
<path fill="#000000" opacity="1.000000" stroke="none" 
	d="
M479.493103,921.461975 
	C477.016327,917.893127 474.743042,914.620728 471.958923,910.613037 
	C471.958923,920.812988 471.695709,930.173401 472.055389,939.509827 
	C472.279175,945.318604 468.738403,944.739319 464.955383,945.012329 
	C460.626373,945.324768 459.548523,943.458618 459.592773,939.478455 
	C459.752014,925.151062 459.589111,910.820251 459.718384,896.492249 
	C459.738678,894.244385 458.330597,890.590149 461.548096,890.070801 
	C465.520355,889.429565 470.254852,887.885498 473.416412,892.465210 
	C478.052124,899.180298 482.692230,905.892334 487.339966,912.599060 
	C489.706329,916.013672 492.093628,919.413818 495.353149,924.083740 
	C495.487885,921.160767 495.625549,919.505798 495.630127,917.850525 
	C495.652283,909.852905 495.791260,901.851135 495.577087,893.859192 
	C495.459808,889.483765 498.120148,889.476379 501.107147,889.664551 
	C503.868134,889.838562 507.402252,888.586914 507.367828,893.615662 
	C507.259583,909.443604 507.292816,925.272827 507.360840,941.101257 
	C507.373077,943.953125 506.033478,944.685242 503.432404,944.968567 
	C498.327728,945.524536 494.593170,944.307861 491.767517,939.518982 
	C488.137299,933.366699 483.754944,927.658203 479.493103,921.461975 
z"/>
<path fill="#000000" opacity="1.000000" stroke="none" 
	d="
M570.099487,906.414551 
	C571.607727,913.388733 571.962524,919.947083 570.354004,926.564209 
	C567.620361,937.809875 558.511902,945.205872 546.988770,945.377991 
	C542.162903,945.450073 537.306458,945.640015 532.692871,943.869995 
	C522.258728,939.866943 517.973511,931.445618 516.773865,921.053162 
	C516.199829,916.080505 516.678772,911.081360 517.940125,906.205994 
	C520.897156,894.775818 531.033386,887.935364 544.630188,888.157959 
	C557.553955,888.369507 565.525208,893.981689 570.099487,906.414551 
M554.905090,929.323364 
	C558.720032,923.412109 558.319763,916.849792 557.189392,910.462097 
	C555.973816,903.592468 550.745422,899.541687 544.256592,899.423950 
	C538.081482,899.312012 533.168640,903.149292 531.220764,909.719666 
	C529.818665,914.449036 529.803833,919.236206 531.197388,923.960938 
	C534.537720,935.285950 545.902649,938.183960 554.905090,929.323364 
z"/>
<path fill="#000000" opacity="1.000000" stroke="none" 
	d="
M624.008118,905.466736 
	C629.434692,891.928894 640.343872,886.366516 656.208130,888.735352 
	C668.217102,890.528625 676.513184,900.247314 677.291626,913.595947 
	C677.543213,917.910278 677.348572,922.198242 676.293823,926.462158 
	C673.421936,938.071594 664.541809,944.823120 652.522949,945.457581 
	C632.793030,946.499084 625.080688,935.559631 623.098816,924.140625 
	C622.047852,918.085510 622.122742,911.883850 624.008118,905.466736 
M663.643799,921.027344 
	C663.635254,918.371643 663.918640,915.675415 663.556824,913.068726 
	C662.823975,907.789124 660.914734,903.056946 655.555176,900.748169 
	C650.391052,898.523499 645.333069,899.012756 641.051697,902.607910 
	C636.012207,906.839661 635.192139,912.986450 635.633179,918.983154 
	C635.965454,923.501404 636.839844,928.238831 640.880798,931.472778 
	C648.345581,937.446777 661.781738,935.311035 663.643799,921.027344 
z"/>
<path fill="#000000" opacity="1.000000" stroke="none" 
	d="
M734.450989,935.209106 
	C725.000366,946.254700 706.289551,949.276672 695.429565,941.280212 
	C684.479858,933.217773 684.582214,921.156799 686.027405,909.477600 
	C687.315186,899.070862 693.577698,891.703674 704.108643,889.220520 
	C717.161072,886.142700 732.535034,889.514465 736.542236,904.403625 
	C736.706909,905.015564 736.758301,905.658020 736.962219,906.887329 
	C731.499146,906.852539 726.556824,909.881104 721.842834,903.647278 
	C716.818542,897.003174 705.877869,898.731812 701.210022,905.838989 
	C697.001343,912.247131 697.419067,923.438843 702.212097,929.413635 
	C706.046814,934.193787 711.137451,935.556335 716.967773,934.215393 
	C721.867554,933.088440 725.214783,930.303528 726.276367,924.867737 
	C723.264404,923.720337 720.421448,924.179993 717.674805,924.172607 
	C713.747864,924.161987 713.677490,921.683228 713.635132,918.801331 
	C713.592712,915.921875 714.140625,913.885071 717.627747,913.932190 
	C723.284973,914.008606 728.943909,913.976562 734.601990,913.960815 
	C737.064331,913.953979 738.160461,915.070312 738.251221,917.589355 
	C738.470520,923.672058 737.921570,929.553101 734.450989,935.209106 
z"/>
<path fill="#000000" opacity="1.000000" stroke="none" 
	d="
M530.674316,755.168274 
	C534.536194,756.411133 538.166199,757.191772 541.473755,758.686096 
	C551.579895,763.251648 554.215698,775.822571 546.996765,784.227783 
	C538.620667,793.980286 511.120880,794.887695 504.603546,777.937622 
	C503.926697,776.177246 503.400452,774.496643 503.949158,772.151917 
	C506.999756,771.715759 510.216980,771.218506 513.445007,770.805664 
	C516.148987,770.459900 516.537537,772.828247 517.543701,774.448425 
	C521.148621,780.253052 528.133606,782.309143 534.042114,779.291382 
	C536.255859,778.160828 537.803528,776.564209 537.811340,773.877319 
	C537.818604,771.350891 536.333679,769.721680 534.243225,768.922058 
	C530.682251,767.559998 526.984680,766.555054 523.344360,765.400330 
	C521.287109,764.747803 519.179077,764.221985 517.181213,763.421326 
	C508.635529,759.996643 504.823364,754.049316 505.699982,745.689392 
	C506.460236,738.439392 511.397034,733.356018 520.091980,732.010681 
	C525.815857,731.125061 531.710876,731.007935 537.415527,732.802002 
	C544.437988,735.010437 549.029419,740.474487 549.749817,747.887085 
	C546.529663,748.329407 543.285828,748.797119 540.035461,749.214111 
	C537.691650,749.514771 537.080322,747.609558 536.018616,746.122742 
	C532.733704,741.522766 527.162598,740.185303 522.291870,742.668884 
	C520.242676,743.713806 518.657166,745.247498 518.532227,747.595093 
	C518.399719,750.085510 520.217651,751.617310 522.233521,752.466919 
	C524.821350,753.557678 527.599060,754.197998 530.674316,755.168274 
z"/>
<path fill="#000000" opacity="1.000000" stroke="none" 
	d="
M557.829468,771.643555 
	C563.093079,770.020203 566.336182,770.910950 569.149475,775.914185 
	C571.993103,780.971191 579.655579,781.916626 584.833984,779.106873 
	C589.391968,776.633667 589.582581,772.017944 585.073608,769.320984 
	C581.173950,766.988525 576.610962,766.478271 572.324646,765.202271 
	C566.553894,763.484436 560.734680,761.676697 557.695923,755.754028 
	C552.999084,746.599609 557.420776,736.050842 567.484680,732.912170 
	C574.461609,730.736328 581.639038,730.883118 588.606445,733.048096 
	C593.996704,734.722961 597.592712,738.521484 599.592102,743.857056 
	C600.649170,746.677673 600.309509,748.109375 596.851685,748.453247 
	C592.193481,748.916382 588.261841,749.663818 584.784302,744.645447 
	C582.159607,740.857727 577.088867,740.420471 572.507202,742.835815 
	C570.417603,743.937378 569.125122,745.470947 569.175720,747.938416 
	C569.222534,750.219238 570.450623,751.772339 572.449219,752.513245 
	C575.557678,753.665588 578.766724,754.544250 581.921692,755.574097 
	C585.234253,756.655334 588.612732,757.587402 591.820984,758.924255 
	C597.742493,761.391785 601.096069,765.987793 601.245422,772.404358 
	C601.399536,779.023071 598.782959,784.623474 592.757141,787.707336 
	C582.176331,793.122375 571.571411,792.630798 561.437988,786.352539 
	C557.617065,783.985229 555.451294,780.176331 554.072266,775.958923 
	C553.092102,772.961792 554.218018,771.495483 557.829468,771.643555 
z"/>
<path fill="#000000" opacity="1.000000" stroke="none" 
	d="
M473.010468,732.651001 
	C480.837433,732.654602 488.174042,732.869751 495.491272,732.585571 
	C500.570007,732.388306 499.958588,735.617859 500.107635,738.814575 
	C500.269928,742.295105 499.699982,744.582092 495.330597,744.381897 
	C489.347565,744.107727 483.338928,744.443848 477.347137,744.289978 
	C473.537415,744.192139 472.918274,746.321960 473.090210,749.381226 
	C473.255737,752.326965 472.574768,755.727966 477.316620,755.632385 
	C481.311951,755.551758 485.314117,755.748901 489.307068,755.625000 
	C493.366608,755.499023 496.947968,755.210388 496.445190,761.292847 
	C495.961670,767.142517 496.358490,767.178894 489.036102,767.188416 
	C485.705017,767.192749 482.355347,767.400146 479.047394,767.120850 
	C474.478149,766.735291 472.960358,768.531067 472.964172,773.105225 
	C472.967896,777.548889 474.492126,778.953186 478.814697,778.725891 
	C484.627533,778.420288 490.474396,778.816895 496.296997,778.622681 
	C500.336243,778.488037 500.528931,780.929138 500.308655,783.797546 
	C500.099670,786.518738 501.552917,790.237305 496.523865,790.218506 
	C485.531738,790.177368 474.539276,790.189636 463.547058,790.224060 
	C460.711365,790.232971 459.775757,788.711670 459.778412,786.129333 
	C459.795502,769.640625 459.820862,753.151794 459.747772,736.663391 
	C459.734039,733.570679 461.154083,732.553711 464.018463,732.656311 
	C466.845886,732.757507 469.680420,732.659912 473.010468,732.651001 
z"/>
<path fill="#000000" opacity="1.000000" stroke="none" 
	d="
M448.308105,917.000122 
	C448.301483,925.160095 448.126221,932.824890 448.342651,940.478516 
	C448.500854,946.073303 444.612122,944.790466 441.495270,944.971252 
	C438.270996,945.158264 435.430847,945.040161 435.662354,940.454712 
	C435.888672,935.971008 435.578369,931.462708 435.696350,926.970215 
	C435.776794,923.908447 434.816498,922.264771 431.453491,922.365906 
	C426.795044,922.505981 422.128143,922.473938 417.467285,922.386292 
	C414.484131,922.330139 413.271362,923.641052 413.332092,926.598328 
	C413.431244,931.425171 413.221497,936.259399 413.365906,941.083862 
	C413.491638,945.282654 410.615814,945.134949 407.967865,944.871521 
	C405.215942,944.597717 400.828705,946.599854 400.780853,941.342529 
	C400.633820,925.191650 400.742401,909.038513 400.725281,892.886292 
	C400.722778,890.526489 401.930573,889.623413 404.143188,889.665833 
	C405.973969,889.700928 407.808929,889.748108 409.636536,889.666565 
	C412.493011,889.539185 413.404694,891.004578 413.354706,893.651245 
	C413.269775,898.145569 413.458679,902.646606 413.312653,907.137695 
	C413.213074,910.201843 414.076904,911.824585 417.502777,911.686646 
	C422.157898,911.499268 426.828094,911.553955 431.487976,911.665466 
	C434.454620,911.736511 435.738739,910.527283 435.674377,907.533752 
	C435.577759,903.040100 435.797974,898.538086 435.644989,894.047791 
	C435.536652,890.867432 436.720398,889.688232 439.965332,889.591858 
	C448.306610,889.344177 448.305450,889.207031 448.310089,897.516602 
	C448.313629,903.844421 448.308594,910.172302 448.308105,917.000122 
z"/>
<path fill="#000000" opacity="1.000000" stroke="none" 
	d="
M304.867859,741.020386 
	C306.396942,738.099121 305.842224,733.827026 309.047485,733.114258 
	C313.007019,732.233887 317.304535,732.834961 321.455170,732.877380 
	C322.618622,732.889282 323.070160,733.866150 323.411896,734.851257 
	C329.664703,752.875488 335.923401,770.897705 342.300598,789.265320 
	C337.935303,790.899719 333.962799,790.398743 330.132660,789.963257 
	C327.499420,789.663940 327.442627,786.737976 326.942932,784.788574 
	C325.807648,780.359497 323.894867,777.582336 318.688934,778.784851 
	C317.296326,779.106628 315.718994,778.610474 314.224884,778.513855 
	C305.957184,777.978943 305.216553,778.275818 302.728333,785.955872 
	C301.648071,789.290161 299.852173,790.562012 296.558624,790.245239 
	C293.958649,789.995300 291.246643,790.798096 287.938751,789.066772 
	C293.524078,773.210632 299.127960,757.301819 304.867859,741.020386 
M312.902954,754.371399 
	C312.274811,756.265076 311.658356,758.162720 311.016449,760.051758 
	C308.428009,767.669006 308.828522,768.178467 317.009430,767.641602 
	C317.507324,767.608948 318.009247,767.622437 318.504608,767.569885 
	C320.194916,767.390503 320.940094,766.261230 320.540375,764.789856 
	C319.102356,759.496765 317.503174,754.246887 314.890747,748.578735 
	C314.124634,750.844543 313.647339,752.256104 312.902954,754.371399 
z"/>
<path fill="#000000" opacity="1.000000" stroke="none" 
	d="
M412.481140,735.246948 
	C422.337616,730.340088 431.987000,730.164429 441.651428,734.518921 
	C446.795197,736.836548 449.890442,741.111267 451.927979,746.227051 
	C452.962616,748.824585 452.668793,750.768311 449.428070,751.360657 
	C447.632996,751.688843 445.836517,752.110657 444.112274,752.699768 
	C441.796722,753.490906 440.601044,752.864258 439.427521,750.591858 
	C436.241486,744.422607 431.889465,742.426514 425.025452,743.418213 
	C420.040619,744.138489 415.448883,748.914124 414.461884,754.737366 
	C413.734985,759.025940 413.787537,763.390381 414.468231,767.678833 
	C415.387573,773.470764 419.894257,778.131653 425.408844,779.360291 
	C430.759918,780.552429 436.226532,778.204346 439.603027,773.263367 
	C441.333588,770.730957 451.026337,770.817566 452.712097,773.464600 
	C453.087952,774.054749 453.093445,775.090637 452.876984,775.801880 
	C452.493683,777.061279 451.928894,778.303345 451.232117,779.423279 
	C445.572388,788.520569 436.601105,791.272583 426.752869,791.041382 
	C416.578461,790.802490 407.820282,787.149841 403.301392,777.030273 
	C398.279999,765.785278 398.841705,742.534241 412.481140,735.246948 
z"/>
<path fill="#000000" opacity="1.000000" stroke="none" 
	d="
M395.190552,774.828308 
	C391.418427,786.302673 379.845581,792.545288 367.283020,791.024841 
	C347.636292,788.646912 341.706421,774.279724 342.924194,757.848206 
	C344.542511,736.011414 360.897705,728.201660 379.562683,732.716736 
	C388.162445,734.796997 392.843018,740.952209 394.817719,749.520996 
	C391.823486,751.870605 388.206635,751.963989 384.942383,752.948792 
	C382.814697,753.590698 382.296356,751.607849 381.462372,750.163635 
	C378.130981,744.394958 374.538635,742.595947 368.337982,743.436157 
	C362.961823,744.164673 358.950409,748.001465 357.476013,753.756836 
	C356.261230,758.498779 356.021942,763.180847 357.274811,768.014587 
	C358.784637,773.839661 361.999481,778.055969 367.915283,779.346252 
	C373.848206,780.640320 378.784485,778.640320 381.823212,773.098145 
	C382.979126,770.989868 384.551361,770.218323 386.743225,771.076233 
	C389.557800,772.177795 393.030792,771.636047 395.190552,774.828308 
z"/>
<path fill="#000000" opacity="1.000000" stroke="none" 
	d="
M769.207764,829.833984 
	C772.838562,834.963379 776.276184,839.791565 779.713867,844.619690 
	C780.030396,844.539246 780.346985,844.458862 780.663574,844.378479 
	C780.663574,836.306396 780.792480,828.231384 780.609314,820.163452 
	C780.517517,816.119934 781.031250,813.722290 786.136169,813.673645 
	C791.601624,813.621582 791.401489,816.619995 791.378235,820.361816 
	C791.297363,833.338074 791.400879,846.315552 791.289612,859.291321 
	C791.271851,861.369934 792.537415,864.642822 789.241638,865.080444 
	C785.857849,865.529663 782.010315,866.716736 779.316895,862.703430 
	C773.757935,854.420105 767.960022,846.296936 762.241394,838.121155 
	C761.696960,837.342712 761.018860,836.657715 759.320190,834.649475 
	C759.320190,843.814636 759.338379,851.523010 759.314026,859.231262 
	C759.296753,864.701172 754.065979,867.674988 749.340027,864.971008 
	C747.914917,864.155701 747.897156,862.821777 747.893127,861.513184 
	C747.848572,846.873047 747.832336,832.232788 747.819092,817.592590 
	C747.817688,816.031616 748.029358,814.212280 749.880493,814.127502 
	C753.210144,813.974976 756.976685,812.475769 759.551758,816.063232 
	C762.751343,820.520569 765.864319,825.040100 769.207764,829.833984 
z"/>
<path fill="#000000" opacity="1.000000" stroke="none" 
	d="
M311.533661,900.617920 
	C306.075928,902.030823 308.765900,906.092834 308.530853,908.938538 
	C308.297699,911.761230 310.909149,911.599915 312.908478,911.615112 
	C317.402771,911.649292 321.915222,911.891418 326.387024,911.576477 
	C331.020691,911.250122 331.310455,913.739990 331.427429,917.377808 
	C331.558441,921.452759 329.916931,922.625793 326.145538,922.434814 
	C321.828705,922.216187 317.478119,922.606934 313.167725,922.332275 
	C308.367584,922.026428 308.391022,924.906860 308.271698,928.375916 
	C308.141235,932.167725 309.302124,933.890625 313.349274,933.707214 
	C318.664856,933.466248 324.010284,933.865540 329.323822,933.603394 
	C333.624481,933.391296 335.704590,934.584656 334.610962,939.250061 
	C334.241852,940.824585 334.349792,942.510925 334.224548,944.371399 
	C329.311676,945.626343 324.485657,944.843628 319.722565,944.938538 
	C313.399597,945.064697 307.071747,944.926392 300.746735,944.982971 
	C297.474426,945.012268 295.898132,943.724426 295.916290,940.244568 
	C295.996185,924.930481 295.942566,909.615723 295.921021,894.301208 
	C295.917450,891.758423 296.229095,889.641907 299.584473,889.657837 
	C310.891052,889.711609 322.198059,889.678345 333.594177,889.678345 
	C335.024841,893.141602 334.138245,896.433228 334.333923,900.576599 
	C326.721863,900.576599 319.315308,900.576599 311.533661,900.617920 
z"/>
<path fill="#000000" opacity="1.000000" stroke="none" 
	d="
M387.274536,927.528076 
	C391.013214,927.825745 391.621155,929.624084 390.232117,932.326355 
	C389.249359,934.238159 388.301941,936.282715 386.865204,937.827515 
	C379.156616,946.115173 369.240875,946.685791 359.140289,944.615479 
	C349.300995,942.598816 343.958008,935.597229 341.779572,926.056152 
	C340.425568,920.125977 340.607849,914.178528 341.811554,908.232666 
	C344.153320,896.665344 351.745941,890.040710 364.828125,888.210510 
	C374.973785,886.791138 384.767487,891.455688 388.804596,899.841125 
	C389.752167,901.809387 391.897797,904.550049 389.773712,906.168945 
	C387.106720,908.201599 383.441498,909.032837 379.933594,908.916199 
	C378.508972,908.868896 378.406006,906.904236 377.794739,905.775208 
	C375.506287,901.548645 371.862274,899.400940 367.210815,899.514343 
	C362.597260,899.626770 358.797607,901.781067 356.751099,906.073608 
	C353.427551,913.044617 353.102997,920.256409 356.440857,927.277405 
	C360.354614,935.509949 370.979828,937.410522 376.077179,930.265747 
	C379.453583,925.533081 382.645996,925.925110 387.274536,927.528076 
z"/>
<path fill="#000000" opacity="1.000000" stroke="none" 
	d="
M921.508545,863.982605 
	C912.785034,866.425293 904.273438,865.061951 895.837891,865.294434 
	C893.378662,865.362183 892.854614,863.678101 892.854492,861.623779 
	C892.853821,846.998230 892.847534,832.372681 892.829529,817.747131 
	C892.826721,815.429321 893.609680,813.854370 896.229065,813.866211 
	C902.874390,813.896301 909.564819,813.443787 916.156494,814.054810 
	C934.928467,815.794800 938.400513,831.663879 936.930176,843.926270 
	C935.810364,853.264771 931.299011,860.521118 921.508545,863.982605 
M905.011719,854.240540 
	C910.546143,856.683655 917.997009,855.095703 921.827332,850.656738 
	C926.510376,845.229553 926.924805,836.119629 922.786560,829.576111 
	C920.257996,825.578125 911.893311,822.400452 907.240845,823.559326 
	C905.047180,824.105652 904.330261,825.471680 904.355347,827.562683 
	C904.458984,836.217773 904.523865,844.873413 905.011719,854.240540 
z"/>
<path fill="#000000" opacity="1.000000" stroke="none" 
	d="
M618.060913,865.377563 
	C610.649658,865.298218 610.648315,865.298218 610.649292,858.650574 
	C610.651245,845.508301 610.772583,832.364380 610.587646,819.224731 
	C610.530396,815.156921 611.788330,813.432800 615.997986,813.801147 
	C622.444336,814.364990 628.937256,813.264954 635.401794,814.464111 
	C646.014954,816.432800 653.055115,823.402466 654.154297,834.135559 
	C654.639587,838.874817 654.764282,843.711487 653.455078,848.494507 
	C650.723572,858.472961 642.950378,864.933899 632.526489,865.326721 
	C627.874878,865.501953 623.211670,865.369995 618.060913,865.377563 
M634.804993,825.445251 
	C632.457214,824.491150 629.987183,824.386475 627.492310,824.199524 
	C623.743469,823.918518 622.039978,825.079590 622.201904,829.197266 
	C622.482361,836.328247 622.392395,843.480957 622.227661,850.619263 
	C622.145752,854.166992 623.279114,855.752625 627.065491,855.685730 
	C634.213257,855.559265 639.783691,851.846497 641.848938,845.351379 
	C644.484375,837.062988 642.392883,830.583069 634.804993,825.445251 
z"/>
<path fill="#000000" opacity="1.000000" stroke="none" 
	d="
M311.192078,850.663452 
	C309.732147,847.419128 307.489685,846.457703 304.510223,847.276550 
	C301.494324,848.105469 302.505219,850.694153 302.373962,852.697083 
	C302.243713,854.684692 302.355072,856.687622 302.345032,858.683777 
	C302.312836,865.088928 299.625031,866.986145 293.351044,865.267517 
	C291.170898,864.670349 291.014496,863.127502 291.013763,861.446472 
	C291.007690,846.974304 291.030762,832.502197 291.071289,818.030029 
	C291.077240,815.913452 291.405090,813.877075 294.219482,813.940308 
	C301.684113,814.107971 309.156708,813.315491 316.617981,814.424683 
	C324.135590,815.542297 328.750824,819.740723 330.046173,827.110901 
	C331.262695,834.032837 329.431580,839.988525 322.984100,843.841675 
	C322.566833,844.091064 322.237610,844.487671 321.565247,845.083618 
	C324.113159,851.893799 329.332397,857.539978 331.664673,864.760925 
	C327.920227,865.844666 324.596649,865.236816 321.309875,865.304871 
	C319.506927,865.342224 318.711365,864.072693 317.963989,862.738342 
	C315.770508,858.822021 313.577820,854.905273 311.192078,850.663452 
M312.774292,824.329529 
	C310.292511,824.315063 307.810425,824.271118 305.329071,824.297546 
	C303.894012,824.312805 302.901581,824.842651 302.431030,826.425903 
	C300.047089,834.446594 302.714508,837.930664 310.986786,837.664917 
	C314.703796,837.545410 317.559265,836.242126 318.420715,832.439453 
	C319.333893,828.408325 317.431519,825.759888 312.774292,824.329529 
z"/>
<path fill="#000000" opacity="1.000000" stroke="none" 
	d="
M498.822754,847.625244 
	C499.913574,844.086670 501.767822,841.551025 504.532806,839.817505 
	C506.751923,838.426208 506.799255,836.844910 505.575409,834.802246 
	C502.125244,829.043884 502.070953,823.167175 506.592224,818.191040 
	C512.163147,812.059692 519.587891,811.822388 526.897400,814.159058 
	C532.941650,816.091248 536.203491,820.758667 536.752258,827.783020 
	C532.303406,827.965881 527.960266,830.713562 524.833313,824.685425 
	C523.161194,821.461975 517.522522,821.425903 515.079834,823.908630 
	C511.821167,827.220703 514.327820,829.759460 516.557739,831.968872 
	C520.301758,835.678650 524.300720,839.131165 527.994690,842.510986 
	C530.900208,841.505371 529.426086,838.300049 532.043396,837.340271 
	C537.637268,835.289124 540.501343,837.104736 540.331848,843.120483 
	C540.317810,843.619263 540.466919,844.199158 540.265442,844.604919 
	C536.181091,852.829041 540.989136,857.913757 546.591736,862.751099 
	C547.072327,863.166077 547.365662,863.797791 548.319702,865.129639 
	C543.392700,865.438599 538.724182,866.653137 535.018066,864.360657 
	C531.998291,862.492737 530.107056,862.756592 527.480774,864.286133 
	C523.936768,866.350159 519.935059,866.958008 515.924133,866.722412 
	C506.488647,866.168274 496.942566,861.996155 498.822754,847.625244 
M511.090698,854.432739 
	C514.288635,857.489014 517.974060,858.073181 522.030640,856.508179 
	C523.463806,855.955322 525.162598,854.999817 523.974121,853.300476 
	C521.609131,849.919006 518.638123,847.004395 515.134888,844.765991 
	C513.796692,843.910950 512.555115,844.859192 511.663086,845.870178 
	C509.540619,848.275818 508.396973,850.874695 511.090698,854.432739 
z"/>
<path fill="#000000" opacity="1.000000" stroke="none" 
	d="
M698.628296,854.729492 
	C702.804321,842.586670 706.980713,830.851868 710.922668,819.038879 
	C712.136230,815.402283 713.901428,813.367676 718.042725,813.804565 
	C722.094910,814.231995 726.430786,812.581726 728.327026,818.711609 
	C732.691772,832.821228 737.766663,846.711182 742.562134,860.687317 
	C742.992126,861.940491 743.613586,863.152832 743.038391,864.785889 
	C740.146057,865.915649 736.990173,865.348389 733.907532,865.254578 
	C731.029297,865.167053 730.682495,862.555054 730.238647,860.584656 
	C729.295166,856.396057 726.870300,854.798279 722.725891,855.237427 
	C721.082825,855.411560 719.378235,855.426697 717.745605,855.198914 
	C712.811218,854.510498 709.775879,856.238281 709.002563,861.410034 
	C708.518066,864.650391 706.396057,865.763794 703.277100,865.387085 
	C700.860168,865.095215 698.308716,866.007751 695.885010,864.595825 
	C695.639465,861.092590 697.613403,858.239685 698.628296,854.729492 
M715.663696,844.352478 
	C718.605408,844.730957 721.535339,844.959167 724.661072,843.899841 
	C723.712280,838.857117 722.355103,834.318726 719.478516,829.169312 
	C717.377563,834.749939 715.166077,839.003540 715.663696,844.352478 
z"/>
<path fill="#000000" opacity="1.000000" stroke="none" 
	d="
M585.821350,855.326660 
	C583.203064,855.334656 581.037109,855.376831 578.872498,855.341919 
	C576.780151,855.308105 575.511963,856.337708 574.584595,858.153137 
	C570.426636,866.292664 569.966370,866.488281 560.663696,864.777466 
	C559.781067,863.683716 560.358154,862.553711 560.724121,861.508911 
	C565.727600,847.221802 571.054871,833.039124 575.659973,818.625488 
	C577.634399,812.445923 582.075439,814.305664 586.081970,813.803711 
	C589.937073,813.320679 591.264771,815.482788 592.350525,818.660339 
	C597.082703,832.509949 601.990845,846.299194 606.814209,860.117737 
	C607.294556,861.494019 607.633301,862.919800 608.092224,864.511597 
	C604.581116,865.970764 601.260071,865.312256 598.020325,865.234497 
	C595.652161,865.177490 595.138550,863.031006 594.815857,861.335938 
	C593.884766,856.445557 591.029663,854.617371 585.821350,855.326660 
M582.328247,844.532288 
	C584.275208,844.518127 586.275085,844.944885 588.325500,843.803528 
	C587.992615,838.682068 585.774841,834.128906 584.026123,828.232910 
	C582.426819,833.232971 581.223145,837.132874 579.923340,841.000366 
	C579.301575,842.850708 579.149963,844.305115 582.328247,844.532288 
z"/>
<path fill="#000000" opacity="1.000000" stroke="none" 
	d="
M561.176880,669.666992 
	C560.192322,677.689636 556.616821,679.909363 551.137634,674.877136 
	C542.680847,667.110229 535.661987,667.561218 528.051697,675.376648 
	C526.580261,676.887756 524.430725,677.934509 522.116150,676.797363 
	C519.567261,675.544983 519.605164,673.147400 519.609314,670.767273 
	C519.626953,660.642761 519.616760,650.518311 519.616760,639.514771 
	C533.517395,645.563660 546.916260,644.723511 561.180054,639.050964 
	C561.180054,649.737549 561.180054,659.471436 561.176880,669.666992 
z"/>
<path fill="#000000" opacity="1.000000" stroke="none" 
	d="
M425.225098,835.547363 
	C435.023712,838.748718 439.069366,843.895325 438.161896,851.597351 
	C437.160980,860.092346 430.701416,865.781799 421.377991,866.346924 
	C412.534790,866.883057 404.353485,865.783997 399.180939,857.289673 
	C397.955902,855.277954 397.089874,853.171692 396.989349,850.819885 
	C403.785553,847.564575 405.988739,847.981750 410.831573,853.161865 
	C412.841370,855.311646 415.452454,856.520020 418.367432,856.564087 
	C421.920349,856.617798 425.373199,855.409729 426.235138,851.738708 
	C427.162048,847.790955 423.767151,846.348877 420.674683,845.359131 
	C416.881744,844.145325 412.961060,843.316345 409.202301,842.013184 
	C401.919128,839.488281 398.144470,833.899841 398.697205,826.888428 
	C399.215149,820.318054 403.881226,815.332214 411.055145,813.683594 
	C422.780548,810.989014 432.869904,814.991150 436.515045,823.808533 
	C436.821381,824.549561 436.940155,825.368042 437.131531,826.095276 
	C431.039307,829.379517 428.746216,829.144409 423.944855,824.982422 
	C421.997620,823.294495 419.729614,822.266541 417.104919,822.462708 
	C414.081055,822.688660 411.313995,823.867065 410.676086,827.017090 
	C410.010864,830.302124 412.764130,831.653687 415.312347,832.567444 
	C418.432739,833.686340 421.658569,834.511169 425.225098,835.547363 
z"/>
<path fill="#000000" opacity="1.000000" stroke="none" 
	d="
M863.012207,865.383545 
	C849.814514,865.377991 849.831726,865.378052 849.866089,852.632874 
	C849.895752,841.633240 850.034485,830.630371 849.806763,819.635498 
	C849.719360,815.415833 850.831116,813.589661 855.388184,813.747742 
	C863.711060,814.036255 872.056030,813.968018 880.383057,813.736572 
	C884.458984,813.623352 885.397827,815.369873 885.448669,819.092957 
	C885.502380,823.025330 884.156250,824.483643 880.240723,824.280334 
	C875.586670,824.038696 870.901733,824.398621 866.246521,824.168640 
	C862.090088,823.963257 861.268066,825.989868 861.257568,829.648438 
	C861.247375,833.201904 862.175842,834.891479 866.035400,834.689758 
	C870.522034,834.455200 875.033508,834.745178 879.531311,834.658081 
	C882.906555,834.592834 883.269287,836.651794 883.168091,839.250854 
	C883.069214,841.791809 883.313843,844.450500 879.493042,844.391541 
	C874.994507,844.322144 870.481812,844.606873 865.997192,844.352234 
	C861.078308,844.072937 861.375183,847.134827 861.286438,850.499268 
	C861.194885,853.971252 862.062561,855.872009 866.002441,855.615784 
	C871.150940,855.281006 876.323792,855.340637 881.480835,855.110291 
	C885.257263,854.941650 886.285461,856.793152 886.265991,860.308899 
	C886.246765,863.771362 885.417053,865.585938 881.507629,865.437927 
	C875.516357,865.210999 869.509949,865.381592 863.012207,865.383545 
z"/>
<path fill="#000000" opacity="1.000000" stroke="none" 
	d="
M184.947250,864.800903 
	C181.429535,859.754883 178.254669,854.943970 174.702240,849.560974 
	C172.650681,852.635681 170.432648,855.002136 169.319687,857.807129 
	C165.957230,866.280884 159.458755,866.317932 152.129242,864.860779 
	C151.266296,862.710205 152.970108,861.447632 153.874893,860.013306 
	C157.424072,854.386963 160.912247,848.707581 164.776718,843.300720 
	C166.783081,840.493530 166.563522,838.414001 164.684601,835.731750 
	C161.061813,830.560059 157.720612,825.189453 154.322678,819.863037 
	C153.367157,818.365234 152.005798,817.001160 152.135895,815.006958 
	C159.727798,811.989075 164.127029,813.427307 168.328857,820.051025 
	C170.343948,823.227661 171.792892,826.847595 175.053619,829.465088 
	C178.417374,827.043213 179.620377,823.291687 181.557587,820.122437 
	C185.734299,813.289429 188.298080,812.293701 197.251083,814.906738 
	C195.359543,819.925659 192.688995,824.664062 189.300995,828.457520 
	C181.965530,836.670837 182.606018,843.830688 189.719925,851.680176 
	C192.987030,855.285156 195.144165,859.896118 198.120499,864.544067 
	C193.370316,865.856323 189.329422,865.432434 184.947250,864.800903 
z"/>
<path fill="#000000" opacity="1.000000" stroke="none" 
	d="
M836.688354,831.975708 
	C833.906311,832.792175 832.693420,831.468933 831.517700,829.602600 
	C828.848206,825.365112 825.222656,822.649292 819.895813,823.913635 
	C814.081421,825.293640 810.822876,829.387878 810.282227,835.751526 
	C809.783264,841.625488 809.536560,847.452698 814.503479,851.944275 
	C819.997253,856.912170 826.867188,856.477905 831.570557,850.798584 
	C833.800598,848.105835 841.725037,848.030396 843.666321,850.730835 
	C844.873352,852.409973 843.809998,853.973572 843.057800,855.385315 
	C839.543152,861.981628 833.499084,864.968079 826.541260,866.159363 
	C810.450745,868.914490 797.920105,858.315552 797.658813,841.922302 
	C797.595337,837.939453 797.585938,833.983093 798.688232,830.057312 
	C801.546936,819.876038 810.203247,813.272644 821.291809,813.041321 
	C832.130310,812.815308 840.330505,817.865051 843.422852,826.693787 
	C843.689453,827.455017 843.817444,828.264832 844.003601,829.026306 
	C842.009521,831.149902 839.358215,831.050415 836.688354,831.975708 
z"/>
<path fill="#000000" opacity="1.000000" stroke="none" 
	d="
M147.283173,861.118774 
	C147.524231,864.385193 146.153458,865.408997 143.437988,865.389526 
	C133.941315,865.321411 124.443375,865.309509 114.946983,865.394775 
	C111.934082,865.421814 110.836113,864.151123 110.850990,861.198547 
	C110.923172,846.869873 110.922035,832.540405 110.843140,818.211792 
	C110.825371,814.984009 112.160027,813.798645 115.340752,813.837952 
	C124.169975,813.947205 133.004959,813.998535 141.830856,813.787354 
	C145.893326,813.690125 146.395798,815.762634 146.399902,819.068481 
	C146.404083,822.430115 145.755966,824.464355 141.747543,824.282166 
	C136.593430,824.047913 131.417801,824.334290 126.255791,824.212402 
	C121.696190,824.104797 122.481445,827.270508 122.328308,830.051941 
	C122.163979,833.036865 122.912903,834.844788 126.424706,834.679382 
	C130.414459,834.491516 134.427322,834.793701 138.417023,834.605286 
	C142.124008,834.430176 144.310333,835.079895 144.277649,839.652771 
	C144.246384,844.024902 142.093933,844.560242 138.654007,844.416138 
	C135.327621,844.276733 131.972031,844.614685 128.662720,844.340088 
	C124.054291,843.957703 122.144173,845.385376 122.191414,850.419739 
	C122.237747,855.357239 124.618027,855.800415 128.448074,855.627014 
	C132.938034,855.423767 137.468552,855.849243 141.934525,855.461304 
	C146.108719,855.098816 147.890762,856.463745 147.283173,861.118774 
z"/>
<path fill="#000000" opacity="1.000000" stroke="none" 
	d="
M280.816895,865.379761 
	C271.840424,865.375427 263.341339,865.265076 254.846710,865.412476 
	C251.337143,865.473450 249.693253,864.463501 249.732468,860.624817 
	C249.875412,846.630859 249.838898,832.633972 249.725647,818.639343 
	C249.698425,815.276001 250.811249,813.815491 254.334793,813.866272 
	C263.163055,813.993469 271.998230,813.998535 280.824005,813.782043 
	C284.871216,813.682861 285.387207,815.759094 285.411957,819.066895 
	C285.437561,822.490173 284.633362,824.427917 280.707764,824.268677 
	C275.551239,824.059631 270.376007,824.337402 265.216248,824.172974 
	C261.050995,824.040283 261.375519,826.755676 261.325348,829.513489 
	C261.272644,832.413147 261.325134,834.874390 265.379364,834.683105 
	C269.701141,834.479065 274.046204,834.791992 278.371155,834.623840 
	C281.961365,834.484253 282.375122,836.491272 282.377106,839.355591 
	C282.379150,842.351868 282.106537,844.616760 278.182892,844.435913 
	C273.860718,844.236694 269.518402,844.514709 265.190369,844.391724 
	C260.573212,844.260437 261.409027,847.495056 261.350830,850.241150 
	C261.292328,852.999573 261.076385,855.741699 265.223969,855.611755 
	C270.384033,855.450134 275.559326,855.686340 280.712769,855.435791 
	C283.722809,855.289490 286.037598,855.252441 285.970062,859.262817 
	C285.914124,862.585449 286.261169,865.929810 280.816895,865.379761 
z"/>
<path fill="#000000" opacity="1.000000" stroke="none" 
	d="
M456.249268,825.150024 
	C455.045532,827.163574 455.469452,829.029114 455.354553,830.836975 
	C455.174347,833.672607 456.642059,834.677673 459.299805,834.643555 
	C463.626953,834.588013 467.962677,834.809937 472.281647,834.618652 
	C476.309143,834.440247 476.303558,836.899658 476.352173,839.786682 
	C476.402069,842.747559 475.747711,844.581726 472.243835,844.418579 
	C468.423950,844.240845 464.581909,844.543823 460.761536,844.371338 
	C456.188660,844.164856 455.287476,846.539795 455.241211,850.576355 
	C455.194122,854.685364 456.916656,855.799988 460.632721,855.626404 
	C465.450531,855.401367 470.292358,855.646484 475.104462,855.361450 
	C478.085785,855.184814 479.666077,856.025330 479.305450,859.155823 
	C479.018097,861.650330 480.673920,865.338074 475.891479,865.347412 
	C466.403259,865.365845 456.914825,865.310730 447.426849,865.359985 
	C444.524017,865.375061 443.744293,863.810608 443.748230,861.254761 
	C443.770508,846.772339 443.768616,832.289795 443.715851,817.807495 
	C443.705994,815.100769 444.821716,813.838867 447.569214,813.848755 
	C456.890869,813.882324 466.213196,813.893921 475.534424,813.816223 
	C479.241516,813.785278 479.325531,816.172607 479.308655,818.849670 
	C479.291229,821.608582 479.503479,824.179565 475.421600,824.282593 
	C469.128784,824.441345 462.796112,823.518066 456.249268,825.150024 
z"/>
<path fill="#000000" opacity="1.000000" stroke="none" 
	d="
M243.660141,838.046631 
	C240.570435,847.033264 233.442032,848.994019 225.625031,849.243286 
	C215.116272,849.578308 216.442642,848.367981 216.350128,858.774658 
	C216.295044,864.972839 213.203903,867.115173 207.208359,865.243408 
	C205.335526,864.658752 205.049759,863.330139 205.045059,861.794861 
	C205.000290,847.129822 204.981522,832.464722 204.975540,817.799622 
	C204.974625,815.551086 205.690704,813.873291 208.381912,813.891968 
	C215.045258,813.938110 221.763550,813.415405 228.360779,814.089661 
	C241.480072,815.430725 246.223785,823.016174 243.660141,838.046631 
M219.872253,838.681580 
	C222.036880,838.664246 224.208008,838.746094 226.364563,838.605164 
	C229.258423,838.416016 231.569931,837.071472 232.418686,834.207642 
	C233.302124,831.226746 233.381180,828.062134 230.653488,825.935425 
	C226.865158,822.981812 222.268921,823.924500 218.145767,824.633179 
	C215.114502,825.154236 216.235825,828.618835 216.481979,830.661133 
	C216.810593,833.387390 214.228271,837.288818 219.872253,838.681580 
z"/>
<path fill="#000000" opacity="1.000000" stroke="none" 
	d="
M686.361450,861.319336 
	C684.451965,867.810181 679.417297,864.673767 675.745178,865.340454 
	C673.027405,865.834045 671.481934,864.436157 670.618347,861.822693 
	C665.615601,846.682800 660.520264,831.573486 655.475952,816.447266 
	C655.328552,816.005432 655.399658,815.490845 655.370667,815.038086 
	C663.297058,811.778320 666.793030,813.268433 669.104980,820.795898 
	C671.199768,827.616150 673.268005,834.445374 675.459412,841.234619 
	C675.994812,842.893188 676.098206,844.905090 678.097107,845.900879 
	C680.448914,845.541626 680.438232,843.434998 680.950195,841.807129 
	C683.190979,834.682434 685.891418,827.645569 687.396362,820.364197 
	C688.592957,814.574585 691.595825,813.105896 696.765625,813.774109 
	C698.071167,813.942871 699.436340,813.708862 701.500000,815.081299 
	C696.547546,830.173035 691.503296,845.544495 686.361450,861.319336 
z"/>
<path fill="#000000" opacity="1.000000" stroke="none" 
	d="
M773.100830,898.177124 
	C777.437988,888.638306 778.405518,888.181396 789.466492,890.219727 
	C790.098083,892.230713 788.737000,893.695190 787.962280,895.274475 
	C785.322632,900.656006 782.900635,906.177185 779.833008,911.308777 
	C774.408752,920.382751 770.818665,929.778687 772.314270,940.582642 
	C772.908264,944.873657 769.957825,945.101135 766.927368,944.905457 
	C764.143616,944.725708 759.996094,945.745911 760.741333,940.877014 
	C762.460693,929.644775 757.474487,920.534485 752.300415,911.350037 
	C748.491394,904.588806 744.906128,897.701477 741.022522,890.502258 
	C745.693726,889.067566 749.657349,889.610046 753.549255,889.843201 
	C756.134888,889.998169 756.707947,892.533936 757.644592,894.421265 
	C760.360657,899.893677 762.629883,905.602417 766.501770,911.614685 
	C768.893005,906.741821 770.911743,902.627991 773.100830,898.177124 
z"/>
<path fill="#000000" opacity="1.000000" stroke="none" 
	d="
M666.792114,732.767822 
	C671.169861,735.528931 669.405823,739.474243 668.870361,742.702881 
	C668.429993,745.358521 665.262573,744.275696 663.270264,744.308655 
	C650.739075,744.515869 652.445251,742.905518 652.345764,755.194092 
	C652.263550,765.342529 652.121826,775.497620 652.401123,785.638855 
	C652.539856,790.679565 649.477478,790.293396 646.241821,790.255737 
	C642.933655,790.217285 639.483398,790.922546 639.589478,785.530457 
	C639.821777,773.722290 639.502319,761.903503 639.722778,750.094849 
	C639.802368,745.832031 638.574158,743.804382 634.089050,744.326538 
	C632.283752,744.536621 630.404968,744.148682 628.607971,744.391052 
	C623.600098,745.066589 622.412903,742.737366 622.527710,738.109314 
	C622.626526,734.127380 623.622009,732.509155 627.881653,732.588867 
	C640.688354,732.828674 653.501892,732.699768 666.792114,732.767822 
z"/>
<path fill="#000000" opacity="1.000000" stroke="none" 
	d="
M275.822998,901.369507 
	C272.276520,901.549683 272.938202,903.813232 272.944183,905.776611 
	C272.978271,916.940002 272.799805,928.108032 273.083801,939.264587 
	C273.208344,944.156372 270.988586,945.100098 266.743744,945.052063 
	C262.564209,945.004639 260.370331,944.217346 260.538330,939.225830 
	C260.908020,928.241089 260.542694,917.233582 260.708923,906.238892 
	C260.765015,902.530640 259.408203,901.009094 255.747543,901.322754 
	C254.094009,901.464417 252.417252,901.334778 250.751022,901.328613 
	C244.458023,901.305359 242.147736,897.795776 244.289551,891.740967 
	C244.939941,889.902466 246.248703,889.664490 247.797684,889.664490 
	C260.460907,889.664856 273.124115,889.698242 285.787323,889.686951 
	C290.551910,889.682678 289.204987,893.255127 289.292023,895.796692 
	C289.378204,898.313293 290.114929,901.482117 285.727234,901.329773 
	C282.565796,901.220032 279.396484,901.337097 275.822998,901.369507 
z"/>
<path fill="#000000" opacity="1.000000" stroke="none" 
	d="
M593.348511,905.003906 
	C593.349731,913.319702 593.442871,921.137573 593.308289,928.951538 
	C593.250244,932.318848 594.413513,933.800476 597.934021,933.691589 
	C603.582581,933.516907 609.247925,933.836243 614.893188,933.616089 
	C619.054016,933.453918 619.421936,935.810547 619.337891,938.986084 
	C619.257263,942.030884 619.773315,945.079102 615.032532,944.996338 
	C605.057434,944.822144 595.077148,944.908813 585.099365,944.960083 
	C581.974304,944.976074 580.669189,943.705872 580.689575,940.470764 
	C580.787109,925.005188 580.848145,909.537109 580.658752,894.073120 
	C580.595886,888.935303 583.884766,889.616150 587.001160,889.656372 
	C590.051208,889.695679 593.683044,888.832703 593.368225,894.029785 
	C593.157471,897.508972 593.341064,901.012024 593.348511,905.003906 
z"/>
<path fill="#000000" opacity="1.000000" stroke="none" 
	d="
M347.412109,824.437744 
	C345.145233,824.404663 343.284088,824.172180 341.490021,824.421814 
	C336.318756,825.141418 335.284943,822.513733 335.567535,818.031799 
	C335.752869,815.092041 336.739502,813.836853 339.712311,813.850464 
	C350.695312,813.900818 361.679321,813.897156 372.661743,813.788879 
	C375.939819,813.756592 377.241486,815.147095 376.885651,818.322266 
	C376.684540,820.116882 376.548950,821.918762 376.389771,823.653137 
	C373.362610,824.921753 370.469940,824.556152 367.732788,824.321838 
	C363.200500,823.933777 362.017670,825.816833 362.135468,830.083557 
	C362.392548,839.395630 362.222198,848.719971 362.191010,858.039246 
	C362.166321,865.407532 362.109253,865.001221 356.268890,865.484009 
	C349.583313,866.036621 350.651978,861.711548 350.651184,857.804321 
	C350.649200,848.318542 350.664215,838.832764 350.635895,829.347107 
	C350.629578,827.232971 351.062439,824.781982 347.412109,824.437744 
z"/>
<path fill="#000000" opacity="1.000000" stroke="none" 
	d="
M380.689301,850.993286 
	C380.688293,840.015930 380.885956,829.531494 380.599884,819.060242 
	C380.466248,814.168701 382.981781,813.826599 386.790497,813.758301 
	C390.710541,813.688049 392.476288,814.693787 392.405426,819.032776 
	C392.179993,832.834900 392.163574,846.645386 392.393799,860.447205 
	C392.471375,865.100037 390.104553,865.446655 386.501068,865.441895 
	C382.920837,865.437195 380.207367,865.163879 380.646088,860.468811 
	C380.923431,857.500977 380.692719,854.485657 380.689301,850.993286 
z"/>
<path fill="#000000" opacity="1.000000" stroke="none" 
	d="
M468.147308,351.304626 
	C468.118561,355.623322 466.049988,357.703979 462.208527,357.055695 
	C459.105621,356.532013 458.022949,354.102936 458.547546,351.027954 
	C458.899780,348.963318 460.145355,347.821930 462.196106,347.542603 
	C465.012909,347.158936 467.067810,348.123596 468.147308,351.304626 
z"/>
<path fill="#000000" opacity="1.000000" stroke="none" 
	d="
M477.181793,316.480865 
	C475.580688,314.365601 476.022491,312.829468 477.830811,311.584900 
	C479.086700,310.720551 480.376587,310.790588 481.484344,311.798157 
	C482.742859,312.942780 482.961395,314.469147 482.141113,315.879181 
	C480.981812,317.871979 479.233978,317.730774 477.181793,316.480865 
z"/>
<path fill="#000000" opacity="1.000000" stroke="none" 
	d="
M547.791260,316.187805 
	C549.260437,312.518066 551.971741,312.151764 554.849792,312.993469 
	C557.140930,313.663513 558.152283,315.727478 558.034668,318.015778 
	C557.915527,320.331604 556.546936,321.959076 554.295044,322.727295 
	C550.703186,323.952637 548.247070,321.660370 547.791260,316.187805 
z"/>
<path fill="#000000" opacity="1.000000" stroke="none" 
	d="
M570.360718,357.281799 
	C570.662415,359.700287 569.470215,360.667664 567.630371,360.786194 
	C566.183044,360.879395 565.198059,359.990601 564.855042,358.553009 
	C564.573425,357.372833 564.703735,356.172760 565.794678,355.506287 
	C567.739075,354.318420 569.169922,355.177673 570.360718,357.281799 
z"/>
<path fill="#000000" opacity="1.000000" stroke="none" 
	d="
M758.826721,408.710083 
	C758.715881,395.915344 769.781189,391.526367 777.343994,394.921539 
	C782.030884,397.025665 784.842957,400.614319 785.206482,405.597412 
	C785.429199,408.649841 786.653442,410.494904 789.010376,412.096161 
	C791.764038,413.966888 794.897034,415.622864 796.940491,418.126831 
	C801.805969,424.088531 808.237122,422.119293 814.266907,422.309662 
	C815.677979,422.354187 816.541016,421.026245 817.482361,420.100006 
	C824.608948,413.087555 831.656799,405.993347 838.875122,399.076874 
	C841.797058,396.277100 843.312439,393.474640 842.808899,389.112305 
	C842.140442,383.321167 845.281921,378.971771 850.344604,376.858093 
	C855.413269,374.741913 860.877014,375.740967 864.673157,379.510376 
	C868.826172,383.634186 869.294922,388.633453 867.559448,393.837494 
	C865.893433,398.833557 861.282532,401.876282 855.415527,401.625031 
	C852.528809,401.501404 850.725891,402.549164 848.885071,404.394165 
	C841.119324,412.177826 833.347473,419.957153 825.454651,427.610992 
	C823.530273,429.476990 823.147644,431.320251 823.608032,433.863403 
	C825.038940,441.768127 820.143982,448.472015 812.576233,449.282379 
	C804.289856,450.169739 797.792725,444.678467 797.737976,436.321228 
	C797.717041,433.127899 796.843079,430.947784 794.099182,429.323364 
	C792.100769,428.140259 789.877930,426.957733 788.483948,425.197693 
	C782.454956,417.585358 774.135437,420.582977 766.572327,420.210571 
	C765.642944,420.164825 764.555542,421.246124 763.705688,421.992340 
	C755.944824,428.807190 748.247314,435.694366 740.467712,442.487640 
	C738.318298,444.364471 737.337158,446.446838 737.287476,449.403290 
	C737.158325,457.083710 731.572693,461.680328 723.227905,461.378479 
	C716.192810,461.123932 710.838501,455.309418 711.059570,448.164215 
	C711.282104,440.973206 716.761292,434.985474 723.917969,435.862610 
	C730.224121,436.635468 734.113281,434.046112 738.182129,430.143494 
	C743.831116,424.725403 749.801941,419.642822 755.638550,414.420593 
	C757.249817,412.978943 759.092773,411.683746 758.826721,408.710083 
z"/>
<path fill="#000000" opacity="1.000000" stroke="none" 
	d="
M220.232834,397.201904 
	C217.269669,400.162109 214.574921,402.885437 211.843063,405.570984 
	C209.960495,407.421661 207.716171,408.770905 205.109390,407.547241 
	C200.005341,405.151337 196.461304,400.919678 193.255219,396.454773 
	C192.235718,395.035004 193.099457,393.514404 194.245102,392.433075 
	C196.284790,390.507965 199.253128,389.643219 201.029007,391.602112 
	C206.996994,398.185150 210.523987,393.457184 214.432205,389.338867 
	C215.572449,388.137299 216.898407,387.098022 218.212158,386.078339 
	C220.216019,384.523010 222.707733,383.761139 224.605972,385.541229 
	C226.468582,387.287933 226.077286,389.936066 224.673706,392.013977 
	C223.473267,393.791138 221.895981,395.313690 220.232834,397.201904 
z"/>
</svg>