<svg version="1.1" id="Layer_1" xmlns="http://www.w3.org/2000/svg" xmlns:xlink="http://www.w3.org/1999/xlink" x="0px" y="0px"
	 width="100%" viewBox="0 0 1024 1024" enable-background="new 0 0 1024 1024" xml:space="preserve">
<path fill="#000000" opacity="1.000000" stroke="none" 
	d="
M71.660667,317.379059 
	C68.627983,314.142151 67.645195,310.586304 67.661835,306.584320 
	C67.717941,293.087677 67.645699,279.590515 67.683098,266.093750 
	C67.704071,258.526794 71.449455,254.253906 78.959564,252.504715 
	C83.586113,251.427109 88.241661,251.689178 92.884857,251.680710 
	C96.028984,251.674973 97.886055,250.454880 98.840599,247.512589 
	C104.284119,230.733765 115.345207,218.050400 128.608612,207.034470 
	C130.884140,205.144516 131.334900,203.149628 130.547501,200.466904 
	C128.021149,191.859436 125.583908,183.225769 123.115402,174.601334 
	C122.384575,172.047943 121.506363,169.545013 121.640022,166.800751 
	C121.869301,162.092987 123.972290,160.000702 128.755722,159.643311 
	C138.613617,158.906799 147.424011,162.256302 155.978729,166.542984 
	C162.101562,169.611053 167.989975,173.197891 173.093964,177.713242 
	C176.821442,181.010864 180.652664,181.522247 184.994644,180.349228 
	C191.063110,178.709824 195.822357,179.674225 199.730988,185.253036 
	C202.890915,189.763138 207.278687,193.369598 212.971436,194.501404 
	C220.312363,195.960907 226.426773,192.813614 230.649323,187.426483 
	C236.108398,180.461807 242.285156,179.794800 250.313339,181.547470 
	C285.821136,189.299301 313.337433,207.617447 330.068909,240.568375 
	C333.086548,246.511261 335.324371,252.810959 336.463165,259.409088 
	C337.138275,263.320557 339.432556,264.128418 342.896576,263.558380 
	C354.028534,261.726349 359.696411,253.139587 357.376862,241.502884 
	C357.117126,240.199844 356.848938,238.882187 356.404572,237.635498 
	C355.291168,234.511810 355.157806,231.444687 358.510620,229.859695 
	C361.738129,228.333939 364.203705,230.348602 366.280029,232.757553 
	C376.572449,244.698944 374.225800,265.045105 361.476471,274.613129 
	C356.157440,278.604889 350.093933,280.892944 343.655731,282.012238 
	C340.311127,282.593719 339.475128,284.079132 339.257690,287.291443 
	C337.447662,314.032013 328.178619,337.809631 310.338684,357.996063 
	C308.086304,360.544708 307.112946,363.053497 307.090210,366.474976 
	C307.015137,377.789490 307.907501,389.122955 306.451233,400.423523 
	C305.902588,404.681152 303.924438,406.841797 299.580505,407.567810 
	C292.425323,408.763641 285.285706,408.091278 278.143250,408.039368 
	C272.653931,407.999481 267.169403,407.509613 261.678894,407.373596 
	C256.624420,407.248413 253.560196,404.969635 252.688461,399.878601 
	C252.072556,396.281616 251.248154,392.719055 250.681747,389.115234 
	C250.142090,385.681580 248.709656,384.417053 244.914780,384.951141 
	C233.229462,386.595825 221.493469,387.776001 209.637619,387.443878 
	C203.968094,387.285034 198.281662,387.387115 192.793869,385.876495 
	C189.676819,385.018433 188.398773,386.320740 187.771561,388.961182 
	C186.889114,392.676056 186.137451,396.421906 185.269928,400.140503 
	C184.400604,403.866821 182.544037,406.114990 178.237335,406.595520 
	C164.934219,408.079803 151.621292,407.333923 138.322235,407.134888 
	C133.123520,407.057098 130.709335,403.821503 130.672775,398.548828 
	C130.608078,389.218048 130.581635,379.885712 130.688858,370.555786 
	C130.721359,367.729675 130.046295,365.484467 128.035553,363.364838 
	C117.322845,352.072052 107.952049,339.774902 100.954277,325.804291 
	C99.563622,323.027954 97.522392,322.360504 94.593727,322.030426 
	C86.950684,321.169067 78.764008,322.820648 71.660667,317.379059 
M209.578186,203.380295 
	C202.703018,203.191895 195.953232,204.021805 189.465210,206.316757 
	C186.818344,207.252991 184.512924,209.025009 185.788254,212.318619 
	C186.913147,215.223755 189.086700,215.932434 192.277298,214.921600 
	C207.907623,209.969604 223.741409,210.319748 239.522461,214.023422 
	C243.738693,215.012939 246.372894,213.697540 247.097137,209.954193 
	C247.904526,205.781128 243.904251,205.870880 241.360443,205.477676 
	C231.163208,203.901520 220.901321,202.944550 209.578186,203.380295 
M134.383850,245.009430 
	C133.324982,245.474045 132.185135,245.811325 131.220810,246.424606 
	C126.199081,249.618378 124.992790,255.737793 128.333481,260.738525 
	C131.571259,265.585236 138.062561,266.946320 142.643646,263.411499 
	C146.071808,260.766296 148.238861,257.303772 146.812012,252.643524 
	C145.231995,247.482971 141.376770,244.914246 134.383850,245.009430 
z"/>
<path fill="#000000" opacity="1.000000" stroke="none" 
	d="
M452.676605,446.267212 
	C454.826172,447.910858 456.602448,447.501709 458.532654,446.471741 
	C464.276215,443.406982 470.277374,440.980804 476.618774,439.405731 
	C479.524475,438.684021 481.648621,437.348846 481.866821,433.738922 
	C482.125793,429.453674 483.183075,425.222565 483.606659,420.939545 
	C483.966797,417.298370 485.576050,414.848907 489.250610,414.415924 
	C499.694183,413.185364 510.152893,413.116089 520.579224,414.681305 
	C522.836304,415.020081 523.899475,416.608337 524.426514,418.740326 
	C525.424316,422.776520 526.457458,426.793488 526.350098,431.003906 
	C526.227112,435.829285 527.776001,439.114471 533.114685,440.408691 
	C538.912170,441.814148 544.627502,443.782135 549.904480,446.711304 
	C552.437317,448.117249 554.477112,447.683441 556.752686,445.938660 
	C559.915894,443.513214 563.331299,441.402435 566.724304,439.294647 
	C570.724670,436.809540 574.558411,436.864655 578.034668,440.408020 
	C583.282349,445.757080 588.589844,451.047729 593.815552,456.418030 
	C597.572998,460.279480 598.445251,464.703857 594.763245,468.895203 
	C587.096802,477.622192 586.983276,485.988281 591.821899,496.777344 
	C595.591980,505.183777 598.696716,510.486237 608.709290,511.214752 
	C617.767090,511.873749 618.335266,513.719666 618.337280,522.926147 
	C618.338989,530.589661 618.203857,538.256226 618.385803,545.915405 
	C618.488159,550.222290 616.445007,552.391785 612.499756,553.244507 
	C611.362976,553.490234 610.221191,554.015869 609.098022,553.974243 
	C599.334900,553.612976 595.534607,559.511047 591.641296,567.646057 
	C587.047913,577.243958 586.670471,584.908752 594.071289,592.765442 
	C597.934753,596.866882 597.207642,601.164795 593.636414,605.263611 
	C588.598206,611.046204 583.394104,616.654358 577.642334,621.745789 
	C573.900452,625.058105 569.421143,625.998962 565.866089,622.684631 
	C556.950928,614.373230 548.223572,615.449829 537.479370,619.478394 
	C529.890442,622.323792 526.385376,625.403503 524.988647,633.329224 
	C522.667969,646.497559 522.078613,646.396484 508.652130,646.376404 
	C502.987885,646.367981 497.320129,646.464417 491.660309,646.297607 
	C485.007416,646.101501 483.594147,644.765320 482.563904,638.299561 
	C481.911713,634.206482 481.185577,630.119080 480.731140,626.002808 
	C480.458618,623.534546 479.451324,622.003784 477.031281,621.322937 
	C470.291870,619.427002 463.736725,617.001465 457.390259,614.055054 
	C455.274902,613.072876 453.625885,613.492981 451.840240,614.755859 
	C448.442993,617.158508 445.003143,619.510071 441.483307,621.727722 
	C437.506622,624.233154 433.555939,624.150574 430.052582,620.815918 
	C424.384308,615.420532 418.776611,609.960144 413.213135,604.456604 
	C410.026886,601.304688 409.894592,597.729797 412.246246,594.020447 
	C415.009399,589.662170 417.722351,585.267029 420.642548,581.015259 
	C422.154327,578.814087 422.159241,576.983337 420.940643,574.594360 
	C418.068451,568.963440 415.186523,563.290222 412.981384,557.382996 
	C411.527924,553.489380 409.083221,551.932983 405.334747,551.403687 
	C401.725830,550.894043 398.127045,550.279358 394.552917,549.565186 
	C390.744537,548.804260 388.808868,546.221863 388.761414,542.474915 
	C388.647522,533.480347 388.711761,524.483337 388.719696,515.487366 
	C388.723602,511.062775 391.376892,508.755157 395.327148,507.933685 
	C399.706360,507.023041 404.146484,506.280975 408.597412,505.882965 
	C411.585602,505.615753 413.013184,504.159454 413.944214,501.545624 
	C416.122284,495.430878 418.318268,489.307556 421.460480,483.603088 
	C422.589752,481.552979 422.385315,479.970642 420.927185,478.176575 
	C418.303589,474.948669 415.757172,471.643982 413.390656,468.224579 
	C410.062103,463.415222 410.070221,459.737366 414.114410,455.615479 
	C419.590027,450.034576 425.412018,444.778900 431.277100,439.600800 
	C434.348969,436.888672 438.065521,436.892334 441.524048,438.950043 
	C445.239197,441.160431 448.771820,443.677673 452.676605,446.267212 
M525.148499,504.987976 
	C526.975098,504.881470 528.800354,504.723450 530.628479,504.677521 
	C537.472839,504.505554 538.720520,502.708710 536.858276,495.937622 
	C534.230835,486.384216 527.577942,480.493286 518.664490,477.569336 
	C513.190613,475.773743 510.689606,472.898499 510.668793,467.403931 
	C510.663116,465.903137 510.615906,464.424561 508.911163,463.606720 
	C503.540833,461.030365 498.494751,463.879120 498.356567,469.846466 
	C498.272034,473.497345 497.159576,475.671539 493.272003,476.557892 
	C488.534088,477.638123 484.334412,480.119049 480.410797,483.018463 
	C464.187561,495.006897 464.015350,519.682495 480.123108,529.737366 
	C485.997772,533.404480 492.549744,535.231995 499.252441,536.674988 
	C505.108582,537.935852 510.962494,539.314941 516.220947,542.337219 
	C521.934937,545.621399 524.338440,551.534851 522.608521,557.601379 
	C520.624207,564.559998 515.455322,568.740051 508.115143,569.321960 
	C497.035126,570.200317 489.204620,566.775879 486.112640,558.530273 
	C484.251495,553.567078 481.443207,552.688843 477.004730,553.732727 
	C476.034790,553.960876 475.046875,554.146362 474.056610,554.248779 
	C466.056793,555.076233 464.490295,557.637695 467.536499,565.280945 
	C468.267242,567.114380 469.329041,568.856995 470.469574,570.478943 
	C475.691528,577.905029 483.484619,581.197388 491.900848,583.105835 
	C495.307281,583.878296 496.732513,585.224060 496.394226,588.737122 
	C496.035095,592.466553 496.915314,595.344788 501.673187,595.279236 
	C508.170990,595.189697 509.520264,594.321655 509.593384,588.654358 
	C509.633728,585.525330 510.428772,583.949341 513.891846,583.305725 
	C522.619812,581.683655 529.348877,576.579529 534.848022,569.786743 
	C545.713379,556.365112 542.838501,537.943176 528.480347,528.456055 
	C521.965271,524.151245 514.592407,522.164246 507.163361,520.267334 
	C502.178589,518.994507 497.117950,517.987915 492.669952,515.103943 
	C487.359009,511.660431 485.862671,506.689972 486.750916,500.822998 
	C487.524902,495.710785 490.954865,492.594574 495.534149,490.809265 
	C505.741852,486.829620 515.526367,491.413208 518.953430,501.942932 
	C519.945251,504.990295 521.301514,506.155182 525.148499,504.987976 
z"/>
<path fill="#000000" opacity="1.000000" stroke="none" 
	d="
M313.318512,471.350220 
	C313.337036,490.136871 313.204437,508.462463 313.379486,526.785156 
	C313.663300,556.494385 303.442688,582.402527 285.443970,605.605591 
	C269.037628,626.755859 248.153656,641.967712 223.767487,652.704163 
	C217.258728,655.569702 211.215866,655.850830 204.562775,653.064087 
	C166.548904,637.141479 137.996826,611.374878 120.919403,573.502808 
	C114.666916,559.636841 112.172256,544.907898 111.874695,529.866882 
	C111.532104,512.549683 111.799507,495.219269 111.914360,477.895325 
	C111.936310,474.583282 112.132225,471.195801 112.861763,467.982452 
	C114.047157,462.761200 116.587990,458.105591 122.010170,456.308044 
	C147.101883,447.989624 172.175308,439.601044 197.412552,431.742676 
	C211.084824,427.485474 224.706100,429.834625 238.030731,434.268616 
	C258.548584,441.096252 279.014069,448.090363 299.627258,454.617645 
	C307.943695,457.251068 312.655640,462.174347 313.318512,471.350220 
M156.350433,527.555176 
	C156.350937,533.053223 156.333359,538.551392 156.356445,544.049377 
	C156.386353,551.173584 157.784378,552.617859 164.730850,552.646301 
	C172.728027,552.678955 180.727264,552.769104 188.721802,552.623901 
	C192.198303,552.560791 193.437988,553.937256 193.383820,557.348145 
	C193.248901,565.843079 193.307480,574.341919 193.366623,582.838623 
	C193.405594,588.433105 194.588898,589.701294 200.085007,589.770752 
	C208.414124,589.876038 216.746201,589.889832 225.075439,589.798828 
	C230.965195,589.734558 231.967484,588.714111 232.050308,582.684143 
	C232.157852,574.855042 232.299881,567.014648 231.995193,559.195923 
	C231.804764,554.309326 233.236374,552.302246 238.462265,552.557861 
	C246.606384,552.956238 254.784866,552.638184 262.948730,552.653259 
	C267.472168,552.661682 269.691803,550.514771 269.659607,545.924683 
	C269.601166,537.594604 269.691162,529.263489 269.632111,520.933411 
	C269.590759,515.097412 268.016541,513.476746 262.222321,513.415039 
	C254.225906,513.329834 246.215775,513.125488 238.235092,513.489258 
	C233.242050,513.716797 231.910675,511.737091 232.028244,507.097260 
	C232.239197,498.774475 231.826004,490.437347 231.948563,482.110260 
	C232.018768,477.340790 229.658264,475.445984 225.291458,475.420837 
	C217.127884,475.373840 208.962143,475.305328 200.800552,475.440826 
	C195.076080,475.535858 193.398422,477.346954 193.363892,483.033813 
	C193.313339,491.364044 193.175507,499.699677 193.415451,508.023193 
	C193.536591,512.225586 191.942627,513.605469 187.870560,513.445312 
	C181.715622,513.203125 175.543900,513.386780 169.379318,513.389404 
	C156.486893,513.394836 156.349854,513.533569 156.350433,527.555176 
z"/>
<path fill="#000000" opacity="1.000000" stroke="none" 
	d="
M800.265808,439.610657 
	C804.531433,443.284363 808.242737,443.231079 812.228577,439.575134 
	C814.407471,437.576477 817.158875,436.177582 819.726440,434.631653 
	C826.494995,430.556213 828.754517,430.600586 834.287292,435.954895 
	C841.347717,442.787476 848.275513,449.774292 854.950745,456.981537 
	C859.420227,461.807312 859.277649,463.437256 855.420227,468.748749 
	C852.581848,472.657135 849.654663,476.505096 846.650330,480.287231 
	C845.030457,482.326691 844.592224,484.073181 846.031677,486.575775 
	C851.959595,496.882294 856.144653,507.902405 858.560486,519.553467 
	C859.363831,523.427856 861.126221,525.626282 865.432800,526.006531 
	C869.365295,526.353821 873.187195,527.802795 877.105835,528.494934 
	C882.142273,529.384399 884.159851,532.687378 884.227783,537.299561 
	C884.377686,547.463196 884.332458,557.630676 884.269897,567.796021 
	C884.242554,572.244080 881.592163,575.041931 877.586853,576.114075 
	C872.471252,577.483398 867.239685,578.695679 861.984924,579.177185 
	C858.168457,579.526855 856.476257,581.186279 855.183228,584.514709 
	C852.712341,590.875305 849.950623,597.133789 846.364319,602.978699 
	C845.510254,604.370605 844.923157,605.998962 842.536804,606.897156 
	C836.770264,601.106262 830.788757,595.151855 824.875183,589.130798 
	C822.975403,587.196533 824.635742,585.371460 825.427185,583.656921 
	C831.801086,569.849121 835.139038,555.431702 834.665771,540.152588 
	C833.436340,500.464539 801.424866,462.986938 761.343628,459.172089 
	C741.692688,457.301727 722.595398,458.172974 705.318665,468.669922 
	C679.626709,484.279846 665.800720,507.485168 663.237793,537.399719 
	C659.663818,579.115906 687.276489,618.073730 726.499390,626.844055 
	C746.883606,631.402039 767.273560,630.721069 785.899902,619.365051 
	C789.630432,617.090698 792.007507,617.623657 794.995911,620.583984 
	C801.129883,626.660156 807.648621,632.347961 813.725220,638.519958 
	C811.621704,642.361938 808.802246,643.399597 806.530884,644.912781 
	C799.141663,649.835632 791.098450,653.474182 782.611816,656.038086 
	C778.651184,657.234619 776.577454,659.295044 776.113281,663.682129 
	C775.557434,668.935791 774.190063,674.123169 772.913147,679.274536 
	C771.997253,682.969055 769.654907,685.301147 765.587463,685.698853 
	C754.279785,686.804504 742.957764,686.400452 731.648315,685.988525 
	C728.070190,685.858215 725.647949,683.693298 724.497009,680.014282 
	C722.997986,675.223022 722.217041,670.329834 721.643250,665.383362 
	C721.239075,661.899109 720.423889,658.994446 716.338928,657.937073 
	C706.445740,655.376343 697.222046,651.114441 688.444031,645.949341 
	C685.704285,644.337219 683.682678,644.547241 681.250366,646.460815 
	C677.459106,649.443542 673.476685,652.194702 669.476318,654.897522 
	C665.178040,657.801575 660.842712,657.506958 657.170410,653.919434 
	C649.664490,646.586609 642.303833,639.101685 635.003357,631.563171 
	C631.326294,627.766174 631.404419,623.537781 634.435059,619.332886 
	C637.647766,614.875305 640.854675,610.410828 644.190002,606.045593 
	C645.896118,603.812500 646.164368,602.001953 644.582153,599.355774 
	C633.777100,581.284912 629.408386,561.393494 629.887939,540.610291 
	C630.286072,523.354919 633.876404,506.583923 642.352844,491.260468 
	C644.412292,487.537628 644.326233,484.686615 641.625061,481.334564 
	C638.606140,477.588104 636.140259,473.392487 633.478577,469.362701 
	C631.241333,465.975555 631.083191,462.509064 633.349243,459.058502 
	C639.825500,449.196747 648.672363,441.551727 657.380005,433.836456 
	C660.065796,431.456787 663.689148,431.965546 666.803650,433.773956 
	C671.122803,436.281860 675.438721,438.809174 679.615906,441.542328 
	C681.810730,442.978424 683.599060,443.293732 685.984558,441.832703 
	C693.671875,437.124573 701.799255,433.259979 710.359375,430.419403 
	C713.739624,429.297729 714.974854,426.856995 715.547852,423.778381 
	C716.553833,418.373291 717.837952,413.058960 719.969177,407.964844 
	C721.249512,404.904510 723.493530,403.020752 726.721558,402.770294 
	C737.669495,401.920929 748.603027,400.941864 759.607605,402.512604 
	C764.014160,403.141571 766.526306,405.327087 767.950134,409.263397 
	C769.537231,413.651031 770.677673,418.157990 771.373718,422.762726 
	C771.899414,426.240448 773.584961,428.364746 777.086609,429.458466 
	C785.054138,431.946960 792.585571,435.516937 800.265808,439.610657 
z"/>
<path fill="#000000" opacity="1.000000" stroke="none" 
	d="
M699.347534,311.000092 
	C699.346741,326.991577 699.356018,342.483032 699.339905,357.974518 
	C699.333252,364.406738 698.580200,365.603790 692.446350,365.723480 
	C678.960022,365.986603 665.464294,365.964569 651.975403,365.807709 
	C646.927368,365.749023 645.728821,363.939240 645.727478,357.716187 
	C645.718201,316.738770 645.739563,275.761353 645.743286,234.783920 
	C645.745239,213.129181 645.719360,191.474426 645.733215,169.819702 
	C645.737244,163.472916 646.573059,162.675919 653.003540,162.596695 
	C665.490845,162.442841 677.980591,162.087372 690.464722,162.228195 
	C698.880615,162.323105 699.346741,163.133728 699.346985,171.576523 
	C699.348206,217.884384 699.347412,264.192230 699.347534,311.000092 
z"/>
<path fill="#000000" opacity="1.000000" stroke="none" 
	d="
M543.482666,263.655518 
	C555.382935,290.851471 565.817810,318.211670 575.745117,345.774017 
	C577.514832,350.687622 578.721375,355.608704 578.377014,360.880219 
	C578.228882,363.148224 578.170715,365.372559 575.562195,366.114990 
	C572.870605,366.881012 571.678711,364.819305 570.505676,362.980957 
	C559.396362,345.570984 548.096680,328.278198 537.253479,310.703857 
	C522.123352,286.181335 507.031067,261.636169 491.263611,237.518295 
	C484.550873,227.250534 481.954834,215.536392 478.697815,204.039917 
	C475.948517,194.335770 473.466095,184.555984 470.944550,175.105759 
	C468.253937,174.305725 466.857788,175.797455 465.300201,176.587021 
	C424.083191,197.481247 394.807617,162.777985 396.657379,131.854782 
	C397.835876,112.153419 417.172668,93.613976 436.824799,92.543434 
	C458.243988,91.376640 473.714569,106.572502 478.408112,123.205917 
	C480.573822,130.880829 482.863342,138.526810 484.787231,146.262878 
	C491.697968,174.050919 506.080231,198.229996 521.516846,221.817078 
	C530.138794,234.991348 537.174011,248.891113 543.482666,263.655518 
M426.585938,158.924118 
	C440.466553,168.234390 456.048035,164.222122 462.998322,149.547821 
	C467.122742,140.839890 462.882233,124.952324 454.351990,117.153435 
	C443.034637,106.806366 424.466431,110.844315 418.451538,124.960548 
	C413.291229,137.071167 416.122894,149.692535 426.585938,158.924118 
M508.082275,231.693939 
	C510.507172,229.873016 511.304565,227.503891 510.159393,224.691040 
	C509.277893,222.525711 507.615173,221.240646 505.150482,221.320251 
	C502.858246,221.394302 500.791351,222.149475 499.822449,224.326813 
	C498.921844,226.350784 498.863007,228.583710 500.313293,230.462677 
	C502.198883,232.905563 504.700317,233.168533 508.082275,231.693939 
z"/>
<path fill="#000000" opacity="1.000000" stroke="none" 
	d="
M783.482056,189.509171 
	C781.557312,191.136475 779.991394,192.661667 778.222534,193.896194 
	C772.305603,198.025787 768.192139,198.054489 762.756958,193.713791 
	C723.448975,162.320938 684.417786,130.580353 644.666260,99.744545 
	C644.290466,99.453041 644.051331,98.985466 643.315125,98.048988 
	C648.447571,93.180359 653.504883,88.209015 658.776489,83.476234 
	C660.633850,81.808723 662.123779,83.769218 663.500427,84.869881 
	C686.139709,102.970558 708.730896,121.131676 731.414856,139.176117 
	C743.278320,148.613098 755.354187,157.783081 767.213257,167.225372 
	C770.127930,169.546066 772.069397,169.416336 774.834167,166.833954 
	C781.527161,160.582520 788.492188,154.611649 795.511780,148.723373 
	C803.822510,141.752136 807.831116,141.991394 815.975098,148.923630 
	C842.869568,171.816498 869.831604,194.629929 896.773743,217.466751 
	C897.400757,217.998154 898.098022,218.446655 898.965149,219.082443 
	C901.282837,217.919510 902.666199,215.845108 904.229675,213.964523 
	C906.463562,211.277481 908.504456,208.387253 911.005188,205.975113 
	C914.442505,202.659714 916.222473,203.117447 917.902344,207.526260 
	C924.122864,223.852036 930.318054,240.188034 936.395508,256.567444 
	C938.676025,262.713593 937.375183,264.563538 930.846130,264.311646 
	C916.718994,263.766724 902.725159,261.817505 888.735718,259.886292 
	C884.791016,259.341736 880.843323,258.818237 876.898499,258.274231 
	C871.989197,257.597229 870.777344,255.261215 873.510132,251.155273 
	C875.533386,248.115326 877.989319,245.365097 880.218872,242.460007 
	C881.611755,240.645218 883.531433,239.168930 884.126038,236.500229 
	C873.867432,227.858322 863.574646,219.189102 853.283508,210.518005 
	C838.507263,198.067932 823.646362,185.715759 809.027832,173.083206 
	C806.043640,170.504440 804.247742,170.710022 801.579407,173.229507 
	C795.767395,178.717255 789.706848,183.941788 783.482056,189.509171 
z"/>
<path fill="#000000" opacity="1.000000" stroke="none" 
	d="
M771.348145,294.000122 
	C771.347473,315.497620 771.352844,336.495087 771.341980,357.492584 
	C771.338379,364.444855 770.552063,365.637939 763.850403,365.760834 
	C750.524170,366.005188 737.190369,365.879181 723.859985,365.832001 
	C719.536133,365.816681 717.635864,363.455688 717.639038,359.158112 
	C717.673096,313.496979 717.676392,267.835815 717.632202,222.174728 
	C717.627747,217.555115 719.625000,215.540207 724.283508,215.579391 
	C737.780945,215.692978 751.279968,215.594269 764.778198,215.636642 
	C770.396179,215.654266 771.323059,216.617172 771.330994,222.508652 
	C771.363037,246.172424 771.346497,269.836273 771.348145,294.000122 
z"/>
<path fill="#000000" opacity="1.000000" stroke="none" 
	d="
M785.765869,599.234131 
	C754.226929,568.290649 724.445068,536.122681 693.545105,505.050079 
	C690.601990,502.090546 690.650757,499.916260 693.535156,497.176605 
	C696.673523,494.195801 699.814941,491.173584 702.581238,487.857574 
	C705.638733,484.192291 707.860474,484.191559 711.280029,487.745758 
	C728.260559,505.394714 745.335205,522.959778 762.679077,540.251038 
	C792.294861,569.777100 822.135437,599.077576 851.889648,628.464661 
	C852.115662,628.687866 852.452759,628.798523 853.043457,629.136658 
	C856.146729,626.359802 859.192505,623.326172 862.555237,620.698303 
	C867.492981,616.839600 870.026917,617.475647 872.392822,623.229126 
	C879.798950,641.239197 887.105469,659.290771 894.346558,677.367981 
	C896.216919,682.037109 893.684448,685.038086 888.723145,683.830872 
	C867.740295,678.725281 846.785645,673.499939 825.864197,668.148376 
	C820.219543,666.704529 819.487671,663.352722 823.543945,659.132812 
	C825.968018,656.611084 828.325562,653.993896 830.980530,651.733948 
	C834.116028,649.064941 833.468872,647.138000 830.796631,644.483398 
	C815.783875,629.570068 800.926636,614.500183 785.765869,599.234131 
z"/>
<path fill="#000000" opacity="1.000000" stroke="none" 
	d="
M240.654602,164.640213 
	C235.655106,170.017593 230.909531,175.149170 226.119507,180.238922 
	C219.590866,187.176056 212.979599,187.143585 206.454407,180.094772 
	C200.122604,173.254852 193.865997,166.345398 187.569458,159.472809 
	C180.261063,151.495773 172.938766,143.531464 165.640747,135.544952 
	C164.745773,134.565536 163.848099,133.555222 163.149017,132.435959 
	C160.263168,127.815628 161.947571,124.665230 167.382782,124.593857 
	C172.542404,124.526115 177.710419,124.464226 182.862900,124.680962 
	C187.169418,124.862106 188.812408,123.086372 188.765320,118.798576 
	C188.619095,105.481583 188.687347,92.161942 188.717056,78.843430 
	C188.731857,72.202187 189.864670,71.035072 196.607086,70.995293 
	C209.925278,70.916710 223.244217,70.892181 236.562515,70.940598 
	C242.823334,70.963356 244.184189,72.348343 244.219543,78.625374 
	C244.287033,90.611748 244.245697,102.598694 244.261993,114.585396 
	C244.277298,125.835716 243.407639,124.620750 254.593658,124.613472 
	C258.085571,124.611198 261.579803,124.388908 265.068420,124.468277 
	C267.359070,124.520386 269.960663,124.430809 270.978363,127.184921 
	C271.955383,129.828857 270.881256,131.964386 269.033386,133.948822 
	C259.618286,144.059906 250.264175,154.227768 240.654602,164.640213 
z"/>
<path fill="#000000" opacity="1.000000" stroke="none" 
	d="
M802.053833,251.630127 
	C813.873047,251.631470 825.201843,251.590332 836.529968,251.653198 
	C842.124939,251.684250 843.305725,252.842331 843.312012,258.449768 
	C843.349792,292.102112 843.282532,325.754700 843.394653,359.406738 
	C843.408691,363.629211 841.777710,365.730530 837.665344,365.746765 
	C823.677429,365.801941 809.688721,365.848328 795.701477,365.740509 
	C791.485291,365.708008 789.586548,363.378906 789.598572,358.985199 
	C789.689758,325.666290 789.630432,292.346954 789.669739,259.027863 
	C789.676758,253.069077 791.117859,251.738266 797.064880,251.642090 
	C798.563904,251.617859 800.063660,251.633301 802.053833,251.630127 
z"/>
<path fill="#000000" opacity="1.000000" stroke="none" 
	d="
M519.290833,203.659134 
	C510.980011,193.464249 507.683685,184.260803 514.958679,171.056503 
	C523.067566,156.338730 525.533569,138.945908 530.536743,122.742889 
	C537.017761,101.753868 552.500244,90.523804 574.089661,92.827774 
	C591.932800,94.731956 609.029419,107.509491 611.934631,128.526367 
	C615.091736,151.365524 600.594238,180.954987 568.809326,182.991348 
	C561.260559,183.474976 554.029846,181.022217 547.112610,177.985153 
	C544.395264,176.792084 541.708679,175.529099 538.151611,173.907516 
	C534.305298,187.362274 530.599304,200.326202 526.697021,213.976685 
	C522.916260,211.005859 521.801636,207.032303 519.290833,203.659134 
M552.773621,119.274124 
	C548.121094,124.407814 546.267883,130.715576 544.905579,137.324539 
	C541.856262,152.118225 556.284424,166.443985 571.098206,163.191498 
	C585.807251,159.962006 592.760742,151.064590 592.796875,135.959091 
	C592.821533,125.642036 588.818481,117.730644 579.371460,113.386299 
	C569.572510,108.880089 560.900208,111.756470 552.773621,119.274124 
z"/>
<path fill="#000000" opacity="1.000000" stroke="none" 
	d="
M555.278198,705.003296 
	C549.184143,727.020569 543.050964,748.595947 537.222046,770.253174 
	C535.977417,774.877502 533.976929,776.702942 528.986450,776.503723 
	C515.101013,775.949463 518.227295,778.291138 514.784302,765.402344 
	C511.193817,751.961426 508.053314,738.400269 504.394409,723.589661 
	C500.498596,739.524109 496.936340,754.161316 493.336823,768.789490 
	C491.467621,776.385620 491.437469,776.429810 483.436157,776.369934 
	C471.516052,776.280701 474.163696,777.698608 470.970581,766.817017 
	C464.983276,746.413330 459.307098,725.918457 453.481903,705.467041 
	C453.027435,703.871643 452.295013,702.336975 453.089447,699.750061 
	C457.854797,699.750061 462.924866,699.597717 467.979919,699.807312 
	C471.005890,699.932861 470.666260,702.915710 471.114380,704.793579 
	C474.271973,718.025757 477.233704,731.304626 480.287109,744.561829 
	C480.919708,747.308411 481.674561,750.026733 482.724396,754.131836 
	C486.564240,736.886902 490.236664,720.951660 493.588257,704.949280 
	C494.426392,700.947754 496.068848,699.527893 500.222046,699.569580 
	C512.913452,699.697205 512.937317,699.521606 515.742371,711.786438 
	C518.766235,725.007874 521.742920,738.240112 524.801941,751.740356 
	C528.033813,750.428101 527.806580,747.716064 528.284851,745.722107 
	C531.536804,732.164978 534.688110,718.580505 537.590881,704.945007 
	C538.427612,701.014587 539.995483,699.187073 544.211670,699.569885 
	C547.972656,699.911438 551.789124,699.641663 555.097717,699.641663 
	C556.640320,701.795715 555.439209,703.164917 555.278198,705.003296 
z"/>
<path fill="#000000" opacity="1.000000" stroke="none" 
	d="
M889.000000,288.672424 
	C895.661987,288.685883 901.828186,288.563385 907.984741,288.753082 
	C913.739868,288.930450 915.328979,290.680298 915.336243,296.399445 
	C915.362488,317.050751 915.359558,337.702118 915.338013,358.353455 
	C915.331848,364.269135 914.271484,365.704529 908.580750,365.787048 
	C895.260925,365.980194 881.936401,365.851318 868.613770,365.849792 
	C863.833984,365.849243 861.742554,363.421173 861.755249,358.680878 
	C861.810974,337.863220 861.718567,317.045135 861.805298,296.227692 
	C861.827820,290.822479 864.075195,288.766113 869.514282,288.697418 
	C875.841980,288.617462 882.171326,288.674957 889.000000,288.672424 
z"/>
<path fill="#000000" opacity="1.000000" stroke="none" 
	d="
M422.817627,251.578705 
	C436.998230,248.029404 450.909424,245.971420 465.168304,247.505020 
	C466.488922,247.647079 467.831085,247.599518 469.163544,247.619247 
	C476.930237,247.734299 476.928986,247.731750 479.365845,240.453369 
	C479.666718,239.554703 479.990448,238.663696 480.268158,237.870377 
	C482.344208,237.743073 482.672729,239.303909 483.344971,240.341690 
	C489.863922,250.405334 496.193359,260.595581 502.896393,270.534180 
	C505.418793,274.274170 504.983246,277.082489 502.166748,280.225708 
	C496.665894,286.364746 489.335510,289.104248 481.748108,291.102325 
	C460.330505,296.742645 439.245178,294.945953 418.527710,287.554413 
	C413.626190,285.805664 409.144287,283.270081 405.257568,279.752838 
	C397.871796,273.069183 398.371216,264.372894 406.512726,258.684723 
	C411.348206,255.306335 416.750000,253.172775 422.817627,251.578705 
z"/>
<path fill="#000000" opacity="1.000000" stroke="none" 
	d="
M688.800171,840.152893 
	C685.436462,834.805725 682.249023,829.775085 678.307434,823.554260 
	C678.307434,837.133057 678.438599,849.352966 678.270508,861.568726 
	C678.102417,873.779358 681.001099,872.287231 666.445618,872.327942 
	C663.643616,872.335815 662.650513,871.118042 662.655762,868.416077 
	C662.699402,845.775635 662.698303,823.135010 662.647644,800.494568 
	C662.641541,797.751160 663.739990,796.555359 666.483643,796.608521 
	C670.144226,796.679565 673.813904,796.721802 677.468323,796.543884 
	C680.715088,796.385681 681.617859,798.866577 682.895447,800.933533 
	C691.721741,815.213501 700.517273,829.512451 709.998657,844.902527 
	C711.149414,833.509460 710.583557,823.311768 710.516296,813.135559 
	C710.487793,808.822754 710.187317,804.508972 709.915649,800.201660 
	C709.761719,797.762207 710.474182,796.432739 713.216309,796.517944 
	C717.336731,796.645935 721.463989,796.551270 725.204285,796.551270 
	C726.662170,798.369873 726.301514,799.926453 726.303467,801.375732 
	C726.333374,823.184021 726.222717,844.993225 726.422119,866.799744 
	C726.462341,871.195496 725.012207,872.112000 720.757812,872.575928 
	C712.231079,873.505920 706.847229,870.744263 702.911438,862.940186 
	C698.957947,855.101135 693.676025,847.932129 688.800171,840.152893 
z"/>
<path fill="#000000" opacity="1.000000" stroke="none" 
	d="
M450.402649,726.017700 
	C454.245026,746.242554 449.537506,764.879822 431.201050,773.691650 
	C411.145172,783.329895 382.854095,775.452393 377.567444,746.896179 
	C376.015747,738.514648 376.386505,730.372803 379.137115,722.365051 
	C384.360992,707.157104 397.095428,698.362976 413.895386,698.208313 
	C430.797668,698.052734 444.140198,707.277466 449.406250,722.763733 
	C449.726654,723.705872 450.020844,724.656860 450.402649,726.017700 
M395.215637,745.299316 
	C397.177063,755.745911 403.520538,762.228333 412.196991,762.652649 
	C423.098633,763.185608 430.296570,758.094482 433.037323,747.419983 
	C435.100586,739.384277 435.002869,731.312927 431.517181,723.590637 
	C428.005188,715.810120 421.640717,712.935364 413.383057,713.130676 
	C405.304840,713.321655 399.741455,717.215820 396.788239,724.459839 
	C394.183929,730.847961 393.436279,737.609802 395.215637,745.299316 
z"/>
<path fill="#000000" opacity="1.000000" stroke="none" 
	d="
M586.380249,806.406067 
	C598.013855,794.907959 614.743591,791.685791 629.474426,797.895325 
	C643.104431,803.640747 651.165649,816.793884 651.403076,832.936584 
	C651.544067,842.518066 649.894653,851.469055 644.078369,859.294678 
	C634.034485,872.808411 620.083984,876.129395 604.579224,872.920532 
	C590.006958,869.904724 581.145813,859.977295 577.882385,845.663208 
	C574.671448,831.579224 576.655518,818.238953 586.380249,806.406067 
M631.566406,847.921509 
	C634.379028,841.414551 634.273071,834.522705 633.377014,827.794250 
	C631.879028,816.545593 624.383423,809.633789 614.412292,809.411804 
	C604.459290,809.190247 597.783203,815.226990 595.019714,826.579346 
	C594.011414,830.721802 594.168213,834.864685 594.444397,838.970581 
	C595.178406,849.881226 600.827332,857.116455 609.823914,859.244141 
	C618.408020,861.274353 626.191833,857.413879 631.566406,847.921509 
z"/>
<path fill="#000000" opacity="1.000000" stroke="none" 
	d="
M171.791992,795.529541 
	C192.602402,792.631287 210.663071,804.275330 214.289780,825.781555 
	C216.388321,838.225769 214.917618,850.051453 206.832413,860.259216 
	C196.826569,872.891846 183.340775,875.990051 168.318283,872.802063 
	C153.063370,869.564941 143.905731,859.378296 140.873672,844.425964 
	C137.436844,827.477478 140.777313,812.244995 155.625641,801.361267 
	C160.242508,797.977234 165.577286,796.049316 171.791992,795.529541 
M160.356277,849.023010 
	C165.209061,856.991760 172.392105,860.834595 180.135941,859.455200 
	C188.903320,857.893372 194.252335,852.668518 196.445953,844.056702 
	C198.350250,836.580566 197.895660,829.243164 195.352493,822.022583 
	C192.672119,814.412415 185.953339,809.619873 177.895966,809.429688 
	C170.030212,809.244019 163.139252,813.472046 160.071289,820.717529 
	C156.192886,829.876953 156.558929,839.128357 160.356277,849.023010 
z"/>
<path fill="#000000" opacity="1.000000" stroke="none" 
	d="
M490.440216,941.022644 
	C485.394623,961.256287 468.474274,972.898682 448.550385,970.227417 
	C429.996063,967.739807 416.864807,952.188904 416.642029,932.631165 
	C416.488647,919.165222 419.716187,907.016663 431.048950,898.671875 
	C443.616943,889.417603 457.571320,889.073608 471.245117,895.473389 
	C484.308990,901.587708 490.266724,913.135620 491.250244,927.209595 
	C491.559937,931.640747 492.002289,936.209534 490.440216,941.022644 
M473.651306,929.623779 
	C473.884613,925.904968 473.060455,922.351990 471.852600,918.885071 
	C468.967896,910.604736 462.918640,906.352051 454.103149,906.323242 
	C445.184570,906.294128 439.190613,910.373291 436.279297,918.723328 
	C433.573059,926.485107 433.487946,934.385254 435.886475,942.230408 
	C438.632782,951.213318 445.086914,955.788513 454.492249,955.687378 
	C463.503510,955.590515 469.722870,950.778687 472.359680,941.873962 
	C473.455994,938.171692 473.885162,934.396118 473.651306,929.623779 
z"/>
<path fill="#000000" opacity="1.000000" stroke="none" 
	d="
M682.011780,729.349670 
	C680.452087,737.621338 675.435486,742.630615 668.230530,745.995850 
	C670.282715,751.620422 673.569519,756.025879 676.330017,760.708435 
	C678.996460,765.231628 682.489441,769.283325 684.944092,775.055969 
	C679.156311,775.367615 674.114502,775.726074 669.066589,775.870117 
	C666.904724,775.931885 666.068665,773.986084 665.129944,772.441772 
	C661.156006,765.904114 657.230042,759.337280 653.272705,752.789490 
	C651.993103,750.672424 650.974670,748.374023 647.860413,748.256531 
	C644.326538,748.123108 642.104431,748.848816 642.262329,753.121948 
	C642.489624,759.273804 642.204590,765.443115 642.352905,771.599854 
	C642.431702,774.872192 641.030518,776.024414 637.902222,776.015259 
	C622.895508,775.971191 625.807312,777.241821 625.695557,764.472473 
	C625.523560,744.827271 625.769775,725.178223 625.563843,705.533630 
	C625.516602,701.020142 626.810242,699.294067 631.457825,699.569092 
	C641.075867,700.138123 650.799805,698.610718 660.346191,700.375793 
	C677.450928,703.538391 683.318970,711.434753 682.011780,729.349670 
M649.549683,734.646729 
	C651.538208,734.618469 653.549988,734.775879 655.511108,734.529541 
	C663.814087,733.486572 668.190918,724.150452 663.297119,717.753174 
	C660.418762,713.990601 656.053345,713.429810 651.653992,713.353577 
	C642.332520,713.192078 642.332336,713.205688 642.330872,722.267090 
	C642.330566,724.256104 642.540527,726.272522 642.286804,728.228760 
	C641.639160,733.221313 643.567688,735.444519 649.549683,734.646729 
z"/>
<path fill="#000000" opacity="1.000000" stroke="none" 
	d="
M384.433594,857.485718 
	C382.355957,854.035767 380.422974,850.922974 378.598419,847.747925 
	C377.577820,845.971924 376.186676,845.357605 374.137085,845.205200 
	C370.000488,844.897583 367.967651,846.028503 368.255463,850.694458 
	C368.613647,856.502258 368.248657,862.351257 368.353851,868.179626 
	C368.406158,871.076904 367.435852,872.431274 364.334991,872.379700 
	C348.828766,872.121643 351.847076,874.215698 351.705536,860.298889 
	C351.509033,840.977173 351.764343,821.650940 351.587463,802.328857 
	C351.548584,798.083435 352.640900,796.284058 357.184570,796.581787 
	C367.626190,797.266052 378.187744,795.450073 388.551239,797.577393 
	C400.326965,799.994629 406.891083,806.102478 408.116821,816.069519 
	C409.457001,826.966614 406.616608,836.248657 396.096588,841.777832 
	C395.540192,842.070312 395.104462,842.592407 394.312134,843.260986 
	C399.108521,852.825806 405.659851,861.250671 410.888702,870.430359 
	C404.241882,874.753479 393.782684,872.596069 389.890564,866.285339 
	C388.142578,863.451111 386.379700,860.625977 384.433594,857.485718 
M368.346069,814.845764 
	C368.347015,816.673950 368.348328,818.502136 368.348877,820.330322 
	C368.352661,832.476624 368.352570,832.476379 380.629456,831.612549 
	C380.960907,831.589172 381.296844,831.606567 381.624969,831.562317 
	C387.331635,830.791626 391.216370,826.762085 391.454773,821.374451 
	C391.675171,816.394043 388.152069,811.716858 382.736267,810.773804 
	C379.014191,810.125671 375.131714,810.357666 371.319275,810.283997 
	C368.860504,810.236450 368.294006,811.874207 368.346069,814.845764 
z"/>
<path fill="#000000" opacity="1.000000" stroke="none" 
	d="
M431.469177,826.584045 
	C434.618652,817.405457 437.724091,808.627136 440.631592,799.783813 
	C441.605591,796.821289 443.204071,795.696838 446.395721,795.631714 
	C461.565460,795.322571 461.580200,795.224609 466.710388,809.611084 
	C473.410278,828.399353 480.090698,847.194519 486.746460,865.998413 
	C487.342102,867.681152 488.348755,869.310425 487.804749,871.852844 
	C482.939545,872.835876 477.849823,872.548889 472.834656,872.032410 
	C470.512512,871.793213 470.413177,869.106384 469.746704,867.301025 
	C464.901886,854.176697 468.589447,856.453674 454.020599,856.199890 
	C453.687683,856.194092 453.354614,856.199158 453.021606,856.199219 
	C439.245911,856.200745 439.213440,856.188599 434.493805,868.835205 
	C433.804321,870.682678 433.146576,872.287109 430.879333,872.300354 
	C426.259521,872.327209 421.639374,872.308350 415.695770,872.308350 
	C421.123199,856.583252 426.235535,841.771057 431.469177,826.584045 
M453.205444,818.958252 
	C451.673187,816.451782 450.884125,817.322449 450.183533,819.542847 
	C448.234863,825.718872 446.377686,831.932251 444.153015,838.009644 
	C442.651947,842.110107 444.318634,843.108398 447.980713,842.985962 
	C450.638824,842.897095 453.306427,842.860962 455.961884,842.979370 
	C459.802216,843.150574 461.163147,841.783203 459.768524,837.922485 
	C457.569855,831.835876 455.583618,825.672546 453.205444,818.958252 
z"/>
<path fill="#000000" opacity="1.000000" stroke="none" 
	d="
M737.793457,872.321167 
	C734.717651,871.702576 735.631104,869.892578 736.146362,868.385803 
	C744.054993,845.257629 751.997864,822.141174 759.937805,799.023682 
	C760.045288,798.710754 760.161804,798.372498 760.369446,798.126709 
	C764.625732,793.089417 770.295898,796.709595 775.238342,795.795288 
	C777.583923,795.361267 780.267639,795.263000 781.425232,798.496399 
	C789.997314,822.441833 798.632446,846.364807 807.228088,870.301880 
	C807.327332,870.578491 807.166138,870.948547 807.041565,871.976440 
	C802.173706,872.760742 797.102173,872.454224 792.072144,872.135376 
	C789.831116,871.993286 789.597595,869.661438 788.974792,868.011719 
	C784.518921,856.208496 784.536133,856.202026 771.820740,856.202515 
	C771.654175,856.202515 771.487671,856.202454 771.321106,856.202454 
	C758.081543,856.204041 757.993286,856.172546 753.600891,868.485657 
	C752.596741,871.300537 751.179932,872.557556 748.198853,872.407349 
	C744.876221,872.239929 741.539062,872.360596 737.793457,872.321167 
M778.612244,837.740601 
	C775.933533,830.696960 774.232788,823.280334 770.517639,815.597961 
	C767.466614,825.065369 764.180054,833.453613 762.005127,842.875610 
	C767.299194,842.875610 771.906372,842.915588 776.512329,842.862183 
	C779.867432,842.823364 779.832153,840.884888 778.612244,837.740601 
z"/>
<path fill="#000000" opacity="1.000000" stroke="none" 
	d="
M510.659546,933.582031 
	C500.246094,927.084290 496.478088,918.407166 499.346405,908.083130 
	C501.922607,898.810547 511.440491,891.942505 522.033752,891.637817 
	C528.566650,891.449951 535.000732,891.589233 541.027283,894.693054 
	C546.715393,897.622559 550.246765,902.124512 551.891968,908.278748 
	C552.545715,910.724487 551.952942,912.092163 549.438965,912.668335 
	C547.335876,913.150330 545.222168,913.664856 543.199341,914.401489 
	C539.587341,915.716797 537.339355,915.424622 535.435913,911.254517 
	C532.663879,905.181458 522.747864,903.611755 517.509521,907.769470 
	C513.866028,910.661255 514.565063,916.567017 518.891724,919.124207 
	C521.945007,920.928772 525.428040,921.537048 528.768921,922.538391 
	C532.427856,923.635071 536.157654,924.553101 539.716187,925.915771 
	C549.766663,929.764526 554.383789,936.151001 554.317932,945.697021 
	C554.247314,955.931885 548.299988,964.743286 538.920898,968.064331 
	C529.984497,971.228638 520.905823,971.253296 512.011047,967.997864 
	C504.891052,965.392029 500.081940,960.265808 497.614868,953.037659 
	C497.347229,952.253357 496.722290,951.265442 496.975494,950.680176 
	C499.104156,945.760132 504.369476,947.379272 508.026367,945.574402 
	C510.075195,944.563293 511.547821,944.875732 512.803650,947.290283 
	C516.861633,955.092590 520.121643,956.719666 528.330505,955.773071 
	C532.484253,955.294006 535.828979,953.664307 536.555969,949.147278 
	C537.326355,944.359680 534.528931,941.679626 530.409485,940.102722 
	C524.043030,937.665771 517.160767,936.803528 510.659546,933.582031 
z"/>
<path fill="#000000" opacity="1.000000" stroke="none" 
	d="
M646.175537,905.388794 
	C644.161133,905.786438 642.442139,905.935852 640.965332,906.613220 
	C635.924194,908.925354 635.280945,914.931030 639.634155,918.380432 
	C641.764038,920.068115 644.334473,920.836487 646.883972,921.625732 
	C651.646851,923.100098 656.530029,924.277832 661.141785,926.130066 
	C671.873047,930.440125 675.660950,936.679199 675.344482,948.606384 
	C675.118835,957.111816 669.020996,964.842285 659.924255,968.154907 
	C647.144653,972.808716 632.229858,969.932922 624.239502,961.274841 
	C623.900513,960.907471 623.484619,960.587341 623.231201,960.168579 
	C621.195496,956.804321 617.323975,952.979675 619.352905,949.516235 
	C621.582092,945.711182 627.339233,946.322449 631.568909,945.099731 
	C633.321350,944.593079 633.844543,946.680359 634.580200,947.923340 
	C638.832825,955.108643 642.998169,957.078430 651.189941,955.596313 
	C655.158020,954.878296 657.990112,952.680908 658.532837,948.519104 
	C659.028015,944.721863 657.008362,942.051819 653.599304,940.705139 
	C650.211487,939.366821 646.663208,938.434509 643.185181,937.324585 
	C640.651611,936.516052 638.055054,935.864197 635.594971,934.873230 
	C624.626648,930.455139 619.554138,921.914429 620.701111,910.012817 
	C621.527039,901.442932 629.309448,893.857544 639.605530,891.877075 
	C647.103821,890.434875 654.496765,890.895935 661.624451,893.914917 
	C668.083618,896.650757 671.876587,901.579529 673.781677,908.223511 
	C674.492981,910.703918 673.935852,912.013123 671.346069,912.527161 
	C669.557922,912.882080 667.779968,913.394714 666.074890,914.041138 
	C662.039429,915.570740 659.195618,915.556030 657.115173,910.639893 
	C655.388489,906.559753 651.107849,905.135559 646.175537,905.388794 
z"/>
<path fill="#000000" opacity="1.000000" stroke="none" 
	d="
M584.000366,699.633789 
	C592.495178,699.640503 600.491943,699.747742 608.484253,699.606995 
	C611.856750,699.547607 613.265259,700.697510 613.235474,704.203918 
	C613.132812,716.278381 613.689270,714.135986 603.498352,714.279968 
	C597.170227,714.369385 590.838501,714.388184 584.511169,714.277893 
	C581.606262,714.227356 580.239136,715.179199 580.297363,718.287903 
	C580.599426,734.388855 578.150635,731.325745 592.716919,731.630310 
	C597.545166,731.731323 602.379578,731.749634 607.206604,731.626587 
	C610.169800,731.551025 611.244751,732.701111 611.382446,735.707336 
	C611.823303,745.332092 611.933777,745.325867 602.253540,745.328369 
	C596.423889,745.329834 590.592102,745.430176 584.765381,745.301270 
	C581.640259,745.232117 580.229980,746.273682 580.283691,749.608276 
	C580.507568,763.511475 578.722473,761.490845 591.634766,761.621277 
	C598.946838,761.695129 606.260193,761.634583 613.678345,761.634583 
	C614.936584,765.719482 614.186768,769.535278 614.243164,773.293701 
	C614.276733,775.526428 612.616760,775.995117 610.823975,775.997803 
	C596.333923,776.019653 581.843872,775.997131 567.353821,776.025391 
	C564.520203,776.030884 563.641235,774.555542 563.645447,771.936646 
	C563.682556,749.117798 563.685913,726.298889 563.640198,703.480103 
	C563.634705,700.720886 564.768616,699.599731 567.511169,699.642578 
	C572.839600,699.726013 578.170593,699.646240 584.000366,699.633789 
z"/>
<path fill="#000000" opacity="1.000000" stroke="none" 
	d="
M342.312256,935.471191 
	C340.033386,913.243469 351.901489,896.163391 372.074524,892.073730 
	C387.324615,888.982117 403.815125,897.217896 408.911011,910.295471 
	C410.275452,913.796997 410.034271,915.933777 405.857758,916.704163 
	C402.152130,917.387695 398.756470,919.431458 394.755707,919.528809 
	C392.860870,916.135193 391.820984,912.361450 388.533447,909.966431 
	C378.915802,902.960022 365.655487,907.086975 361.712830,918.694763 
	C359.090973,926.413818 359.144867,934.406006 361.318512,942.271362 
	C363.514954,950.219116 369.035248,954.822144 377.079834,955.421387 
	C384.541412,955.977234 390.304565,952.372437 393.468781,945.474548 
	C394.727173,942.731262 396.397491,942.181946 398.977448,942.865417 
	C400.099274,943.162720 401.226685,943.444885 402.362061,943.684204 
	C411.677765,945.648071 412.169037,946.831360 407.139557,955.249329 
	C400.794525,965.869141 387.008331,972.010864 373.927094,970.143860 
	C358.572998,967.952576 348.331970,959.695435 343.840637,944.741821 
	C342.989899,941.909241 342.861359,938.859741 342.312256,935.471191 
z"/>
<path fill="#000000" opacity="1.000000" stroke="none" 
	d="
M306.445465,825.426758 
	C307.349091,828.506897 309.628662,827.929199 311.516541,827.949707 
	C318.509430,828.026001 325.506256,828.107544 332.496094,827.947021 
	C336.034760,827.865662 337.922729,828.883545 337.381226,832.763855 
	C337.198761,834.071350 337.230621,835.434692 337.356354,836.754211 
	C337.680908,840.160889 336.327972,841.524597 332.805237,841.433289 
	C325.650024,841.247864 318.483673,841.511108 311.327240,841.351135 
	C307.745148,841.271118 306.207916,842.445007 306.311584,846.228943 
	C306.683228,859.792725 304.443695,857.809143 317.884979,857.936584 
	C323.712494,857.991821 329.544342,858.061157 335.367798,857.896912 
	C338.903198,857.797241 340.457062,858.930969 340.392212,862.740417 
	C340.196381,874.238770 340.912994,872.227844 331.261841,872.323914 
	C319.273834,872.443359 307.281799,872.228516 295.295624,872.418884 
	C291.237061,872.483276 289.704010,871.164368 289.730103,866.997559 
	C289.866516,845.184814 289.847443,823.370300 289.724548,801.557312 
	C289.704102,797.931213 290.841064,796.551208 294.574310,796.595581 
	C307.893738,796.754028 321.217407,796.754395 334.536804,796.594604 
	C338.248108,796.550171 339.473358,797.873352 339.401062,801.525818 
	C339.180145,812.691956 340.239471,811.099609 329.822998,811.226990 
	C324.162231,811.296265 318.500000,811.235596 312.838470,811.254333 
	C306.360504,811.275696 306.357513,811.285645 306.363678,817.999023 
	C306.365814,820.330139 306.386932,822.661316 306.445465,825.426758 
z"/>
<path fill="#000000" opacity="1.000000" stroke="none" 
	d="
M242.351944,847.661133 
	C242.262115,854.587585 242.133026,861.088196 242.258499,867.583862 
	C242.322144,870.878906 241.350601,872.470154 237.731659,872.386536 
	C223.127151,872.049011 225.812012,874.224854 225.686493,860.748596 
	C225.506454,841.419739 225.628586,822.087952 225.621902,802.757446 
	C225.621277,800.962341 225.621841,799.167236 225.621841,796.688843 
	C239.003860,797.239075 251.974182,794.967651 264.721069,798.294373 
	C275.444183,801.092896 281.162445,809.011353 281.316895,820.370483 
	C281.473572,831.897339 275.739502,840.168335 265.424500,843.696716 
	C259.591492,845.691956 253.607727,845.289673 247.632263,845.441833 
	C245.761368,845.489441 243.488220,844.715210 242.351944,847.661133 
M256.475098,810.653015 
	C252.826324,810.523376 249.178131,810.372253 245.528549,810.272705 
	C243.583572,810.219666 242.314926,811.025146 242.312302,813.161804 
	C242.304794,819.268555 242.309662,825.375305 242.309662,831.643066 
	C246.248856,832.290466 249.702057,832.051086 253.152222,831.792480 
	C259.599823,831.309204 262.689484,829.138123 263.566528,824.507324 
	C264.817688,817.901184 262.934662,813.867493 256.475098,810.653015 
z"/>
<path fill="#000000" opacity="1.000000" stroke="none" 
	d="
M400.688232,293.332977 
	C400.848633,291.272675 400.295624,289.564667 401.056549,288.402802 
	C435.405945,307.295868 469.762451,308.796234 504.529205,290.403931 
	C506.644135,307.560303 507.154205,313.293427 490.360931,319.761810 
	C465.202393,329.452301 439.851105,327.951904 414.943451,317.994568 
	C412.647797,317.076813 410.520477,315.680542 408.421387,314.339783 
	C402.940216,310.838654 399.943756,306.030182 400.659393,299.274139 
	C400.851349,297.461761 400.688660,295.611786 400.688232,293.332977 
z"/>
<path fill="#000000" opacity="1.000000" stroke="none" 
	d="
M521.124390,394.147766 
	C518.241089,393.128845 515.683777,392.364471 513.254822,391.305450 
	C501.132690,386.020325 497.726135,379.644775 500.593292,363.060913 
	C501.210480,363.211426 501.945221,363.183685 502.389557,363.529297 
	C512.926575,371.725647 525.355164,374.198364 538.192505,375.762787 
	C547.171570,376.857086 556.076294,376.972229 565.025574,375.760986 
	C567.366089,375.444244 569.549561,375.842194 571.731262,377.050629 
	C576.658508,379.779938 580.581177,379.265625 584.201965,375.009003 
	C586.173706,372.691071 588.413879,371.422058 591.164368,370.614716 
	C596.634277,369.009186 601.111450,365.592529 605.726318,361.998291 
	C607.306885,380.184509 608.121765,385.124542 590.403625,392.054504 
	C567.867493,400.868958 544.712097,400.887085 521.124390,394.147766 
z"/>
<path fill="#000000" opacity="1.000000" stroke="none" 
	d="
M418.951813,359.982788 
	C427.094360,362.634369 435.045990,364.102325 443.189362,364.963104 
	C451.190369,365.808807 459.059143,365.609467 467.047729,364.819000 
	C475.200500,364.012329 482.841797,361.443970 491.247559,358.681183 
	C491.247559,365.492249 491.396362,371.616486 491.179443,377.727753 
	C491.083099,380.442078 488.489319,381.364532 486.410645,382.343628 
	C478.780487,385.937561 470.564819,387.483765 462.288055,388.111786 
	C446.180969,389.334015 430.425446,387.402740 415.367676,381.181183 
	C412.435028,379.969482 409.706879,378.395325 407.199341,376.410858 
	C403.421692,373.421173 401.317932,369.729858 401.665405,364.777954 
	C401.965240,360.504730 401.225769,356.177582 402.393707,350.595215 
	C407.556335,354.945618 412.672699,358.212799 418.951813,359.982788 
z"/>
<path fill="#000000" opacity="1.000000" stroke="none" 
	d="
M437.907532,355.393127 
	C428.553345,353.996613 419.859985,351.884216 411.836121,347.604736 
	C405.066315,343.994171 400.259125,339.231689 401.579529,330.624054 
	C402.075897,327.388397 401.131226,324.012604 402.094208,320.823547 
	C435.376312,338.814423 468.874969,339.977783 503.057007,323.027802 
	C503.560730,324.990326 501.733185,325.712158 500.627655,326.680420 
	C494.521942,332.027802 489.983978,338.163971 490.329285,346.775513 
	C490.429871,349.283569 488.893188,350.229126 486.957855,351.095734 
	C480.349854,354.054535 473.299011,355.643097 466.218018,356.108978 
	C456.958740,356.718201 447.599792,357.132141 437.907532,355.393127 
z"/>
<path fill="#000000" opacity="1.000000" stroke="none" 
	d="
M565.064819,892.681030 
	C582.315308,892.680359 599.075989,892.680359 615.489075,892.680359 
	C615.981812,893.681885 616.226990,893.964355 616.254211,894.266541 
	C617.436523,907.406799 617.434204,907.392334 604.317993,907.406494 
	C594.690613,907.416931 595.230103,906.395752 595.249268,916.643250 
	C595.277649,931.796692 595.123535,946.952271 595.348999,962.102478 
	C595.417847,966.729980 594.206482,968.662964 589.213928,968.472595 
	C576.331665,967.981445 578.009460,969.986938 577.943848,957.365417 
	C577.869385,943.044861 577.904480,928.723755 577.876526,914.402893 
	C577.862854,907.421875 577.846985,907.421448 571.114319,907.405701 
	C569.449097,907.401794 567.783875,907.402100 566.118652,907.400269 
	C556.886597,907.390198 554.287231,904.053650 556.914062,895.137512 
	C558.154846,890.925903 561.970093,893.384277 565.064819,892.681030 
z"/>
<path fill="#000000" opacity="1.000000" stroke="none" 
	d="
M519.408264,854.994202 
	C519.405762,860.807007 519.405762,866.121277 519.405762,871.727783 
	C514.503967,872.883118 509.869049,872.390564 505.295135,872.170654 
	C501.969635,872.010864 502.811310,869.122620 502.802765,867.144226 
	C502.732056,850.811523 502.757172,834.478394 502.744781,818.145386 
	C502.739594,811.327576 502.730194,811.329041 495.856232,811.313721 
	C492.356445,811.305908 488.856323,811.256714 485.357025,811.292419 
	C482.885773,811.317688 481.607300,810.237427 481.693024,807.702698 
	C481.704254,807.370300 481.665680,807.036621 481.666382,806.703491 
	C481.690674,794.688049 480.764618,796.771301 491.290802,796.683472 
	C506.122772,796.559692 520.957581,796.750916 535.789001,796.594849 
	C539.663574,796.554077 540.941650,797.530029 540.668335,801.719177 
	C540.044678,811.278748 540.319092,811.246460 530.497742,811.321655 
	C517.645935,811.420105 519.525391,809.716797 519.439026,822.496399 
	C519.366943,833.162415 519.415588,843.829224 519.408264,854.994202 
z"/>
<path fill="#000000" opacity="1.000000" stroke="none" 
	d="
M549.179504,344.872803 
	C553.839539,351.995605 558.305481,358.814178 562.744812,365.650116 
	C562.889771,365.873322 562.763184,366.272797 562.763184,367.288757 
	C552.239990,367.369965 541.723755,368.065796 531.252502,365.909424 
	C522.424011,364.091339 513.754761,361.879395 506.183563,356.679260 
	C497.078339,350.425476 496.213959,342.295227 504.043213,334.557709 
	C511.890778,326.802185 522.270447,324.663361 532.487976,322.263092 
	C534.691833,321.745361 535.383850,323.559387 536.247437,324.875885 
	C540.535156,331.412750 544.744446,338.001068 549.179504,344.872803 
z"/>
<path fill="#000000" opacity="1.000000" stroke="none" 
	d="
M343.771301,731.327454 
	C343.640625,739.900208 343.531342,748.034485 343.453552,756.169128 
	C343.417572,759.926453 344.753479,761.977966 349.082977,761.720276 
	C355.884247,761.315491 362.723053,761.569031 369.531097,761.238342 
	C372.628998,761.087952 374.081421,761.725952 374.243652,765.169678 
	C374.759186,776.112061 374.872314,776.120056 363.736115,776.113281 
	C353.252014,776.106873 342.766541,775.963196 332.284485,776.097961 
	C328.313843,776.148926 326.701477,774.907593 326.733582,770.659424 
	C326.899689,748.693604 326.879883,726.725342 326.724640,704.759277 
	C326.696960,700.839417 327.952759,699.478455 331.875549,699.590881 
	C345.625549,699.984863 343.699341,697.610291 343.892151,711.420227 
	C343.982758,717.908203 343.841644,724.399414 343.771301,731.327454 
z"/>
<path fill="#000000" opacity="1.000000" stroke="none" 
	d="
M832.351013,852.694092 
	C831.948730,856.590393 833.419922,857.937988 836.911133,857.830261 
	C843.729370,857.619873 850.560791,857.827820 857.378418,857.606079 
	C860.910156,857.491272 862.489319,858.495422 862.406860,862.346863 
	C862.154846,874.109741 863.354187,872.249451 852.703430,872.342957 
	C841.886353,872.437866 831.067383,872.298645 820.250122,872.382324 
	C817.231018,872.405701 815.630554,871.588074 815.644348,868.186096 
	C815.738464,845.053162 815.712646,821.919739 815.741699,798.786438 
	C815.742310,798.307983 815.938049,797.829773 816.106445,797.060547 
	C821.232605,795.328125 826.435486,796.253906 832.349792,796.863831 
	C832.349792,815.396301 832.349792,833.815063 832.351013,852.694092 
z"/>
<path fill="#000000" opacity="1.000000" stroke="none" 
	d="
M549.955139,798.245911 
	C554.665283,795.488953 559.500610,796.935852 564.214905,796.863159 
	C566.248291,796.831787 566.298889,798.680237 566.300110,800.200623 
	C566.318665,822.979858 566.301147,845.759155 566.352234,868.538269 
	C566.358337,871.280518 565.255066,872.421997 562.504089,872.387268 
	C546.641296,872.187134 549.817688,874.169678 549.707764,860.555115 
	C549.541382,839.941467 549.760193,819.324646 549.955139,798.245911 
z"/>
<path fill="#000000" opacity="1.000000" stroke="none" 
	d="
M582.538330,324.351868 
	C589.052673,326.061737 595.078064,327.926453 600.365173,331.590607 
	C609.281982,337.770325 609.849609,348.810211 601.449036,355.690613 
	C597.604858,358.839142 593.317688,361.340515 587.584778,362.479919 
	C586.399109,348.570099 579.906189,336.481628 575.860474,323.482880 
	C578.464722,322.813690 580.272888,323.826630 582.538330,324.351868 
z"/>
</svg>