<svg version="1.1" id="Layer_1" xmlns="http://www.w3.org/2000/svg" xmlns:xlink="http://www.w3.org/1999/xlink" x="0px" y="0px"
	 width="100%" viewBox="0 0 1024 1024" enable-background="new 0 0 1024 1024" xml:space="preserve">
<path fill="#000000" opacity="1.000000" stroke="none" 
	d="
M714.046143,550.523926 
	C709.585999,578.927734 691.372620,596.446045 668.840393,610.686096 
	C662.362976,614.779846 655.782776,618.699951 648.739624,621.776794 
	C644.151123,623.781372 639.540100,624.539734 634.759705,622.363403 
	C611.541931,611.793274 590.455017,598.475830 576.529968,576.249390 
	C569.844299,565.578003 566.806458,553.696960 566.711182,541.144043 
	C566.580933,523.985413 566.648193,506.825043 566.677612,489.665497 
	C566.693237,480.580994 572.460693,474.827728 581.676025,474.675171 
	C586.339478,474.597931 591.010010,474.529846 595.668396,474.700745 
	C599.105164,474.826874 600.595520,473.286743 600.611816,470.009247 
	C600.630005,466.344269 600.595642,462.678497 600.658691,459.014374 
	C600.785217,451.663696 605.038391,446.831543 612.290649,446.757721 
	C631.447266,446.562775 650.608276,446.588837 669.765381,446.763214 
	C676.386963,446.823486 680.824768,451.752930 681.223267,458.877930 
	C681.427612,462.532043 681.483643,466.221069 681.224670,469.867157 
	C680.953430,473.685272 682.565125,474.876862 686.171265,474.696289 
	C690.325439,474.488251 694.500061,474.590271 698.663269,474.677643 
	C707.815002,474.869629 713.692749,479.625854 714.426208,488.711151 
	C715.807495,505.819061 715.090698,522.983826 714.710510,540.125732 
	C714.636719,543.449951 714.340149,546.769287 714.046143,550.523926 
M624.854858,544.622742 
	C622.624878,541.934998 620.540527,539.107666 618.130798,536.592102 
	C614.501709,532.803589 611.180359,532.521912 607.545898,535.326721 
	C604.111145,537.977417 603.173340,542.028320 606.119263,545.919556 
	C612.234680,553.997498 618.565735,561.975159 625.986938,568.905701 
	C630.213867,572.853271 633.518555,572.515503 637.913513,568.731079 
	C642.617310,564.680725 646.057861,559.529602 649.900391,554.730530 
	C659.772644,542.400818 669.708740,530.121643 679.496338,517.725098 
	C682.690979,513.678833 682.507324,509.722656 679.500488,507.026703 
	C676.346191,504.198486 671.855103,504.412292 668.237549,507.747742 
	C666.532959,509.319366 664.981689,511.087280 663.537537,512.906433 
	C655.057251,523.588074 646.598511,534.287231 638.193237,545.027954 
	C631.792969,553.206543 631.833069,553.237915 624.854858,544.622742 
z"/>
<path fill="#000000" opacity="1.000000" stroke="none" 
	d="
M846.557739,421.409668 
	C843.079590,437.556885 839.660461,453.285370 836.332458,469.033112 
	C835.247314,474.167969 836.422791,475.497955 841.648254,475.990509 
	C853.282776,477.087097 864.947571,476.492340 876.597229,476.712311 
	C878.975403,476.757233 881.437744,476.778442 882.746094,479.165009 
	C884.207825,481.831299 882.547729,483.905487 881.038513,485.950623 
	C850.787781,526.943115 820.545288,567.941711 790.292786,608.932922 
	C789.504822,610.000610 788.707825,611.085571 787.765442,612.010010 
	C786.156921,613.587769 784.134888,613.750671 782.208130,612.848755 
	C780.389954,611.997803 780.327820,610.115173 780.687683,608.471802 
	C782.107239,601.988770 783.618103,595.524597 785.181091,589.074341 
	C790.381470,567.613892 795.647034,546.169128 800.823303,524.702881 
	C802.165527,519.136597 800.810242,517.541992 794.968994,517.371521 
	C782.988525,517.021851 771.007751,516.681824 759.026978,516.342224 
	C756.371521,516.266907 753.408936,516.621521 752.062012,513.635010 
	C750.789368,510.813324 752.491882,508.572235 754.111328,506.365875 
	C772.332092,481.540619 790.618958,456.763031 808.691833,431.830383 
	C821.293579,414.445435 833.590515,396.839539 846.027405,379.335052 
	C846.701721,378.385925 847.352417,377.410706 848.115112,376.535706 
	C849.657166,374.766663 851.567932,373.679718 853.842163,374.925262 
	C855.868469,376.034912 856.078796,377.995117 855.602539,380.150543 
	C852.595276,393.761230 849.630737,407.381378 846.557739,421.409668 
z"/>
<path fill="#000000" opacity="1.000000" stroke="none" 
	d="
M597.811890,299.241333 
	C613.884644,319.643585 621.599792,342.738220 621.082642,368.123138 
	C619.991638,421.676910 580.642639,464.423431 531.426147,472.459839 
	C471.491150,482.246460 419.648254,441.091003 408.704651,387.220673 
	C396.886963,329.047852 434.473694,272.023926 492.859497,261.101288 
	C534.750854,253.264359 570.004089,266.070312 597.811890,299.241333 
M567.505981,293.000092 
	C546.754578,277.448608 523.305969,272.118469 498.131470,276.756439 
	C446.859497,286.202393 414.436646,334.860748 425.473145,385.615723 
	C436.188354,434.893341 485.673157,467.508972 535.764771,454.609314 
	C581.558777,442.816406 611.556335,396.387939 602.928955,350.431091 
	C598.522034,326.955841 586.832581,308.063965 567.505981,293.000092 
z"/>
<path fill="#000000" opacity="1.000000" stroke="none" 
	d="
M728.000122,189.659607 
	C738.332092,189.661194 748.166016,189.775757 757.995178,189.609924 
	C761.935913,189.543411 765.003967,190.729919 767.811035,193.517776 
	C785.780579,211.364792 803.813110,229.148849 821.908508,246.868271 
	C824.989685,249.885406 826.283875,253.265518 826.275940,257.551331 
	C826.203430,296.879089 826.210938,336.207153 826.303345,375.534882 
	C826.310547,378.597046 825.462341,380.998596 823.435852,383.195190 
	C820.000427,386.919037 816.666992,390.736816 813.302002,394.502380 
	C811.266663,392.963623 811.885925,391.333984 811.887146,389.954163 
	C811.921936,349.793701 811.941895,309.632965 812.163025,269.473358 
	C812.187012,265.118103 811.005798,263.735901 806.549927,263.836182 
	C793.391602,264.132172 780.222595,263.964783 767.057800,263.951019 
	C765.061829,263.948944 763.051880,263.922302 761.072632,263.695374 
	C754.368469,262.926575 751.686218,259.972839 751.665588,253.249985 
	C751.621155,238.752106 751.539612,224.252731 751.712402,209.756821 
	C751.760620,205.718735 750.552307,204.166245 746.323547,204.178970 
	C708.329102,204.293228 670.333923,204.293503 632.339722,204.151245 
	C627.979370,204.134918 627.029785,205.927887 627.041992,209.808762 
	C627.155151,245.799622 627.144226,281.790863 627.164490,317.781982 
	C627.164978,318.580200 627.361023,319.458954 626.414978,320.015289 
	C624.842957,320.214569 624.650085,318.854370 624.168457,317.872223 
	C623.144104,315.783142 622.493774,313.427032 621.125488,311.604248 
	C613.875000,301.945343 612.179565,291.207031 612.497986,279.265289 
	C613.177429,253.787018 612.694275,228.277847 612.697266,202.781342 
	C612.698364,193.114868 616.173889,189.674545 626.014099,189.670029 
	C659.842773,189.654465 693.671387,189.661560 728.000122,189.659607 
z"/>
<path fill="#000000" opacity="1.000000" stroke="none" 
	d="
M252.999878,469.353455 
	C232.838196,469.352539 213.176514,469.360138 193.514832,469.345917 
	C185.581955,469.340179 183.660583,467.497101 183.658142,459.794983 
	C183.644226,415.806122 183.645187,371.817291 183.657898,327.828430 
	C183.660019,320.471832 185.454269,318.672821 192.765594,318.671997 
	C260.915009,318.664368 329.064392,318.666595 397.213806,318.684357 
	C399.019867,318.684814 400.888062,318.368896 403.196411,319.607117 
	C401.723694,324.143585 400.424805,328.883911 398.616882,333.421448 
	C397.617981,335.928375 394.871552,335.098480 392.799957,335.101868 
	C366.140198,335.145386 339.480377,335.145447 312.820557,335.144470 
	C286.993835,335.143524 261.166504,335.215790 235.341095,335.028656 
	C231.329956,334.999603 229.611404,336.210236 228.432556,340.108521 
	C224.876434,351.868195 216.852127,359.399078 204.894318,362.252655 
	C200.769165,363.237061 199.182449,364.874786 199.247528,369.282562 
	C199.498383,386.274567 199.430496,403.273163 199.282883,420.267578 
	C199.251602,423.867859 200.183594,425.214172 204.025131,426.070068 
	C216.288315,428.802277 224.832626,436.362732 228.716125,448.410492 
	C229.910934,452.117188 231.781982,452.811554 235.162766,452.796509 
	C258.489685,452.692719 281.817261,452.717987 305.144623,452.729553 
	C312.318970,452.733093 312.356873,452.773010 312.318726,459.861267 
	C312.262665,470.275879 313.351227,469.276337 302.986115,469.313507 
	C286.490875,469.372650 269.995331,469.344482 252.999878,469.353455 
z"/>
<path fill="#000000" opacity="1.000000" stroke="none" 
	d="
M670.767456,340.295654 
	C648.662781,322.556824 644.838257,292.133850 661.728760,270.615295 
	C678.354919,249.433533 708.815308,245.237030 730.056152,261.201874 
	C751.880127,277.605042 756.739624,308.140381 740.954651,329.684540 
	C724.215515,352.530975 694.331848,357.150909 670.767456,340.295654 
M724.503662,282.854584 
	C720.868591,281.260864 718.468628,283.340149 716.211792,285.699585 
	C709.651428,292.558411 703.065796,299.394531 696.603882,306.345398 
	C694.232544,308.896210 692.348816,308.926392 690.081787,306.243164 
	C687.505615,303.193878 684.750549,300.284607 681.934265,297.452728 
	C679.523804,295.028992 676.783997,294.346832 674.025574,296.972656 
	C671.421936,299.451172 671.949890,302.084595 674.109802,304.466888 
	C678.805725,309.646149 683.467957,314.869629 688.416260,319.801941 
	C692.205444,323.578949 694.794250,323.478973 698.654724,319.488190 
	C707.683411,310.154633 716.558228,300.671783 725.455017,291.211456 
	C727.996521,288.509033 728.681885,285.748199 724.503662,282.854584 
z"/>
<path fill="#000000" opacity="1.000000" stroke="none" 
	d="
M321.729675,339.775452 
	C337.841736,341.527405 350.974304,347.993225 360.288818,360.942017 
	C373.217224,378.914703 374.162720,398.079529 365.200256,418.033813 
	C364.207062,420.244965 362.703094,421.106964 360.284271,421.523468 
	C352.082062,422.935883 343.992340,424.870239 336.380829,428.404572 
	C328.252411,432.178864 320.948669,437.088470 315.737152,444.501831 
	C313.861511,447.169891 311.707062,447.621063 308.887146,447.169189 
	C285.685303,443.451172 266.027985,420.654602 265.635468,396.996521 
	C265.214752,371.635498 276.455933,353.021606 297.873108,343.931915 
	C305.315948,340.773071 313.179199,339.505005 321.729675,339.775452 
M329.016693,392.418060 
	C319.935974,389.516693 318.634979,386.608765 321.548798,375.633209 
	C323.649902,374.792999 325.588715,375.707184 327.125610,376.820770 
	C330.741882,379.440948 332.671112,377.873718 334.570099,374.647797 
	C336.857727,370.761566 333.923584,369.564789 331.475098,368.280426 
	C329.435669,367.210602 327.215332,366.311646 324.969757,365.853180 
	C322.217499,365.291229 320.260498,364.497650 320.636597,361.153046 
	C320.802246,359.680389 320.160187,358.504028 318.425201,358.476532 
	C316.975342,358.453552 315.390961,358.953186 315.553741,360.540100 
	C316.046967,365.348175 312.546814,365.583771 309.382904,366.566345 
	C298.545349,369.932129 293.476593,379.840118 297.873352,388.996674 
	C300.574707,394.622528 305.879211,396.716431 311.343445,398.448090 
	C313.087433,399.000793 315.203888,399.035187 315.230347,401.504883 
	C315.277893,405.940125 315.846161,410.416626 314.749695,414.896973 
	C309.088104,415.519989 305.403900,411.444641 300.983826,409.718506 
	C294.378326,415.789856 294.533569,417.563934 302.237457,421.330231 
	C304.899719,422.631775 307.801300,423.601746 310.701050,424.214844 
	C313.562256,424.819763 315.832703,425.407196 315.407135,429.076813 
	C315.233612,430.572937 316.039276,431.634277 317.718201,431.695587 
	C318.962555,431.741058 320.529022,431.431610 320.379181,430.101685 
	C319.734314,424.378113 324.181671,424.601013 327.619446,423.472076 
	C335.563049,420.863342 340.858459,414.841949 341.146667,407.861877 
	C341.480438,399.778900 336.574158,395.468750 329.016693,392.418060 
z"/>
<path fill="#000000" opacity="1.000000" stroke="none" 
	d="
M380.259827,239.000031 
	C380.259155,259.155273 380.271454,278.810516 380.251160,298.465759 
	C380.244232,305.166229 379.117676,306.272400 372.386902,306.290283 
	C363.891876,306.312866 355.396729,306.308197 346.901672,306.288147 
	C340.298462,306.272583 339.659302,305.669922 339.654938,299.198425 
	C339.636963,272.547211 339.653107,245.896011 339.641815,219.244812 
	C339.638824,212.208786 339.407990,211.997665 332.362152,211.946564 
	C330.363739,211.932068 328.360687,212.033722 326.367676,211.930389 
	C324.354309,211.826019 322.284912,211.584808 321.263336,209.455322 
	C320.184113,207.205643 321.683929,205.631805 322.943909,204.113571 
	C331.344055,193.991501 339.781982,183.900787 348.207367,173.799652 
	C350.446411,171.115265 352.549713,168.301529 354.956940,165.777557 
	C357.992889,162.594360 362.225647,162.585312 364.965729,166.001038 
	C375.279877,178.858383 385.501495,191.792374 395.574921,204.838852 
	C398.421875,208.526047 397.148987,211.098145 392.541473,211.756409 
	C390.578247,212.036880 388.531555,212.106827 386.562500,211.898041 
	C381.892120,211.402847 379.910736,213.044876 380.172729,218.016846 
	C380.531616,224.827194 380.260895,231.670715 380.259827,239.000031 
z"/>
<path fill="#000000" opacity="1.000000" stroke="none" 
	d="
M342.663818,437.435944 
	C366.395325,428.473267 390.033508,428.203827 413.815430,435.392181 
	C420.403198,437.383392 426.409546,440.593719 431.132050,445.819244 
	C437.968872,453.384247 438.106598,461.924347 431.272949,469.538544 
	C425.044128,476.478790 416.887970,480.239929 408.038574,482.363190 
	C385.430115,487.787689 363.225464,486.670258 341.702240,477.379547 
	C335.983368,474.910919 330.926544,471.391479 327.042877,466.448639 
	C322.482117,460.644073 322.517609,455.071228 326.900146,449.081268 
	C330.861969,443.666290 336.281158,440.222626 342.663818,437.435944 
z"/>
<path fill="#000000" opacity="1.000000" stroke="none" 
	d="
M319.053406,259.541565 
	C315.565887,262.390839 311.753937,261.169373 308.203125,261.185730 
	C304.502899,261.202820 303.242920,262.569733 303.295197,266.220154 
	C303.452667,277.209625 303.374725,288.202942 303.333862,299.194580 
	C303.311401,305.239838 302.315094,306.259094 296.397217,306.286743 
	C287.237640,306.329529 278.075775,306.182922 268.918701,306.339600 
	C264.389893,306.417023 262.632904,304.427826 262.673523,300.035034 
	C262.776733,288.877716 262.551025,277.715607 262.782898,266.562164 
	C262.870728,262.339020 261.303864,260.822357 257.265442,261.222931 
	C255.452057,261.402802 253.604065,261.267883 251.772934,261.225555 
	C249.637817,261.176208 247.207672,261.565430 246.061188,259.154327 
	C244.935532,256.786987 246.653580,254.959457 247.900711,253.284424 
	C254.361115,244.607437 260.929382,236.010773 267.461670,227.387329 
	C270.678986,223.140091 273.798187,218.813416 277.145264,214.670929 
	C281.091248,209.787170 285.301086,209.863464 289.007996,214.808304 
	C298.393951,227.328720 307.737732,239.880844 317.054993,252.452408 
	C318.514252,254.421326 320.348236,256.363525 319.053406,259.541565 
z"/>
<path fill="#000000" opacity="1.000000" stroke="none" 
	d="
M355.389282,539.921387 
	C347.028473,537.859497 339.423920,535.140015 332.563293,530.466187 
	C324.027405,524.651001 322.456726,516.329285 323.432343,505.698578 
	C340.007477,520.685486 359.995758,524.206909 380.288147,524.337158 
	C400.614960,524.467712 420.902985,521.968506 436.212616,505.567413 
	C439.514221,515.822388 436.377197,524.583984 427.470947,531.077942 
	C418.189697,537.845154 407.514221,540.713928 396.378296,542.294006 
	C382.703705,544.234253 369.192108,543.046875 355.389282,539.921387 
z"/>
<path fill="#000000" opacity="1.000000" stroke="none" 
	d="
M307.256592,874.943848 
	C307.258026,876.267639 307.265320,877.100037 307.256744,877.932312 
	C307.198944,883.546143 302.157501,886.435059 297.250977,883.720764 
	C295.589905,882.801880 295.710541,881.279358 295.708801,879.819092 
	C295.691467,865.169922 295.749542,850.520569 295.680969,835.871765 
	C295.666809,832.846985 296.973816,831.891174 299.868042,831.716736 
	C311.149658,831.036621 311.104248,830.972168 314.773529,841.882446 
	C317.181030,849.040955 319.727051,856.152832 322.234100,863.351807 
	C325.121826,862.372681 325.057678,860.267273 325.612762,858.671265 
	C328.232483,851.139282 330.920837,843.621582 333.188599,835.981201 
	C334.191772,832.601440 335.924957,831.578674 339.266510,831.657593 
	C352.495880,831.970215 350.166138,830.075195 350.317566,842.778076 
	C350.462402,854.928528 350.199799,867.084717 350.420166,879.232849 
	C350.495270,883.372864 348.783020,884.351807 345.072937,884.255676 
	C341.598602,884.165527 339.356537,883.639832 339.557648,879.324585 
	C339.844055,873.178467 339.677734,867.008972 339.610565,860.850403 
	C339.593384,859.274658 340.177979,857.491028 338.611481,856.156677 
	C336.535187,856.683838 336.604340,858.574341 336.092743,860.059082 
	C333.872345,866.502930 331.540955,872.913086 329.523285,879.420288 
	C328.510712,882.685913 327.096283,884.410828 323.279297,884.353516 
	C319.449371,884.295959 317.603668,882.861084 316.554932,879.279297 
	C314.781586,873.222656 312.648834,867.269836 310.610229,861.292786 
	C309.942230,859.334351 309.097351,857.436279 307.255066,855.718872 
	C307.255066,861.963379 307.255066,868.207886 307.256592,874.943848 
z"/>
<path fill="#000000" opacity="1.000000" stroke="none" 
	d="
M619.746460,878.651245 
	C618.773743,882.768982 616.830750,884.419495 612.625305,884.338257 
	C608.343445,884.255432 607.427795,881.788757 606.403259,878.627991 
	C603.898743,870.901794 601.234863,863.227295 598.541931,855.256165 
	C596.696716,856.388855 597.188416,857.815552 597.175598,858.943665 
	C597.095764,865.941284 597.016541,872.941589 597.128784,879.937866 
	C597.196533,884.159912 594.573853,884.351624 591.492981,884.187561 
	C588.718506,884.039795 585.613403,884.679504 585.640076,880.171387 
	C585.727844,865.341431 585.696106,850.510498 585.643250,835.680237 
	C585.633850,833.033569 586.502258,831.515076 589.374207,831.737732 
	C589.539429,831.750549 589.707397,831.735291 589.873657,831.726135 
	C601.146179,831.106506 601.143372,831.107422 604.757874,841.892944 
	C606.660156,847.569336 608.508301,853.265442 610.528381,858.899719 
	C611.055542,860.370178 611.124878,862.252136 613.020447,863.076355 
	C615.114685,862.327515 615.058228,860.231934 615.609802,858.620728 
	C618.195740,851.067139 620.830627,843.523010 623.104736,835.873413 
	C624.035095,832.743958 625.588440,831.611450 628.769653,831.672668 
	C642.615479,831.939087 640.160034,830.151367 640.314636,842.854797 
	C640.460571,854.850647 640.140076,866.854431 640.420654,878.845398 
	C640.532043,883.606750 638.374939,884.202698 634.400940,884.270386 
	C630.211731,884.341675 629.482849,882.596375 629.533142,878.883362 
	C629.652405,870.081848 630.135193,861.251404 628.783081,852.011292 
	C625.733337,861.031189 622.817017,869.656372 619.746460,878.651245 
z"/>
<path fill="#000000" opacity="1.000000" stroke="none" 
	d="
M432.267334,538.328247 
	C433.847626,537.156067 434.652161,535.521423 436.411804,535.145203 
	C439.238251,544.175720 436.879364,552.589478 429.803192,558.321716 
	C421.530243,565.023438 411.687164,568.156067 401.439209,569.771729 
	C381.479828,572.918579 361.686249,572.534729 342.484680,565.250122 
	C340.624481,564.544495 338.803650,563.684204 337.066437,562.713379 
	C325.823090,556.430054 322.406372,549.408447 324.131744,536.301147 
	C324.427826,536.208313 324.874847,535.948364 325.002014,536.058350 
	C337.907166,547.218323 353.421265,551.215698 369.932373,552.945801 
	C389.098755,554.954163 407.348511,552.286987 424.641144,543.646179 
	C427.332672,542.301270 429.853638,540.689697 432.267334,538.328247 
z"/>
<path fill="#000000" opacity="1.000000" stroke="none" 
	d="
M360.264099,493.640015 
	C379.208221,497.043304 397.404602,496.126129 415.222290,489.743713 
	C423.034058,486.945465 429.888397,482.725159 435.365265,476.209351 
	C438.523499,484.802521 436.469086,493.391876 429.910583,499.391449 
	C422.284424,506.367706 413.053619,509.957825 403.026520,511.621704 
	C383.901215,514.795227 364.935425,514.531372 346.369202,508.278381 
	C340.346680,506.250000 334.754669,503.402374 329.824921,499.221130 
	C322.911835,493.357697 321.798950,485.969391 323.371552,476.532990 
	C334.061096,486.449432 346.424316,491.221893 360.264099,493.640015 
z"/>
<path fill="#000000" opacity="1.000000" stroke="none" 
	d="
M837.985535,695.769104 
	C836.597290,689.560486 835.329285,683.753784 834.028870,677.798767 
	C837.298340,676.140991 840.476074,677.072449 843.537048,677.029785 
	C845.638794,677.000488 846.086487,678.608337 846.450378,680.399414 
	C848.003357,688.043213 849.738220,695.650085 851.280518,703.295959 
	C851.645264,705.103943 852.041321,706.827637 853.311096,708.797485 
	C855.530273,705.546570 855.636658,701.883789 856.543396,698.560242 
	C858.115784,692.797180 859.562744,686.974548 860.577942,681.093323 
	C861.290771,676.963562 863.827148,676.758118 867.066101,676.744080 
	C870.369873,676.729797 873.281311,676.563477 874.143066,680.958740 
	C875.675354,688.773682 877.601013,696.511414 879.357239,704.282532 
	C879.714355,705.862671 879.915039,707.502747 881.754395,709.500183 
	C883.023376,704.026367 884.175232,699.148743 885.280334,694.260620 
	C886.085938,690.697388 886.886719,687.131348 887.588989,683.546875 
	C888.799255,677.369080 892.140930,675.365173 898.136108,677.136292 
	C900.052490,677.702454 900.437317,678.875610 900.046875,680.524109 
	C896.411377,695.874878 892.763062,711.222595 889.079651,726.561890 
	C888.633423,728.420288 887.278687,729.260925 885.370850,729.248413 
	C883.538574,729.236450 881.679565,729.069092 879.878906,729.313538 
	C876.029358,729.836060 874.520996,727.814392 873.780151,724.437256 
	C871.759888,715.226746 869.622375,706.041992 867.223999,695.495972 
	C864.739380,705.970093 862.214844,715.035339 860.540649,724.254944 
	C859.516724,729.893860 855.923523,729.237732 852.064209,729.338745 
	C848.273376,729.437988 845.426392,729.132629 844.507568,724.351013 
	C842.690674,714.896729 840.274231,705.557739 837.985535,695.769104 
z"/>
<path fill="#000000" opacity="1.000000" stroke="none" 
	d="
M149.027618,729.291260 
	C143.358505,730.168518 142.315201,727.899658 142.438568,722.895508 
	C142.783386,708.909668 142.414490,694.906311 142.344543,680.909851 
	C142.340469,680.093567 142.489273,679.276550 142.604797,678.061462 
	C147.045135,677.157288 151.513855,677.793701 155.926666,677.638062 
	C158.521500,677.546448 158.505493,679.946655 159.057938,681.519836 
	C161.703354,689.053101 164.155975,696.654053 166.787628,704.192322 
	C167.354919,705.817261 167.365265,707.887939 169.781433,708.897888 
	C173.191574,701.811646 174.864517,694.158936 177.442719,686.853271 
	C180.717880,677.572815 183.877884,675.658630 193.781265,677.673157 
	C196.049652,678.134521 196.309814,679.478638 196.310562,681.236328 
	C196.316803,696.068420 196.291061,710.900635 196.319977,725.732666 
	C196.328430,730.069702 193.152115,729.130676 190.643631,729.263794 
	C187.984451,729.404907 185.603546,729.273621 185.643829,725.525208 
	C185.740265,716.548279 185.674988,707.569702 184.635788,698.379150 
	C181.659836,706.968140 178.589310,715.526062 175.755844,724.161804 
	C174.667084,727.480103 173.364822,729.490662 169.256577,729.478271 
	C165.204544,729.466125 163.775589,727.607788 162.706177,724.225220 
	C160.410156,716.962952 157.834473,709.789124 155.098740,701.774780 
	C153.293243,704.362732 153.366302,706.452087 153.359329,708.509888 
	C153.340118,714.176147 153.268097,719.843384 153.355789,725.508179 
	C153.398773,728.284485 152.245209,729.527771 149.027618,729.291260 
z"/>
<path fill="#000000" opacity="1.000000" stroke="none" 
	d="
M780.293030,363.275543 
	C786.022522,364.549530 787.958130,366.875336 787.257446,371.468750 
	C786.532532,376.221527 783.336487,377.420990 778.951172,377.413391 
	C739.624695,377.345154 700.298096,377.382172 660.971497,377.365326 
	C655.326843,377.362915 651.890747,374.635590 651.918396,370.337799 
	C651.946899,365.910583 655.136658,363.111389 660.887573,363.084869 
	C682.716675,362.984222 704.546448,363.002319 726.375977,363.027069 
	C744.204285,363.047272 762.032410,363.140198 780.293030,363.275543 
z"/>
<path fill="#000000" opacity="1.000000" stroke="none" 
	d="
M704.329529,867.008789 
	C704.315979,871.839600 704.233643,876.173889 704.307800,880.505554 
	C704.380554,884.751465 701.368713,884.263245 698.756836,884.145081 
	C696.165894,884.027893 692.669495,885.209839 692.679260,880.514160 
	C692.710327,865.514648 692.722656,850.514832 692.669617,835.515503 
	C692.659729,832.722046 693.931946,831.920532 696.581787,831.637939 
	C702.600159,830.996033 706.779907,832.433105 709.951233,838.355469 
	C714.626343,847.085938 720.457886,855.197021 726.655762,864.919128 
	C726.655762,854.644470 726.893982,845.880859 726.558655,837.139221 
	C726.382263,832.543030 728.189758,831.575562 732.368713,831.559509 
	C736.671509,831.542847 738.272156,832.854553 738.209656,837.277100 
	C738.011902,851.273926 738.080872,865.276123 738.212219,879.274719 
	C738.246338,882.914429 736.917419,884.107605 733.256409,884.298523 
	C727.925293,884.576721 724.387817,883.306580 721.556702,878.175049 
	C716.766174,869.491699 710.961426,861.367920 705.583008,853.008911 
	C705.165100,853.104065 704.747192,853.199158 704.329285,853.294312 
	C704.329285,857.699890 704.329285,862.105530 704.329529,867.008789 
z"/>
<path fill="#000000" opacity="1.000000" stroke="none" 
	d="
M395.226532,876.912964 
	C391.109375,882.759155 385.084381,883.620483 379.092743,884.058105 
	C373.790558,884.445435 368.438354,884.103271 363.110229,884.197449 
	C360.117371,884.250366 358.945404,882.883972 358.958771,879.964783 
	C359.025909,865.307495 358.999268,850.649780 359.057190,835.992371 
	C359.065125,833.981079 359.140656,831.738586 362.039612,831.749878 
	C368.862305,831.776367 375.738342,831.383972 382.490784,832.109802 
	C388.208527,832.724304 393.350311,835.064148 395.416565,841.477905 
	C397.516815,847.997253 395.083496,852.788025 389.944214,857.166443 
	C396.666962,862.315369 399.813141,868.474670 395.226532,876.912964 
M371.277283,866.807007 
	C371.280243,874.027527 371.812897,874.453674 378.869171,873.867493 
	C382.489227,873.566833 385.167389,872.035400 385.302704,868.295288 
	C385.432434,864.709778 382.602722,862.783325 379.476410,862.649231 
	C376.526947,862.522766 372.048950,860.112793 371.277283,866.807007 
M371.275940,847.503906 
	C371.452301,853.679626 374.385925,855.411865 380.109772,852.627563 
	C382.811005,851.313599 385.034546,849.196655 384.073486,846.052307 
	C382.703461,841.570007 378.700287,841.326782 374.735229,841.397156 
	C370.940765,841.464417 371.312012,844.165405 371.275940,847.503906 
z"/>
<path fill="#000000" opacity="1.000000" stroke="none" 
	d="
M187.286469,882.448425 
	C187.031021,866.725891 186.945816,851.424316 186.900543,836.122620 
	C186.894547,834.095581 186.943497,831.781555 189.795288,831.820862 
	C197.924118,831.932800 206.065750,831.018738 214.184296,832.369446 
	C220.508316,833.421509 224.638138,837.031860 225.872986,843.093018 
	C227.154083,849.381104 227.360184,856.047852 221.451767,860.427368 
	C218.054626,862.945435 218.660507,864.953003 220.427277,867.857544 
	C223.421280,872.779480 226.168793,877.851440 229.057465,882.926331 
	C220.686874,886.098816 216.484482,884.661133 212.710617,877.785950 
	C211.030838,874.725647 209.155991,871.766113 207.600128,868.645935 
	C206.298950,866.036560 204.427841,864.921692 201.585327,865.444336 
	C198.343018,866.040466 199.347153,868.670471 199.233261,870.642334 
	C199.089661,873.129089 198.990463,875.658325 199.279205,878.121521 
	C199.852341,883.010681 197.786697,884.879395 193.050354,884.206909 
	C191.143860,883.936218 188.990097,884.739441 187.286469,882.448425 
M206.179230,841.331177 
	C203.980515,841.628235 200.851044,840.159363 199.808212,842.639038 
	C198.405609,845.974182 198.489700,849.972290 199.751144,853.338013 
	C200.819046,856.187378 204.109802,854.831482 206.455505,854.951172 
	C210.827057,855.174255 213.920853,853.397705 214.534851,848.753601 
	C215.040497,844.929016 212.180176,842.224976 206.179230,841.331177 
z"/>
<path fill="#000000" opacity="1.000000" stroke="none" 
	d="
M454.694092,835.205933 
	C454.775269,832.966797 455.601959,831.813782 457.430756,831.839539 
	C465.725922,831.956116 474.049561,830.883240 482.307098,832.650940 
	C488.766296,834.033569 492.475342,838.080566 493.847260,844.308228 
	C495.219727,850.538330 494.345184,856.462036 489.095856,860.607117 
	C486.048615,863.013245 486.520874,864.797058 488.188141,867.644653 
	C491.164825,872.728638 494.641022,877.603760 496.648132,883.316772 
	C486.891785,885.820435 484.719757,884.936218 480.466949,877.202454 
	C478.782806,874.139771 476.862640,871.199829 475.304565,868.076965 
	C473.741180,864.943542 471.157227,865.110596 468.474609,865.619995 
	C465.560791,866.173340 466.449951,868.644958 466.369385,870.490234 
	C466.253265,873.149597 466.098419,875.845825 466.398224,878.476440 
	C466.945404,883.277588 464.732147,884.321228 460.343262,884.316895 
	C456.054321,884.312683 454.499115,883.137390 454.577942,878.650146 
	C454.829498,864.332764 454.671539,850.008057 454.694092,835.205933 
M473.264771,841.335571 
	C466.351227,841.376953 466.222504,841.380676 466.419830,848.161865 
	C466.487946,850.502930 464.868317,854.230286 468.814941,854.672791 
	C473.065643,855.149414 477.988953,856.458069 481.183777,852.003357 
	C484.439697,847.463440 480.915131,842.287598 473.264771,841.335571 
z"/>
<path fill="#000000" opacity="1.000000" stroke="none" 
	d="
M670.328186,807.327759 
	C663.118774,808.691162 658.954468,805.808838 656.509094,799.487976 
	C655.380981,796.572266 653.366272,794.011414 651.931763,791.198853 
	C650.523438,788.437500 648.244995,788.079407 645.605774,788.566772 
	C642.690796,789.104858 643.453796,791.514099 643.380188,793.373474 
	C643.268372,796.198730 643.094055,799.058105 643.394531,801.854797 
	C643.885315,806.423889 641.848083,807.518555 637.623291,807.417297 
	C633.695190,807.323242 631.461731,806.804138 631.549561,802.018127 
	C631.806091,788.041809 631.719482,774.056946 631.579407,760.077209 
	C631.543701,756.514221 632.646301,754.836975 636.386414,754.957642 
	C643.529663,755.188232 650.689148,754.593994 657.820618,755.616394 
	C664.002930,756.502686 668.313110,759.584167 670.219055,765.634216 
	C672.317261,772.294678 671.970520,778.914246 666.431885,783.506653 
	C662.803772,786.515015 663.338501,788.463318 665.424255,791.658508 
	C667.965271,795.550964 670.116333,799.698669 672.419250,803.745544 
	C673.533508,805.703674 673.763489,807.286377 670.328186,807.327759 
M643.909363,765.562805 
	C642.797668,768.972595 643.510742,772.474243 643.414429,775.933044 
	C643.372009,777.457397 644.170105,778.527283 645.790955,778.535767 
	C648.438049,778.549500 651.161194,778.789001 653.712769,778.260315 
	C656.427795,777.697632 658.407471,775.883118 658.674072,772.760315 
	C658.939941,769.647095 657.995972,767.138733 655.116577,765.704163 
	C651.705017,764.004395 648.124329,763.872253 643.909363,765.562805 
z"/>
<path fill="#000000" opacity="1.000000" stroke="none" 
	d="
M388.081238,773.739868 
	C385.804810,775.962280 383.758850,777.881592 381.759918,779.756714 
	C383.975220,783.795105 384.017700,783.843140 388.488495,787.236755 
	C389.770538,780.195862 393.541809,776.808533 401.107819,779.319885 
	C401.649078,783.956055 400.013794,788.385254 397.681549,792.241455 
	C395.646576,795.606079 396.466614,797.513367 398.805115,799.967529 
	C400.433502,801.676453 402.728821,803.139587 402.896027,806.287537 
	C399.313904,807.477173 395.253693,808.066589 392.322296,806.313721 
	C388.761841,804.184631 386.317291,805.126160 383.247345,806.589783 
	C378.575684,808.817017 373.514984,808.849915 368.551361,808.025024 
	C362.643005,807.043030 358.205811,803.646118 356.982605,797.700012 
	C355.695526,791.443604 356.476746,785.344360 362.203766,781.053650 
	C363.394104,780.161804 364.599274,779.289856 366.050781,778.222595 
	C363.461365,773.669006 360.970337,769.144226 362.734924,763.704163 
	C363.596771,761.047180 365.182709,759.036377 367.438324,757.447571 
	C372.882843,753.612732 382.108978,753.631348 386.665283,757.529541 
	C391.017517,761.253113 391.634705,767.216064 388.081238,773.739868 
M375.802643,788.809326 
	C374.739319,787.796082 374.086060,786.315308 372.338196,785.844482 
	C368.930817,787.256592 367.202820,790.032410 367.587708,793.625000 
	C367.886505,796.414001 369.884399,798.373474 372.741608,799.117981 
	C376.387878,800.067993 379.081238,798.651733 381.422607,795.654236 
	C379.607697,793.429016 377.932312,791.374939 375.802643,788.809326 
M373.095428,770.098083 
	C374.291321,771.471130 374.892761,774.096680 377.529175,772.727539 
	C379.840240,771.527283 381.362946,769.401306 381.340393,766.786926 
	C381.321503,764.602173 379.607574,763.279053 377.532898,762.807068 
	C373.829346,761.964600 372.059418,764.474670 373.095428,770.098083 
z"/>
<path fill="#000000" opacity="1.000000" stroke="none" 
	d="
M250.651855,720.940796 
	C250.653534,707.793579 250.756210,695.135742 250.594971,682.481262 
	C250.548035,678.797363 251.814362,677.459534 255.495651,677.581116 
	C261.983582,677.795288 268.485077,677.560791 274.977600,677.685059 
	C281.812500,677.815857 286.974152,681.350525 288.990509,687.014954 
	C291.655640,694.501892 290.317108,702.000671 284.788940,706.113647 
	C281.578033,708.502747 282.136932,710.291626 283.852478,713.057800 
	C286.656158,717.578552 289.150055,722.292358 291.726135,726.951538 
	C291.928711,727.317993 291.752777,727.893738 291.752777,728.341370 
	C283.032013,731.066162 280.088623,729.929810 276.000763,722.499207 
	C274.236511,719.292236 272.287781,716.187378 270.466583,713.010986 
	C269.141388,710.699646 267.221405,710.533020 264.880432,711.130188 
	C262.520355,711.732239 262.341705,713.439819 262.349060,715.366272 
	C262.359283,718.030762 262.363281,720.695435 262.339752,723.359802 
	C262.293335,728.613892 256.616852,731.783264 252.122971,728.830933 
	C249.449890,727.074829 251.053711,723.934021 250.651855,720.940796 
M273.487030,687.590820 
	C271.338348,687.396851 269.190430,687.066223 267.040741,687.054016 
	C265.448120,687.044983 263.188171,686.748169 262.765961,688.743530 
	C262.012726,692.303650 261.401733,696.268311 263.036835,699.496338 
	C264.250214,701.891907 267.624146,700.513550 270.032440,700.617249 
	C273.484406,700.765686 276.440063,699.455933 277.474304,695.980591 
	C278.455414,692.683594 277.602966,689.685181 273.487030,687.590820 
z"/>
<path fill="#000000" opacity="1.000000" stroke="none" 
	d="
M683.953247,726.618408 
	C681.260559,731.143616 677.245911,729.261108 673.963623,728.908386 
	C670.752747,728.563416 671.929993,725.233948 671.837769,723.088440 
	C671.673340,719.263367 671.679993,715.424622 671.787048,711.596313 
	C671.867981,708.699646 670.850891,707.325500 667.751648,707.380737 
	C650.239258,707.692810 653.710144,704.946106 653.320679,720.765869 
	C653.300171,721.598328 653.320740,722.431824 653.314575,723.264709 
	C653.275513,728.572449 647.465027,731.698792 642.699097,729.008972 
	C641.202209,728.164185 641.504944,726.803833 641.507568,725.504639 
	C641.536804,711.011536 641.732910,696.515869 641.507141,682.026794 
	C641.432861,677.263123 643.934937,677.021362 647.461060,677.042603 
	C650.943665,677.063660 653.805664,677.182190 653.392639,682.019165 
	C653.053650,685.987671 653.387695,690.010254 653.327332,694.007385 
	C653.291931,696.355652 654.295166,697.297668 656.647522,697.199463 
	C660.307434,697.046570 663.975342,697.012695 667.638855,697.045044 
	C670.608154,697.071289 671.830078,695.706787 671.742004,692.767090 
	C671.632324,689.105530 671.974060,685.417419 671.672058,681.778015 
	C671.279236,677.044128 673.983154,676.731934 677.570618,676.806274 
	C681.048828,676.878296 684.222473,676.458618 684.146179,681.681763 
	C683.929626,696.505310 684.035767,711.333435 683.953247,726.618408 
z"/>
<path fill="#000000" opacity="1.000000" stroke="none" 
	d="
M816.656860,677.871765 
	C829.132812,681.887939 833.140259,694.649780 831.699707,707.658691 
	C830.161804,721.546631 824.365540,727.556396 812.085876,729.938293 
	C800.889587,732.110046 790.038147,725.780457 786.549805,714.936768 
	C784.250244,707.788574 784.140442,700.573975 786.279175,693.343262 
	C790.178101,680.161316 802.255127,673.870667 816.656860,677.871765 
M819.490112,709.618652 
	C819.704712,704.332336 820.546692,698.977539 818.399658,693.885315 
	C816.552979,689.505554 813.222778,687.043396 808.367004,687.046021 
	C803.508118,687.048645 800.102112,689.442932 798.445374,693.942749 
	C796.764038,698.509521 796.405334,703.226807 797.197815,708.113525 
	C798.292786,714.864502 801.680481,719.101013 806.934814,719.616272 
	C812.916687,720.202942 816.807678,717.298340 819.490112,709.618652 
z"/>
<path fill="#000000" opacity="1.000000" stroke="none" 
	d="
M476.686340,686.487244 
	C480.949219,693.840210 482.361298,701.323730 480.602448,709.332703 
	C477.849884,721.866516 470.271271,728.457886 457.328583,729.232605 
	C452.519470,729.520386 447.678253,729.226379 442.855042,729.340332 
	C439.973846,729.408386 438.610016,728.398193 438.628571,725.315369 
	C438.716766,710.672241 438.679657,696.028198 438.678528,681.384521 
	C438.678375,679.372192 439.045959,677.673523 441.586548,677.699097 
	C448.403290,677.767761 455.270599,677.365784 462.020935,678.074280 
	C467.727814,678.673218 472.750854,681.521729 476.686340,686.487244 
M450.356201,692.999878 
	C450.356018,700.130432 450.351074,707.260925 450.358612,714.391479 
	C450.360748,716.419434 450.310608,718.349915 453.048676,718.931213 
	C458.678101,720.126221 465.420288,717.048035 467.466949,711.663391 
	C469.520935,706.259460 469.633179,700.585632 467.475555,695.160828 
	C465.370911,689.869263 460.544220,687.245911 454.817322,687.312195 
	C451.349426,687.352417 449.944336,688.780701 450.356201,692.999878 
z"/>
<path fill="#000000" opacity="1.000000" stroke="none" 
	d="
M298.140625,689.485840 
	C303.518097,679.525085 313.481781,674.791260 323.844696,677.004822 
	C334.546143,679.290649 341.487671,687.418396 342.236359,699.021667 
	C342.556335,703.980286 342.667572,708.974976 341.206085,713.891541 
	C337.586823,726.067749 327.591492,730.923401 317.257233,730.072021 
	C304.969818,729.059692 296.463257,720.471008 295.742493,708.981201 
	C295.336761,702.513306 295.113800,695.967712 298.140625,689.485840 
M310.343597,690.947327 
	C306.559509,697.569702 306.469513,704.597290 308.426910,711.689880 
	C309.882233,716.963318 313.842255,719.698425 319.111389,719.670776 
	C324.391083,719.643066 327.900421,716.801025 329.520233,711.358459 
	C331.032532,706.277283 330.912903,701.225830 329.587860,696.129089 
	C327.145416,686.734436 318.269531,683.991760 310.343597,690.947327 
z"/>
<path fill="#000000" opacity="1.000000" stroke="none" 
	d="
M749.279541,396.676758 
	C753.538574,404.017426 750.674133,409.289734 742.774048,409.302063 
	C715.443909,409.344635 688.113647,409.337799 660.783447,409.321228 
	C655.362244,409.317932 651.872314,406.398407 651.894043,402.043396 
	C651.916931,397.458740 655.007812,394.781372 660.806030,394.769623 
	C688.136047,394.714294 715.466248,394.746246 742.796387,394.745117 
	C745.002075,394.745026 747.111572,395.092743 749.279541,396.676758 
z"/>
<path fill="#000000" opacity="1.000000" stroke="none" 
	d="
M407.855347,877.968384 
	C404.760468,873.528564 403.942657,868.767151 403.857819,863.929626 
	C403.697327,854.778809 404.023712,845.616699 403.739960,836.471863 
	C403.590240,831.646301 406.301910,831.609863 409.761169,831.602600 
	C413.353210,831.595032 416.311432,831.524658 416.173889,836.628113 
	C415.927460,845.773560 416.073944,854.934143 416.244019,864.084900 
	C416.377380,871.260742 419.477478,874.697388 425.342163,874.641724 
	C431.176788,874.586365 434.450317,871.047913 434.593750,864.009705 
	C434.780182,854.859619 434.869781,845.695984 434.567505,836.552429 
	C434.412140,831.853088 436.827637,831.535583 440.420685,831.593323 
	C443.846497,831.648438 446.543884,831.561707 446.400604,836.416077 
	C446.106110,846.393127 446.443542,856.387085 446.291748,866.370544 
	C446.136505,876.580017 440.767029,882.706299 430.540710,884.447571 
	C422.146729,885.876892 414.274323,885.021362 407.855347,877.968384 
z"/>
<path fill="#000000" opacity="1.000000" stroke="none" 
	d="
M561.843750,683.029907 
	C563.014954,675.926819 568.254639,677.405884 572.729492,676.915955 
	C577.523376,676.391174 578.517883,679.438354 579.691833,682.928162 
	C584.297485,696.619629 589.035767,710.266479 593.728333,723.928711 
	C594.261169,725.480042 594.953796,727.000122 594.681396,728.768188 
	C591.654480,729.784546 588.650452,729.207947 585.690491,729.291870 
	C583.343384,729.358398 582.420837,727.695923 582.093201,725.850586 
	C581.100708,720.261475 577.477112,718.616150 572.346069,718.880981 
	C570.023376,719.000916 567.691162,718.942810 565.363281,718.951599 
	C563.091248,718.960144 561.823730,720.049377 560.935852,722.198486 
	C557.628601,730.203857 556.841980,730.524536 546.792236,728.563232 
	C551.789307,713.448486 556.755188,698.428162 561.843750,683.029907 
M567.744995,699.182190 
	C567.203064,701.084961 566.656006,702.986328 566.120422,704.890869 
	C565.333435,707.689270 567.001343,708.570679 569.277344,708.546753 
	C571.572388,708.522705 575.235657,709.666992 575.287415,706.166260 
	C575.350159,701.917786 574.205383,697.535034 571.097717,694.279236 
	C568.643921,695.162048 568.540527,696.948853 567.744995,699.182190 
z"/>
<path fill="#000000" opacity="1.000000" stroke="none" 
	d="
M681.750977,884.195435 
	C672.613342,884.216675 663.949158,884.084717 655.292114,884.276917 
	C651.339478,884.364624 649.582031,883.226929 649.642822,878.928772 
	C649.840820,864.940186 649.804443,850.946106 649.653809,836.956360 
	C649.613281,833.194763 650.670044,831.511841 654.725647,831.626160 
	C662.880737,831.856201 671.051331,831.853027 679.206787,831.628540 
	C683.319397,831.515381 684.273254,833.348267 684.261658,837.038574 
	C684.250183,840.692993 683.383972,842.755554 679.226318,842.426147 
	C676.081360,842.177002 672.900757,842.375916 669.736023,842.379089 
	C661.478333,842.387207 661.229065,842.696899 662.529419,851.656738 
	C667.284546,853.041870 672.279175,852.712646 677.193665,852.493408 
	C680.668457,852.338440 681.519836,853.750488 681.378418,856.864624 
	C681.244690,859.808228 681.592285,862.678650 677.172302,862.425842 
	C673.520142,862.217102 669.842468,862.494629 666.182495,862.370605 
	C660.875305,862.190674 662.288513,866.093262 661.979187,869.004150 
	C661.619507,872.389648 663.215271,873.267334 666.406738,873.095337 
	C671.056091,872.844727 675.731018,873.010376 680.393555,873.088074 
	C682.507812,873.123230 685.310303,872.818604 685.111572,876.005615 
	C684.932312,878.880005 687.396545,882.980164 681.750977,884.195435 
z"/>
<path fill="#000000" opacity="1.000000" stroke="none" 
	d="
M412.010834,729.319946 
	C408.020142,729.313232 404.525574,729.251526 401.033447,729.317810 
	C398.529938,729.365295 397.511139,728.365967 397.501007,725.763672 
	C397.446075,711.629761 397.166290,697.496460 397.157532,683.362854 
	C397.153534,676.903992 397.354889,676.902954 404.031494,676.892822 
	C411.517639,676.881470 419.010773,677.062622 426.487305,676.789429 
	C430.891022,676.628418 431.261810,678.986145 431.282593,682.398682 
	C431.303223,685.786499 431.008453,688.344849 426.608429,688.130493 
	C422.293365,687.920349 417.958069,688.162964 413.635925,688.047424 
	C410.408386,687.961121 409.204987,689.366882 409.288544,692.553284 
	C409.367035,695.548584 409.676422,697.814941 413.549072,697.673828 
	C418.313873,697.500122 423.089874,697.632324 427.723145,697.632324 
	C428.058411,698.791016 428.285217,699.248718 428.312683,699.718018 
	C428.798340,708.023865 428.686218,708.140198 420.473938,708.119507 
	C418.810364,708.115295 417.128052,708.248169 415.486908,708.049377 
	C410.740448,707.474182 408.966461,709.320435 409.214722,714.205566 
	C409.397400,717.800171 410.711456,718.801758 414.032959,718.682007 
	C418.850494,718.508362 423.683563,718.785461 428.503174,718.641846 
	C432.677917,718.517456 432.322815,721.312195 432.342255,724.010254 
	C432.361969,726.744324 432.628662,729.470276 428.477386,729.348328 
	C423.158539,729.191956 417.831512,729.316223 412.010834,729.319946 
z"/>
<path fill="#000000" opacity="1.000000" stroke="none" 
	d="
M496.917114,788.272827 
	C498.913605,794.600830 501.557404,800.337158 502.684113,806.594543 
	C499.315002,807.827942 496.309998,807.239929 493.354401,807.250305 
	C490.717621,807.259583 490.054108,805.165894 489.714600,803.218994 
	C488.825928,798.123291 485.888580,796.234558 480.909943,796.954529 
	C479.605621,797.143066 478.230957,797.103088 476.918732,796.934082 
	C471.680176,796.259460 468.147949,797.811707 467.559601,803.638489 
	C467.266083,806.545288 465.396362,807.533264 462.664246,807.316772 
	C460.216003,807.122681 457.674194,807.838684 455.340149,806.617798 
	C454.649384,804.811401 455.572601,803.274963 456.072205,801.749817 
	C460.629395,787.837463 465.362488,773.981689 469.791595,760.029175 
	C470.942719,756.402954 472.538147,755.021118 476.534729,755.361694 
	C485.657654,756.139099 485.675842,755.908630 488.760895,764.810852 
	C491.429047,772.510315 494.101105,780.208435 496.917114,788.272827 
M480.990143,775.557617 
	C480.384247,773.772339 480.022858,771.850342 478.404449,770.402100 
	C476.572235,773.019409 475.980133,775.787292 475.124908,778.448242 
	C472.454132,786.757874 473.503448,787.913025 482.322357,786.335327 
	C482.613800,786.283264 482.860535,785.981262 483.332611,785.654053 
	C483.927155,782.338074 481.791840,779.455322 480.990143,775.557617 
z"/>
<path fill="#000000" opacity="1.000000" stroke="none" 
	d="
M246.236969,868.831909 
	C246.073578,872.553162 248.160355,873.053772 250.784531,873.034790 
	C255.613892,872.999939 260.447937,873.168457 265.272278,873.012451 
	C269.691284,872.869568 269.337402,875.781433 269.368256,878.698303 
	C269.400208,881.723328 269.440887,884.348694 265.118866,884.269409 
	C256.128845,884.104492 247.132858,884.191040 238.140305,884.277161 
	C235.455826,884.302856 234.087753,883.307495 234.091171,880.528625 
	C234.110764,864.570862 234.100693,848.613037 234.100693,832.767639 
	C238.140320,830.946045 241.661896,831.790222 245.061981,831.718445 
	C251.554031,831.581482 258.053162,831.790833 264.545837,831.669434 
	C268.754791,831.590759 268.295319,834.429810 268.325897,837.102051 
	C268.357391,839.855225 268.574951,842.603394 264.423950,842.393799 
	C261.101898,842.226013 257.764008,842.372742 254.433136,842.378662 
	C245.601730,842.394409 245.601730,842.394165 246.636093,851.656311 
	C252.514114,853.320740 258.681061,852.184937 264.570404,852.606812 
	C264.919220,853.042725 265.276733,853.281372 265.301788,853.550964 
	C266.123322,862.390564 266.118591,862.390869 257.428101,862.390930 
	C255.762650,862.390991 254.074219,862.570862 252.436142,862.359558 
	C247.738556,861.753479 245.461502,863.468384 246.236969,868.831909 
z"/>
<path fill="#000000" opacity="1.000000" stroke="none" 
	d="
M577.209473,841.410461 
	C571.337219,843.050476 565.664551,842.279907 560.037964,842.298523 
	C556.154846,842.311340 555.340637,844.078003 555.261658,847.518188 
	C555.180115,851.069702 556.126038,852.784119 559.972534,852.614441 
	C564.772339,852.402832 569.588501,852.563599 574.165283,852.563599 
	C575.911316,854.645996 575.130066,856.720154 575.299316,858.639709 
	C575.550964,861.494019 574.051514,862.443848 571.393982,862.392639 
	C567.398560,862.315552 563.397400,862.490906 559.403809,862.378540 
	C555.454041,862.267395 555.322632,864.780212 555.322388,867.678772 
	C555.322144,870.539368 555.317017,873.096619 559.322571,873.013184 
	C564.316223,872.909058 569.317444,873.145813 574.310120,873.021667 
	C577.958740,872.930908 578.952332,874.603027 578.464478,877.955078 
	C578.049622,880.805969 579.701294,884.515991 574.210571,884.306030 
	C565.728333,883.981750 557.222412,884.048157 548.732971,884.237793 
	C544.735107,884.327026 543.568481,882.696350 543.608154,878.906250 
	C543.754761,864.917542 543.800781,850.924438 543.586975,836.937439 
	C543.521851,832.679382 545.124268,831.482971 549.128418,831.620483 
	C556.115234,831.860291 563.116333,831.680969 570.111450,831.682434 
	C578.552734,831.684204 578.947449,832.187683 577.209473,841.410461 
z"/>
<path fill="#000000" opacity="1.000000" stroke="none" 
	d="
M618.307129,786.045166 
	C613.881348,786.095154 609.883667,786.163757 605.886719,786.133240 
	C601.651855,786.100891 602.361267,789.149170 602.260925,791.751892 
	C602.155701,794.483765 602.378174,796.762451 606.091309,796.657043 
	C610.917480,796.520020 615.766785,796.891174 620.576721,796.583435 
	C624.950134,796.303650 625.423523,798.599182 625.391663,802.069580 
	C625.361938,805.298645 625.026611,807.488098 620.882080,807.380432 
	C612.226379,807.155518 603.560486,807.262268 594.899597,807.334839 
	C592.069641,807.358521 590.614502,806.481323 590.632751,803.347839 
	C590.719177,788.523804 590.713745,773.698730 590.629944,758.874573 
	C590.612976,755.867188 591.770874,754.737610 594.760376,754.776550 
	C603.253906,754.887207 611.752747,754.947266 620.243591,754.760437 
	C624.737549,754.661560 624.231873,757.541504 624.341797,760.418091 
	C624.462708,763.583069 624.155212,766.130005 620.004272,765.909546 
	C615.684448,765.680054 611.356628,765.598022 607.031982,765.462463 
	C602.949341,765.334473 602.224854,767.690125 602.184814,771.250427 
	C602.143311,774.947327 603.761292,775.807800 607.029480,775.678711 
	C611.508850,775.501831 616.000488,775.634521 621.443420,775.634521 
	C620.183350,779.378174 624.216248,783.527954 618.307129,786.045166 
z"/>
<path fill="#000000" opacity="1.000000" stroke="none" 
	d="
M524.896057,797.926086 
	C528.244629,797.655579 531.149414,797.196411 531.600220,793.539185 
	C532.071350,789.716370 529.354126,788.325684 526.362183,787.314941 
	C523.054810,786.197510 519.684875,785.251587 516.420959,784.022095 
	C508.952820,781.208862 505.270172,776.080383 505.793549,769.484436 
	C506.384827,762.032715 510.651825,756.970520 518.306702,755.223572 
	C523.739075,753.983826 529.244324,754.206909 534.521729,756.154785 
	C539.008240,757.810730 542.050049,760.888184 543.025940,766.046692 
	C540.316406,768.392151 536.795715,768.720154 533.568237,770.318420 
	C531.255554,766.263000 528.460938,763.669128 523.773743,764.364380 
	C521.083679,764.763367 518.918884,765.742798 518.386414,768.673950 
	C517.885803,771.430176 519.449524,773.224609 521.759460,774.150391 
	C525.146484,775.508057 528.694519,776.457642 532.125183,777.714294 
	C541.241333,781.053589 545.285278,786.640198 544.202148,794.249023 
	C543.006042,802.651611 536.459656,808.043213 526.846069,808.309448 
	C519.313171,808.518066 512.112610,807.487000 507.178345,800.870789 
	C505.723175,798.919617 503.903107,796.489380 507.329498,794.613098 
	C509.941986,793.182556 512.460266,789.503540 515.643433,794.162231 
	C517.679504,797.142090 520.997131,797.926819 524.896057,797.926086 
z"/>
<path fill="#000000" opacity="1.000000" stroke="none" 
	d="
M797.095398,832.713379 
	C803.462769,830.278748 809.497314,830.355347 815.552979,832.295654 
	C817.976318,833.072083 820.281189,834.211060 821.732605,836.322998 
	C823.180359,838.429749 826.453186,840.524353 823.281128,843.478149 
	C820.164734,846.380066 815.895813,846.258423 813.516724,843.531067 
	C811.905640,841.684204 810.030518,840.427185 807.517822,840.415955 
	C804.316956,840.401672 801.336365,841.149902 800.473389,844.669861 
	C799.640625,848.066589 801.879333,849.984680 804.740051,851.071411 
	C808.315796,852.429749 812.017456,853.457336 815.588867,854.825745 
	C823.135620,857.717102 826.957458,863.414062 826.255859,870.460266 
	C825.520020,877.850708 820.092651,883.068665 812.140686,884.402405 
	C805.679504,885.486145 799.560486,884.926453 793.780457,881.679504 
	C790.431091,879.797852 787.118408,877.037292 787.310059,873.408142 
	C787.490845,869.983215 791.938171,869.348022 795.015137,867.584656 
	C798.112061,872.276672 801.981506,875.365662 807.832886,874.644287 
	C810.673889,874.294006 813.113403,873.352722 813.688110,870.195068 
	C814.230896,867.212158 812.436829,865.429749 809.920471,864.464722 
	C806.352966,863.096680 802.728271,861.850403 799.064575,860.766541 
	C792.449829,858.809692 788.241760,854.588013 787.863586,847.678345 
	C787.499695,841.028442 790.240051,835.683167 797.095398,832.713379 
z"/>
<path fill="#000000" opacity="1.000000" stroke="none" 
	d="
M507.582825,833.216919 
	C514.521362,830.382507 521.162842,830.169861 527.899414,832.534668 
	C530.159180,833.327881 532.270447,834.377625 533.669067,836.297119 
	C535.201599,838.400391 538.257141,840.531738 535.299988,843.473450 
	C532.424866,846.333435 527.814026,846.246643 525.505371,843.599121 
	C523.625610,841.443481 521.359253,840.297119 518.502686,840.414124 
	C515.428589,840.539978 512.788208,841.650269 511.992157,844.834473 
	C511.184387,848.065857 513.553833,849.787231 516.063538,850.850220 
	C520.343994,852.663208 524.800659,854.057129 529.101929,855.824951 
	C535.200928,858.331665 538.107178,863.175537 537.848755,869.598816 
	C537.582947,876.205383 534.073059,880.977234 527.860901,883.236267 
	C520.149048,886.040466 512.447693,885.644104 505.209167,881.571045 
	C502.088837,879.815186 498.914612,877.040588 499.165894,873.534668 
	C499.418030,870.017029 503.631439,869.276672 506.756897,867.755981 
	C509.582428,871.877563 512.828674,874.985352 518.187500,874.695435 
	C521.609924,874.510315 524.729858,873.808350 525.491882,870.068542 
	C526.206116,866.563599 523.372009,865.055725 520.684387,863.999756 
	C517.440735,862.725220 514.085754,861.726562 510.757629,860.676208 
	C504.695618,858.763123 500.474884,855.077026 499.765198,848.500183 
	C499.064056,842.002991 501.216583,836.689697 507.582825,833.216919 
z"/>
<path fill="#000000" opacity="1.000000" stroke="none" 
	d="
M623.083984,716.262695 
	C624.073792,712.215942 621.245911,710.850281 618.763794,709.705383 
	C615.613831,708.252441 612.188660,707.406616 608.915161,706.208984 
	C600.388123,703.089478 597.198914,698.679199 597.669556,690.776611 
	C598.100708,683.535095 602.693604,678.493469 611.159241,677.069946 
	C618.540466,675.828796 625.940552,676.152527 631.501648,682.208008 
	C633.176697,684.031982 636.211121,687.064392 632.653564,689.135132 
	C630.126709,690.605957 626.455688,694.994873 623.077026,689.326538 
	C621.216309,686.204895 617.860046,686.006042 614.606384,686.491882 
	C612.040283,686.875061 610.449158,688.664307 609.880005,691.071838 
	C609.329407,693.401245 610.999695,695.007568 612.789001,695.784363 
	C617.040466,697.630127 621.510071,698.967285 625.797852,700.736938 
	C631.203979,702.968384 635.070984,706.533997 635.341797,712.892517 
	C635.830200,724.361389 628.806641,730.697998 615.609619,730.265869 
	C608.787170,730.042480 602.408508,728.380737 598.246887,722.198364 
	C596.814209,720.070068 595.829529,717.806885 599.003540,716.519653 
	C601.451355,715.526978 603.443298,711.357483 606.913574,715.639648 
	C611.900940,721.793823 618.262207,721.953308 623.083984,716.262695 
z"/>
<path fill="#000000" opacity="1.000000" stroke="none" 
	d="
M229.471924,711.117310 
	C217.422333,711.734131 217.224930,711.737244 217.408478,723.428772 
	C217.480042,727.987793 216.097870,729.459717 211.490555,729.455200 
	C206.868881,729.450684 205.482742,727.902283 205.559555,723.390869 
	C205.788956,709.921570 205.759018,696.443665 205.550873,682.973450 
	C205.487091,678.845886 206.846420,677.363892 210.978851,677.570374 
	C216.620392,677.852356 222.286896,677.596680 227.941666,677.661377 
	C237.099060,677.766174 243.363922,682.740784 244.289429,690.549500 
	C245.631012,701.868713 241.475967,708.301514 231.340652,710.608093 
	C230.855194,710.718567 230.383774,710.890686 229.471924,711.117310 
M217.329437,691.802429 
	C217.331528,701.266418 219.115479,702.829163 227.352402,700.823730 
	C230.798996,699.984619 232.572922,697.632996 232.414673,694.438171 
	C232.212433,690.354614 229.730499,687.484680 225.463287,687.526611 
	C222.515030,687.555542 218.029251,685.131897 217.329437,691.802429 
z"/>
<path fill="#000000" opacity="1.000000" stroke="none" 
	d="
M518.210327,716.833008 
	C525.620178,721.161621 530.050659,720.347778 534.881836,714.061523 
	C536.474304,711.989441 542.192993,711.942078 545.021851,714.076172 
	C547.829895,716.194702 545.751282,718.340942 544.714417,720.200134 
	C540.607056,727.564453 533.604431,730.090881 525.816345,730.171936 
	C517.459839,730.258911 509.913605,727.697998 505.650177,719.730408 
	C500.014008,709.197266 499.996704,698.259827 505.093689,687.630127 
	C508.752930,679.998779 515.840576,677.059326 523.964661,676.713013 
	C532.658203,676.342468 540.075134,679.042297 544.852051,686.791809 
	C545.945984,688.566528 547.935181,690.737976 544.865723,692.784973 
	C540.880737,695.442627 536.404785,695.719299 534.884827,692.912720 
	C532.050842,687.679626 527.701782,686.254272 522.291382,687.305847 
	C516.897888,688.354248 514.993896,692.363281 514.036255,697.313477 
	C512.677673,704.336365 513.299622,710.837830 518.210327,716.833008 
z"/>
<path fill="#000000" opacity="1.000000" stroke="none" 
	d="
M361.826477,728.730042 
	C358.805847,724.396057 357.940521,719.577942 356.342560,715.053650 
	C352.033539,702.853821 347.922333,690.584167 343.749054,678.390198 
	C351.561493,674.823792 355.508270,676.447388 357.816681,683.883362 
	C360.378571,692.135925 362.865936,700.411682 365.413635,708.668701 
	C365.845215,710.067444 366.076447,711.599609 367.470215,712.648071 
	C369.559296,711.406677 369.832520,709.117004 370.454620,707.177673 
	C372.942078,699.423706 375.721771,691.715820 377.466431,683.786987 
	C378.758087,677.916565 381.702057,676.034851 387.201538,676.930298 
	C388.327637,677.113586 389.468781,677.204712 390.501556,677.326416 
	C391.599976,679.451782 390.422485,681.121887 389.875702,682.769287 
	C385.527588,695.869873 381.112549,708.948486 376.658508,722.013550 
	C374.133362,729.420532 374.082642,729.415588 366.172882,729.256042 
	C364.848114,729.229370 363.526489,729.044189 361.826477,728.730042 
z"/>
<path fill="#000000" opacity="1.000000" stroke="none" 
	d="
M735.794617,699.726440 
	C741.457520,700.951904 739.005371,705.031860 739.084534,707.895996 
	C739.165955,710.837830 736.415405,710.146423 734.537964,710.346008 
	C729.969604,710.831909 724.224304,708.293762 721.101013,711.604309 
	C718.223938,714.653870 720.085938,720.246277 720.171509,724.688354 
	C720.266724,729.628967 717.261902,729.390808 713.932129,729.341980 
	C710.685425,729.294250 707.603455,729.743408 707.673340,724.717346 
	C707.874878,710.221680 707.791931,695.720764 707.684509,681.222900 
	C707.660095,677.925842 709.046753,676.840515 712.172913,676.867615 
	C720.671082,676.941223 729.177612,677.034912 737.667175,676.734863 
	C742.609985,676.560181 742.278076,679.513367 742.397522,682.858704 
	C742.528564,686.526611 741.607727,688.516418 737.428650,688.251648 
	C733.113281,687.978210 728.759583,688.353088 724.435852,688.156067 
	C719.737488,687.941956 720.041260,691.059387 720.035095,694.143250 
	C720.029175,697.118652 719.950195,699.949402 724.320007,699.705200 
	C727.974060,699.500977 731.650024,699.689331 735.794617,699.726440 
z"/>
<path fill="#000000" opacity="1.000000" stroke="none" 
	d="
M444.446045,787.763977 
	C442.510742,787.624878 441.015991,787.547791 439.523346,787.441711 
	C436.580170,787.232666 435.247559,788.519043 435.327240,791.536499 
	C435.432678,795.528442 435.216614,799.529297 435.338623,803.520203 
	C435.453461,807.277527 433.049896,807.507629 430.387451,807.216675 
	C427.749298,806.928284 423.741180,808.723511 423.715363,803.697327 
	C423.637512,788.549377 423.696960,773.400818 423.656281,758.252625 
	C423.649200,755.611877 424.999939,754.815491 427.406738,754.826599 
	C436.062744,754.866577 444.721100,754.933533 453.374512,754.771973 
	C457.446625,754.695923 457.397949,757.217529 457.352509,760.035889 
	C457.306946,762.858337 457.896637,766.018188 453.421967,765.863037 
	C448.935883,765.707397 444.436615,765.772034 439.963531,765.453491 
	C436.420319,765.201233 434.845215,766.658997 435.395660,770.051819 
	C435.868347,772.964966 433.149353,777.721558 439.419128,777.640869 
	C443.247192,777.591614 447.082062,777.769592 450.903534,777.605286 
	C454.308044,777.458862 455.196930,779.179138 455.143402,782.188843 
	C455.089722,785.208435 455.097229,788.045471 450.876282,787.880554 
	C448.882202,787.802673 446.883942,787.832092 444.446045,787.763977 
z"/>
<path fill="#000000" opacity="1.000000" stroke="none" 
	d="
M559.658264,775.089600 
	C559.652100,773.273254 559.539917,771.932373 559.661621,770.613098 
	C559.991028,767.041992 558.180054,765.820557 554.898987,766.016785 
	C553.738831,766.086182 552.570374,766.028992 551.405884,766.014526 
	C545.296143,765.938660 543.257874,762.906799 545.239319,757.078674 
	C545.860535,755.251160 547.129761,754.958130 548.707825,754.955688 
	C560.021179,754.938171 571.334595,754.941040 582.647888,754.903076 
	C586.412903,754.890442 586.339417,757.473389 586.223022,760.069031 
	C586.109924,762.589661 587.038574,765.769592 582.815674,765.907349 
	C581.818115,765.939880 580.819885,765.957764 579.821899,765.972046 
	C571.353088,766.093506 571.353210,766.092834 571.352905,774.814270 
	C571.352600,783.965088 571.220886,793.118652 571.418335,802.265198 
	C571.493530,805.748596 570.849365,807.623169 566.821655,807.226868 
	C563.271484,806.877686 559.329956,808.103882 559.578369,802.025330 
	C559.938110,793.222107 559.663147,784.392944 559.658264,775.089600 
z"/>
<path fill="#000000" opacity="1.000000" stroke="none" 
	d="
M761.961792,449.637634 
	C765.761230,449.637482 769.067627,449.637482 772.411743,449.637482 
	C771.643616,457.681854 766.752197,462.317841 759.551086,462.317566 
	C741.742188,462.316864 723.932800,462.395660 706.124512,462.295715 
	C697.019836,462.244598 698.557800,464.067780 695.993103,454.044647 
	C695.713135,452.950867 695.786438,451.766724 695.617737,449.637817 
	C717.740112,449.637817 739.604370,449.637817 761.961792,449.637634 
z"/>
<path fill="#000000" opacity="1.000000" stroke="none" 
	d="
M776.936584,831.704712 
	C780.308350,832.470093 784.928101,829.515442 785.331543,835.561951 
	C785.752136,841.866516 785.390564,842.343445 778.999451,842.399902 
	C778.333862,842.405762 777.668213,842.397705 777.002747,842.409912 
	C770.364990,842.531555 770.357178,842.532410 770.351257,849.073853 
	C770.342224,859.057373 770.118652,869.048218 770.438293,879.021423 
	C770.599670,884.056824 767.875122,884.091003 764.204163,884.195068 
	C760.292542,884.306030 758.479187,883.292542 758.584106,878.934570 
	C758.836487,868.458069 758.477905,857.966614 758.743713,847.490784 
	C758.846924,843.423035 757.349426,842.038208 753.559875,842.392700 
	C752.405640,842.500732 751.231995,842.408142 750.067322,842.397827 
	C744.360107,842.347168 742.162964,839.194946 743.972961,833.817993 
	C744.780823,831.418335 746.729492,831.740417 748.492981,831.732117 
	C757.810730,831.688293 767.128784,831.707703 776.936584,831.704712 
z"/>
<path fill="#000000" opacity="1.000000" stroke="none" 
	d="
M771.031860,718.613098 
	C773.350830,718.611023 775.180115,718.605774 777.009338,718.606445 
	C783.325195,718.608948 783.407898,718.845947 783.346558,724.966248 
	C783.314514,728.161682 782.191895,729.412903 778.963318,729.364868 
	C770.317871,729.236145 761.668152,729.243286 753.022339,729.359436 
	C749.777405,729.403015 748.652588,728.058228 748.670410,724.901367 
	C748.752869,710.267883 748.789978,695.632568 748.641724,680.999939 
	C748.588135,675.714966 752.232117,676.989868 755.182068,676.762146 
	C758.451599,676.509827 760.509033,677.155701 760.417908,681.267090 
	C760.193359,691.406128 760.356384,701.553589 760.358154,711.697693 
	C760.359436,718.658081 760.355408,718.658020 767.548706,718.624878 
	C768.546509,718.620300 769.544250,718.616699 771.031860,718.613098 
z"/>
<path fill="#000000" opacity="1.000000" stroke="none" 
	d="
M122.385559,679.784424 
	C124.802818,674.731140 128.915787,677.897095 132.120667,677.608215 
	C134.753937,677.370850 134.156097,680.527649 134.162613,682.391602 
	C134.210983,696.212891 133.969498,710.039124 134.276108,723.853638 
	C134.394241,729.176147 131.559204,729.230652 127.700516,729.312500 
	C123.872124,729.393738 121.869392,728.580322 121.966652,724.108459 
	C122.285248,709.461548 122.258659,694.807129 122.385559,679.784424 
z"/>
<path fill="#000000" opacity="1.000000" stroke="none" 
	d="
M287.348358,842.032837 
	C287.345306,854.662231 287.241760,866.798950 287.400360,878.932312 
	C287.447296,882.521973 286.368774,884.433167 282.611572,883.867615 
	C279.575348,883.410522 275.406769,885.139587 275.550537,879.070068 
	C275.881134,865.113892 275.823303,851.141174 275.557800,837.182190 
	C275.470459,832.589233 277.265503,831.550293 281.414032,831.631958 
	C285.324066,831.708923 287.994873,832.282593 287.371826,837.054443 
	C287.179810,838.525269 287.345947,840.042786 287.348358,842.032837 
z"/>
<path fill="#000000" opacity="1.000000" stroke="none" 
	d="
M626.737549,429.543243 
	C623.643494,432.512787 620.455444,431.212769 616.425232,430.720734 
	C619.743347,424.015594 622.833130,417.771667 625.922974,411.527740 
	C626.245483,411.585327 626.567993,411.642883 626.890503,411.700439 
	C626.890503,417.502960 626.890503,423.305481 626.737549,429.543243 
z"/>
<path fill="#000000" opacity="1.000000" stroke="none" 
	d="
M510.119324,352.973694 
	C517.847839,354.005005 521.894348,348.972107 526.297974,344.453827 
	C535.712402,334.794464 545.245178,325.250549 554.667908,315.599213 
	C557.588989,312.607239 560.831970,311.146179 564.263000,314.203766 
	C567.641479,317.214447 567.007019,320.994781 564.145935,323.947998 
	C555.574097,332.795868 546.774109,341.422546 538.073914,350.146301 
	C536.075256,352.150391 534.220276,354.309265 532.120544,356.198364 
	C529.050476,358.960388 527.199646,361.886749 527.016846,366.400604 
	C526.815796,371.363800 523.371582,375.039032 518.560669,376.499512 
	C512.567627,378.318787 506.759521,376.446198 504.087982,371.587585 
	C502.001465,367.792938 499.019257,365.669128 495.311859,363.951172 
	C491.085083,361.992523 486.968811,359.788879 482.848999,357.607758 
	C477.270996,354.654663 475.552643,351.630249 477.278931,348.038239 
	C479.120850,344.205780 483.078827,343.641846 488.562836,346.438690 
	C493.013214,348.708374 497.535248,350.851990 501.880737,353.307678 
	C504.679443,354.889282 507.181549,354.974915 510.119324,352.973694 
z"/>
<path fill="#000000" opacity="1.000000" stroke="none" 
	d="
M519.219604,430.390411 
	C519.225586,434.818604 519.351318,438.794861 519.182922,442.758575 
	C519.037170,446.188232 517.716553,449.084717 513.746338,449.194122 
	C509.461853,449.312134 508.087891,446.319336 507.943726,442.661285 
	C507.787476,438.696442 507.809296,434.718964 507.913269,430.751190 
	C508.004395,427.272369 508.581909,423.923798 513.099243,423.719269 
	C517.346497,423.527008 518.901062,426.161102 519.219604,430.390411 
z"/>
<path fill="#000000" opacity="1.000000" stroke="none" 
	d="
M518.386780,288.259796 
	C518.432556,293.010437 518.495483,297.305603 518.471436,301.600250 
	C518.455261,304.496674 516.913391,306.427216 514.087219,306.715790 
	C511.122284,307.018555 508.738342,305.499359 508.215179,302.523956 
	C507.296509,297.299164 507.417419,291.961487 508.105713,286.723480 
	C508.462524,284.008270 510.532501,282.484161 513.494446,282.695007 
	C516.666992,282.920868 518.261719,284.652405 518.386780,288.259796 
z"/>
<path fill="#000000" opacity="1.000000" stroke="none" 
	d="
M577.030884,361.640503 
	C581.727417,360.519440 586.006714,361.730865 590.299438,361.678040 
	C593.297974,361.641174 594.967346,363.566986 595.113342,366.325867 
	C595.267517,369.239716 593.784058,371.770721 590.727478,372.029510 
	C586.458618,372.390961 582.123596,372.229919 577.833801,371.989563 
	C575.243042,371.844360 573.673767,370.052032 573.182129,367.515289 
	C572.619995,364.615265 573.981567,362.763519 577.030884,361.640503 
z"/>
<path fill="#000000" opacity="1.000000" stroke="none" 
	d="
M438.390106,372.258850 
	C434.164429,371.785156 432.317810,369.710602 432.671326,365.875092 
	C433.042419,361.848236 435.926849,361.393707 439.124451,361.441742 
	C442.586182,361.493744 446.048584,361.524841 449.509277,361.617767 
	C452.743805,361.704559 454.277527,363.453705 454.317047,366.651245 
	C454.356049,369.808472 452.754578,371.822327 449.742035,372.107178 
	C446.136719,372.448059 442.480011,372.245148 438.390106,372.258850 
z"/>
<path fill="#000000" opacity="1.000000" stroke="none" 
	d="
M321.821167,414.933167 
	C319.833588,410.395752 320.999603,405.985107 320.747772,401.600769 
	C326.130554,401.473541 329.954803,404.178467 330.110474,407.890961 
	C330.267670,411.641113 327.367249,414.295074 321.821167,414.933167 
z"/>
<path fill="#000000" opacity="1.000000" stroke="none" 
	d="
M311.870361,375.599884 
	C313.968689,374.821533 315.233948,375.067596 315.253571,377.209534 
	C315.286255,380.779755 315.736176,384.376923 314.904114,388.103729 
	C311.418579,388.066345 308.990540,386.602661 307.999390,383.511658 
	C306.895630,380.069550 308.336395,377.438019 311.870361,375.599884 
z"/>
</svg>