<svg version="1.1" id="Layer_1" xmlns="http://www.w3.org/2000/svg" xmlns:xlink="http://www.w3.org/1999/xlink" x="0px" y="0px"
	 width="100%" viewBox="0 0 1024 1024" enable-background="new 0 0 1024 1024" xml:space="preserve">
<path fill="#000000" opacity="1.000000" stroke="none" 
	d="
M732.373901,342.591675 
	C732.153015,350.459229 736.185303,353.798676 743.088135,355.355560 
	C750.256165,356.972229 756.877014,360.344086 763.146912,364.145630 
	C766.114380,365.944855 768.160400,365.282074 770.150879,363.117584 
	C772.378540,360.695312 774.674194,358.065338 773.166199,354.455933 
	C770.285767,347.561615 771.970581,344.705505 779.320374,344.665771 
	C788.984436,344.613556 798.649109,344.606720 808.313171,344.657837 
	C813.476440,344.685120 815.274109,346.402863 815.307434,351.513641 
	C815.383545,363.176971 815.292236,374.841400 815.360229,386.504822 
	C815.378052,389.560974 814.675964,392.194092 811.868103,393.713776 
	C808.861755,395.340820 807.218201,392.909058 805.604065,391.111908 
	C803.566162,388.842896 801.701538,389.284149 799.489075,390.784973 
	C793.677979,394.726868 793.370728,395.982544 796.284912,402.128784 
	C798.419678,406.631073 801.194519,410.935394 802.152100,415.869232 
	C803.006592,420.272430 805.795593,421.509277 809.626221,421.597748 
	C813.623352,421.690033 817.626099,421.559540 821.622009,421.676666 
	C826.694031,421.825348 829.187622,424.000946 829.267273,428.932220 
	C829.439453,439.593414 829.445129,450.261444 829.263123,460.922333 
	C829.179810,465.802185 826.197266,468.283875 821.186890,468.322723 
	C817.021484,468.355011 812.844910,468.518860 808.693542,468.276245 
	C805.482605,468.088562 803.655273,469.500000 802.619019,472.279694 
	C800.178162,478.826721 798.016235,485.493408 794.097473,491.381561 
	C792.938354,493.123230 793.666931,494.537872 794.965576,495.808258 
	C797.820374,498.600769 800.753723,501.316742 803.530029,504.184967 
	C808.596191,509.418945 808.732788,513.781921 803.722534,518.920105 
	C796.744385,526.076660 789.622803,533.096069 782.460571,540.069275 
	C778.921021,543.515381 773.253357,543.062073 769.634583,539.000854 
	C767.429749,536.526611 765.657227,533.670654 763.639404,531.025024 
	C762.339355,529.320435 761.052734,528.456421 758.579407,529.585999 
	C752.835327,532.209290 747.017883,534.847595 740.972717,536.583252 
	C735.692322,538.099365 733.890015,541.438843 733.432373,546.260071 
	C733.385193,546.757019 733.387207,547.258423 733.363831,547.757690 
	C732.772339,560.392090 732.772339,560.388428 720.175720,560.375122 
	C712.177673,560.366638 704.179077,560.424011 696.181702,560.351196 
	C690.652771,560.300842 688.147461,558.273865 688.803650,552.792847 
	C689.976807,542.993103 687.497192,536.723938 676.752869,534.726196 
	C671.825989,533.810181 667.126892,531.094360 662.755615,528.271301 
	C660.127136,526.573853 657.254395,526.786499 654.649658,528.090759 
	C652.499268,529.167542 651.082703,530.503967 652.901672,533.581787 
	C657.146851,540.764709 654.326660,545.328430 646.063538,545.342590 
	C636.232605,545.359497 626.400146,545.256775 616.571472,545.408203 
	C612.289307,545.474182 610.560791,543.696716 610.603760,539.454407 
	C610.721863,527.791748 610.600098,516.126770 610.681152,504.463501 
	C610.714478,499.662537 612.270996,498.578247 616.822449,499.787048 
	C618.850952,500.325806 627.993774,496.039856 628.721436,494.196320 
	C629.294067,492.745758 628.396057,491.632172 627.790955,490.479523 
	C624.615967,484.431244 621.533020,478.339478 619.573547,471.764435 
	C618.844360,469.317383 617.352173,468.276306 614.805969,468.326050 
	C610.308899,468.413910 605.808289,468.375610 601.309937,468.324585 
	C596.455383,468.269501 593.807556,465.994781 593.730103,461.132568 
	C593.560303,450.471436 593.588196,439.804077 593.743469,429.142303 
	C593.807129,424.771698 596.318909,421.981171 600.787231,422.718750 
	C611.927063,424.557495 618.950256,420.915802 621.255798,409.271332 
	C621.813965,406.452148 623.697327,403.788391 625.366394,401.320374 
	C628.098755,397.280243 627.619324,393.973999 623.965820,390.855194 
	C621.562927,388.803955 619.283569,386.601898 617.022278,384.392151 
	C612.840088,380.305237 612.445923,376.358215 616.459351,372.166595 
	C623.484863,364.829102 630.645264,357.597748 638.103210,350.705017 
	C643.400330,345.809387 649.213135,346.769073 653.504517,352.527466 
	C660.579224,362.020630 660.566528,361.990875 671.195984,357.442657 
	C675.320435,355.677826 679.505981,354.053497 683.684998,352.419464 
	C685.747009,351.613220 686.625916,350.282654 686.989868,347.992767 
	C687.676514,343.673737 687.583984,339.365784 687.652893,335.042694 
	C687.743347,329.366516 689.400635,327.681702 695.192810,327.647705 
	C704.856812,327.590973 714.521606,327.594055 724.185669,327.642090 
	C730.393005,327.672913 732.239868,329.536346 732.335815,335.641754 
	C732.369873,337.807343 732.354919,339.973724 732.373901,342.591675 
M735.581482,393.894135 
	C722.854309,387.778534 709.637939,385.933258 695.860596,389.515839 
	C668.422485,396.650787 648.826172,424.167297 652.430725,450.447906 
	C656.925964,483.222534 687.527039,505.811432 718.145691,500.878632 
	C744.958252,496.558990 767.665771,472.104919 767.177917,444.938141 
	C766.771545,422.310211 755.824280,405.481049 735.581482,393.894135 
z"/>
<path fill="#000000" opacity="1.000000" stroke="none" 
	d="
M415.077789,501.560394 
	C409.382965,527.078247 395.293671,544.970520 370.612640,553.516357 
	C359.193665,557.470215 347.324188,556.499573 335.613373,554.975281 
	C332.406036,554.557800 330.575928,555.541138 328.770477,557.717468 
	C308.754578,581.844543 286.195801,603.590942 264.611053,626.250305 
	C252.442093,639.025085 240.116791,651.667297 228.375061,664.827209 
	C219.840561,674.392456 209.027344,675.120850 198.128830,672.909363 
	C187.859192,670.825500 180.522598,664.075867 177.354614,653.405273 
	C173.154175,639.257202 176.917786,627.451782 187.480240,617.694763 
	C218.196609,589.320557 246.438370,558.470764 276.260742,529.204163 
	C279.826691,525.704712 283.085663,521.847656 286.916779,518.675537 
	C290.884186,515.390625 291.785980,511.873840 290.570435,506.930176 
	C282.111816,472.528961 302.552124,440.272491 337.273468,429.959015 
	C344.773895,427.731110 352.498108,426.468292 360.361633,426.703644 
	C363.986633,426.812134 368.197540,426.712036 369.892242,430.701385 
	C371.692566,434.939453 369.282013,438.252045 366.279877,441.287903 
	C356.915100,450.757782 347.731537,460.406769 338.368256,469.878143 
	C335.848724,472.426758 335.348297,474.999237 336.317291,478.416656 
	C338.400482,485.763947 340.252014,493.184235 341.931732,500.634735 
	C342.527771,503.278412 343.759033,504.632751 346.340454,505.256592 
	C352.961365,506.856659 359.823181,510.630768 366.058563,509.756165 
	C372.196075,508.895294 375.978607,501.479401 380.869965,497.032379 
	C388.133972,490.428253 394.960297,483.344879 402.052368,476.548401 
	C404.626312,474.081726 407.494598,471.945312 411.393921,473.635742 
	C415.375916,475.362061 415.988434,479.002411 416.309601,482.738098 
	C416.841370,488.923248 415.384125,494.989258 415.077789,501.560394 
M194.461731,637.108276 
	C193.436874,639.969788 192.876068,642.772888 194.086090,645.814209 
	C196.478683,651.827637 202.628159,656.005493 208.876129,655.596680 
	C214.670456,655.217590 221.192719,649.813721 222.312210,643.865295 
	C223.408463,638.040344 219.567825,634.320435 215.800598,630.679382 
	C212.640640,627.625244 209.022049,626.404480 204.884811,628.064087 
	C200.676834,629.752075 196.788849,632.003601 194.461731,637.108276 
z"/>
<path fill="#000000" opacity="1.000000" stroke="none" 
	d="
M609.438232,604.361328 
	C609.365967,606.981873 609.514832,609.169312 609.261353,611.309143 
	C608.731018,615.786011 605.341553,617.074280 601.797424,614.206604 
	C600.767761,613.373474 599.865845,612.365845 598.989014,611.364990 
	C598.119934,610.373047 597.356262,609.288757 596.671143,608.405762 
	C588.736206,612.560242 584.442810,624.414612 586.862061,633.031128 
	C592.036255,651.459351 605.156494,661.951172 622.493225,667.737305 
	C645.037903,675.261658 667.390137,672.540222 689.384094,665.123413 
	C714.153992,656.770386 735.935364,643.058289 756.391663,627.039490 
	C759.227356,624.818909 759.442932,622.878784 757.397461,619.937561 
	C751.306885,611.179565 746.098877,601.902100 741.617493,592.204041 
	C738.832214,586.176575 740.281006,582.396362 746.626587,580.512329 
	C756.208679,577.667480 766.074951,577.862976 775.806824,578.834290 
	C789.696045,580.220520 803.415466,582.807373 816.618958,587.595032 
	C823.889099,590.231323 826.315369,593.650635 826.332092,601.408020 
	C826.378784,623.061035 821.585815,643.924133 815.969238,664.648010 
	C814.664734,669.461548 813.406189,674.298828 811.818237,679.021545 
	C809.708252,685.296875 803.653015,686.562317 798.954529,681.815308 
	C794.023315,676.833191 789.629822,671.391785 785.533020,665.707031 
	C784.087341,663.701050 782.589539,661.732666 780.900757,659.457825 
	C772.361755,664.943176 764.211731,670.351501 755.894592,675.489258 
	C730.346558,691.271362 702.802917,701.807800 672.890076,705.108704 
	C641.525635,708.569824 611.385437,704.325562 584.193176,687.116455 
	C567.999573,676.868042 556.555969,662.576721 551.885498,643.691650 
	C547.104004,624.357483 550.586182,606.405945 562.733337,590.491211 
	C565.156982,587.315918 565.037781,585.260986 562.670288,582.353760 
	C559.417847,578.359924 556.578857,574.029785 553.554626,569.849609 
	C551.201172,566.596619 552.275574,564.147583 555.536438,562.567505 
	C569.581970,555.761597 584.404785,552.731384 600.014526,553.682068 
	C603.124390,553.871399 604.297668,556.117798 604.910461,558.590210 
	C607.189087,567.783691 609.048340,577.097778 609.225769,586.574097 
	C609.333801,592.345703 611.518494,598.111328 609.438232,604.361328 
z"/>
<path fill="#000000" opacity="1.000000" stroke="none" 
	d="
M728.999878,259.396942 
	C670.198242,259.396667 611.896667,259.401703 553.595032,259.389496 
	C542.995972,259.387268 539.678772,256.014221 539.666809,245.277451 
	C539.648621,228.953018 539.637268,212.628494 539.671570,196.304108 
	C539.690125,187.494797 543.242432,183.711609 552.102661,183.703094 
	C616.900635,183.640808 681.698792,183.639420 746.496704,183.717758 
	C755.531677,183.728683 759.260010,187.653427 759.294739,196.603088 
	C759.358704,213.093842 759.375549,229.585388 759.287415,246.075943 
	C759.235168,255.846558 755.637451,259.345886 745.990662,259.388031 
	C740.493774,259.412079 734.996826,259.394897 728.999878,259.396942 
M615.898010,228.473404 
	C619.235962,225.501328 621.314392,222.137192 619.104675,217.559113 
	C617.112061,213.430710 613.626526,212.057800 609.261108,212.375839 
	C604.902161,212.693420 602.379517,215.095993 601.117676,219.190414 
	C600.020569,222.750549 601.609009,225.413971 603.957153,227.596603 
	C607.309814,230.713043 611.172668,231.495392 615.898010,228.473404 
M577.204956,230.439957 
	C577.832947,230.231140 578.465942,230.036163 579.088135,229.811325 
	C583.709045,228.141495 586.035706,224.884918 585.623779,219.943924 
	C585.282227,215.847549 581.707458,212.768845 577.103271,212.366699 
	C572.250061,211.942825 568.680969,214.177856 567.045959,218.664963 
	C565.180054,223.785492 569.092224,228.712982 577.204956,230.439957 
z"/>
<path fill="#000000" opacity="1.000000" stroke="none" 
	d="
M552.294006,94.652084 
	C615.417236,94.646957 678.073303,94.643578 740.729370,94.643738 
	C743.062134,94.643738 745.402100,94.567169 747.726318,94.717361 
	C755.174072,95.198624 759.177612,98.995354 759.254150,106.430267 
	C759.432495,123.758759 759.399963,141.091187 759.254211,158.420364 
	C759.197632,165.145477 755.401794,168.815781 748.709717,169.326538 
	C747.549011,169.415131 746.377991,169.383652 745.211731,169.383652 
	C681.222595,169.383636 617.233398,169.388214 553.244263,169.371506 
	C542.949463,169.368805 539.684998,166.136475 539.671692,156.029266 
	C539.650330,139.865341 539.647156,123.701385 539.664612,107.537476 
	C539.674316,98.633064 542.667114,95.492020 552.294006,94.652084 
M612.875732,123.385681 
	C611.223999,123.379440 609.554321,123.213966 607.923828,123.396973 
	C603.136353,123.934334 599.763611,128.935410 601.054138,133.419861 
	C602.447693,138.262665 605.979614,140.933456 610.938660,140.614853 
	C615.264221,140.336945 618.510620,138.303513 619.734924,133.946457 
	C620.961182,129.582260 618.908875,126.210175 612.875732,123.385681 
M569.826538,125.185158 
	C566.292053,128.382278 565.360107,132.112610 567.946655,136.255096 
	C570.451172,140.266068 574.311707,141.400726 578.748169,140.352432 
	C582.940430,139.361847 585.980164,135.242676 585.656067,131.197556 
	C585.326843,127.087555 583.026733,124.330673 579.054443,123.547409 
	C576.177979,122.980217 573.092590,122.830276 569.826538,125.185158 
z"/>
<path fill="#000000" opacity="1.000000" stroke="none" 
	d="
M394.182709,574.097656 
	C407.432983,564.283997 421.473511,566.739258 435.586060,570.216553 
	C438.165314,570.852051 440.773529,571.518311 443.211548,572.543335 
	C446.684723,574.003540 448.042206,572.674438 448.692017,569.336487 
	C449.579712,564.776550 450.727509,560.303284 450.725800,555.575989 
	C450.723999,550.683899 453.383179,548.863647 457.914276,550.714111 
	C475.241058,557.790283 488.259918,569.802307 496.981812,586.267212 
	C499.966248,591.901245 498.909790,597.727173 494.467041,602.454529 
	C483.536530,614.085327 470.427612,621.247620 454.085541,621.354553 
	C446.016266,621.407410 444.512299,618.966492 448.032074,611.793213 
	C439.203888,602.485901 422.634125,601.559753 411.584290,610.054504 
	C402.626465,616.941040 397.830322,626.246460 399.632141,637.519897 
	C401.513763,649.292542 408.144836,657.957092 419.991821,661.823425 
	C433.819885,666.336304 450.320129,658.068665 455.923096,643.185791 
	C457.761414,638.302795 460.642670,635.636108 465.240997,633.813416 
	C472.951874,630.756836 480.823059,629.105835 489.122955,629.682983 
	C498.414703,630.329163 501.451538,634.875366 498.510040,643.733643 
	C497.305267,647.361938 496.187225,651.021423 494.886230,654.614746 
	C493.840881,657.502197 494.288208,659.158569 497.596527,660.144470 
	C504.938690,662.332458 505.472321,664.155518 501.538116,670.716797 
	C496.440186,679.218933 490.008362,686.598450 482.780609,693.327271 
	C477.259583,698.467163 474.888153,698.158630 470.702637,691.756287 
	C470.261047,691.080811 469.707520,690.478455 469.064575,689.662781 
	C461.686432,693.012573 454.260834,695.869629 446.411377,697.447144 
	C443.617188,698.008789 443.002991,700.270630 442.361053,702.573242 
	C440.661041,708.671143 438.155060,710.736755 431.986053,710.169495 
	C423.222839,709.363831 414.449707,708.430481 405.866089,706.359192 
	C400.351013,705.028259 398.890900,702.959412 400.185699,697.349976 
	C400.882782,694.329956 400.002686,692.503479 397.655731,691.048950 
	C391.574707,687.280212 385.289917,683.804321 380.017731,678.876221 
	C378.256592,677.230042 376.998840,678.593384 375.604645,679.391785 
	C363.609222,686.262146 363.596924,686.270752 355.743195,674.693237 
	C353.313354,671.111328 350.808929,667.564636 348.629883,663.831848 
	C345.911377,659.174988 346.746429,656.540833 351.455444,654.086609 
	C353.217346,653.168396 355.078217,652.083435 356.984406,651.865356 
	C362.774933,651.202881 363.326141,647.560425 362.573669,642.967896 
	C359.982819,627.155762 362.367218,612.315247 370.398956,598.264893 
	C376.185974,588.141296 384.153656,580.427063 394.182709,574.097656 
z"/>
<path fill="#000000" opacity="1.000000" stroke="none" 
	d="
M354.811523,176.828094 
	C360.838715,167.414520 366.579376,158.240829 372.540253,149.212524 
	C374.483429,146.269409 374.394409,144.360214 371.423431,142.166763 
	C362.986603,135.937958 354.732910,129.461258 346.399170,123.092567 
	C344.963684,121.995583 343.252655,121.149071 342.969971,119.041641 
	C343.397064,117.488693 344.814575,117.204765 346.025269,116.830215 
	C371.749084,108.872299 397.296783,100.325989 423.343048,93.442146 
	C430.682617,91.502350 434.153656,93.448669 435.518707,100.930862 
	C438.045593,114.781013 440.136810,128.712494 442.283936,142.629486 
	C443.927826,153.284454 445.439728,163.960953 446.879303,174.645538 
	C447.334412,178.023422 448.970520,182.331131 446.053009,184.558594 
	C442.767578,187.066925 439.631409,183.306229 436.689148,181.726135 
	C431.264435,178.812836 425.900848,175.760834 420.687408,172.486908 
	C416.515533,169.867020 413.859314,170.251892 410.907745,174.651901 
	C395.098755,198.218735 377.583984,220.436401 356.653992,239.727982 
	C319.078308,274.362274 276.965240,301.392883 227.520859,315.952209 
	C223.369781,317.174500 219.145020,318.057190 214.764038,317.551392 
	C211.848129,317.214722 209.581635,315.826874 208.983551,312.872284 
	C208.354553,309.765045 210.852493,308.502136 213.088821,307.354675 
	C254.724060,285.992279 289.539978,256.100006 320.340698,221.277603 
	C332.695953,207.309128 344.068024,192.525925 354.811523,176.828094 
z"/>
<path fill="#000000" opacity="1.000000" stroke="none" 
	d="
M731.999268,273.637390 
	C737.328491,273.645477 742.160156,273.560211 746.986694,273.681671 
	C755.383606,273.893036 759.247070,277.762115 759.303528,286.007660 
	C759.367432,295.332916 759.357422,304.659149 759.312134,313.984589 
	C759.279663,320.665070 754.854065,323.882843 748.440491,321.945770 
	C747.493469,321.659698 746.508118,321.296967 745.718323,320.724457 
	C735.039551,312.983734 723.009033,311.217224 710.197266,312.255493 
	C705.068604,312.671143 699.877563,312.280914 694.715576,312.328674 
	C683.091919,312.436218 673.901550,322.829834 675.107361,334.392731 
	C675.561035,338.743164 672.363892,340.285461 669.104675,341.077057 
	C666.245667,341.771423 663.150085,341.814575 660.281555,340.496765 
	C659.072327,339.941193 657.830994,339.454651 656.627808,338.886841 
	C643.864929,332.863678 636.336975,334.045135 625.674438,343.410583 
	C620.783081,347.706848 615.392944,350.762238 608.395508,348.614532 
	C606.709351,348.096985 604.758301,348.399445 602.929016,348.397644 
	C585.609863,348.380676 568.290588,348.420532 550.971680,348.354218 
	C543.751526,348.326569 539.772888,344.534851 539.717285,337.272064 
	C539.583313,319.787476 539.604797,302.300720 539.712219,284.815765 
	C539.750366,278.604248 542.275635,275.783264 548.202026,274.178436 
	C550.674011,273.509033 553.157166,273.646515 555.643372,273.645966 
	C614.262085,273.632812 672.880737,273.636505 731.999268,273.637390 
M619.873962,309.729645 
	C619.527893,308.631775 619.374939,307.419006 618.802185,306.455963 
	C616.371338,302.368744 610.580750,300.844757 606.169189,303.016296 
	C601.868896,305.133057 599.802490,309.751495 601.395325,313.685638 
	C603.301392,318.393066 608.290649,320.854736 613.245605,319.355011 
	C617.547668,318.052917 619.813110,315.061310 619.873962,309.729645 
M566.532166,309.875671 
	C566.180298,312.190338 567.226807,314.085571 568.493042,315.830475 
	C571.295593,319.692474 576.076233,320.825226 580.433594,318.775360 
	C584.361389,316.927521 586.541260,312.461456 585.444214,308.509796 
	C584.280884,304.319427 579.845703,301.673645 574.875671,302.213104 
	C570.580627,302.679321 568.049805,305.208649 566.532166,309.875671 
z"/>
<path fill="#000000" opacity="1.000000" stroke="none" 
	d="
M451.339294,270.000061 
	C451.344177,307.156860 451.274658,343.813873 451.396912,380.470245 
	C451.435516,392.046204 447.341705,395.868378 435.269714,396.358704 
	C425.289673,396.764038 415.278290,396.462402 405.281647,396.375854 
	C395.155640,396.288177 390.649353,391.739685 390.648712,381.752472 
	C390.645691,335.098389 390.646423,288.444305 390.654510,241.790207 
	C390.656067,232.700043 392.664062,230.690750 401.841797,230.668259 
	C413.838470,230.638870 425.835510,230.615860 437.831970,230.677353 
	C448.344330,230.731247 451.294769,233.678268 451.333618,244.007004 
	C451.365570,252.504578 451.339417,261.002350 451.339294,270.000061 
z"/>
<path fill="#000000" opacity="1.000000" stroke="none" 
	d="
M318.802673,397.569031 
	C312.134460,394.902557 310.661133,392.843231 310.656921,386.270172 
	C310.639587,359.119446 310.647675,331.968750 310.653107,304.818024 
	C310.654816,296.253204 313.971680,292.145630 322.716064,291.821899 
	C335.190826,291.360046 347.704865,291.410004 360.183990,291.808929 
	C368.511169,292.075134 372.334869,296.715515 372.340668,305.141663 
	C372.358551,331.126404 372.347443,357.111145 372.341553,383.095886 
	C372.339233,393.353455 369.100281,398.063049 358.991638,398.678070 
	C345.760559,399.483063 332.392212,400.422028 318.802673,397.569031 
z"/>
<path fill="#000000" opacity="1.000000" stroke="none" 
	d="
M231.616898,349.271667 
	C232.288300,341.942688 234.176376,339.217316 240.821350,338.552063 
	C255.215622,337.110992 269.680023,337.023895 284.075439,338.725616 
	C288.919403,339.298248 292.183197,343.259918 292.255646,348.569397 
	C292.439606,362.045166 292.360138,375.525024 292.313751,389.003021 
	C292.303040,392.106598 290.821289,394.446960 287.821564,395.536682 
	C285.802826,396.270081 283.742218,397.092743 281.636353,397.348145 
	C269.041260,398.875519 256.371704,398.527557 243.788177,397.663177 
	C234.323990,397.013031 231.656219,393.238190 231.648514,383.680847 
	C231.639389,372.365753 231.630432,361.050629 231.616898,349.271667 
z"/>
<path fill="#000000" opacity="1.000000" stroke="none" 
	d="
M467.790833,466.603088 
	C473.399994,463.186737 479.196716,464.903839 484.745453,464.715973 
	C493.599548,464.416229 493.618713,464.621582 493.660095,455.798706 
	C493.680389,451.470612 493.590149,447.141510 493.649933,442.814209 
	C493.729614,437.044464 496.850342,433.861023 502.506500,433.672150 
	C503.836853,433.627747 505.169861,433.653046 506.501587,433.659424 
	C515.245483,433.701202 518.281433,436.676208 518.320190,445.266235 
	C518.341248,449.927368 518.527710,454.599182 518.277588,459.246674 
	C518.060913,463.275055 520.027039,464.625763 523.616821,464.627075 
	C528.444397,464.628845 533.272400,464.608826 538.099426,464.664795 
	C539.583923,464.681976 541.169312,464.624664 542.530457,465.105469 
	C547.295166,466.788605 549.429443,473.191925 548.105957,481.282288 
	C547.240723,486.571655 544.378113,489.147461 538.964966,489.260010 
	C533.972839,489.363831 528.968445,489.481537 523.985718,489.246948 
	C519.776733,489.048767 517.870178,490.345978 518.231201,494.901672 
	C518.598328,499.533600 518.318848,504.217651 518.304260,508.878815 
	C518.276611,517.689636 515.732971,520.276001 507.112518,520.283630 
	C505.947235,520.284607 504.779938,520.324463 503.617004,520.271301 
	C497.029480,519.970032 493.923187,516.934204 493.728394,510.275421 
	C493.572693,504.953003 493.496735,499.611877 493.768585,494.298615 
	C493.975647,490.251343 492.315643,489.026947 488.499878,489.231842 
	C484.018097,489.472473 479.513031,489.324860 475.018799,489.277710 
	C467.813446,489.202087 464.602386,486.088989 464.690033,478.997284 
	C464.742004,474.789398 463.508636,470.203918 467.790833,466.603088 
z"/>
<path fill="#000000" opacity="1.000000" stroke="none" 
	d="
M572.786682,823.946960 
	C567.679199,827.079834 562.525024,828.509766 556.845581,828.427429 
	C546.860718,828.282593 536.871277,828.314026 526.885681,828.434753 
	C523.564636,828.474854 521.808228,827.229248 521.838928,823.861389 
	C522.046143,801.095154 521.077698,778.309204 522.469238,755.820923 
	C525.041504,754.031311 527.449951,754.639282 529.691467,754.692139 
	C540.486938,754.946838 551.416016,753.334473 562.054199,755.421143 
	C577.075500,758.367432 582.562561,775.738953 572.660278,787.559631 
	C572.249146,788.050415 571.922424,788.611938 571.586914,789.096375 
	C582.848694,802.581726 583.289795,813.676270 572.786682,823.946960 
M549.305054,797.382751 
	C546.983459,797.385132 544.661499,797.412537 542.340332,797.382690 
	C540.132507,797.354309 538.028259,797.782166 538.420593,800.532104 
	C539.084473,805.185547 535.497803,812.084229 540.526611,814.024353 
	C545.790771,816.055298 552.656738,815.736389 558.539856,813.370605 
	C561.884094,812.025818 563.676453,809.166809 563.573242,805.496277 
	C563.464966,801.644226 560.969604,799.533997 557.558167,798.469543 
	C555.193115,797.731506 552.752136,797.170166 549.305054,797.382751 
M538.289917,777.341187 
	C538.881042,779.549194 536.623535,783.330139 541.159119,783.386292 
	C545.963257,783.445862 550.787720,783.147339 555.576843,782.713867 
	C559.192444,782.386658 561.214233,780.033325 561.568542,776.465759 
	C561.932739,772.799622 560.079712,770.510742 556.666870,769.343811 
	C551.476624,767.569214 546.133118,768.521301 540.851318,768.443176 
	C538.945801,768.414978 538.333801,769.731262 538.330078,771.444275 
	C538.326416,773.105408 538.304321,774.766541 538.289917,777.341187 
z"/>
<path fill="#000000" opacity="1.000000" stroke="none" 
	d="
M603.462524,895.901062 
	C609.709534,916.058655 601.359009,926.126221 581.141052,927.203918 
	C572.170837,927.682129 563.154724,927.334778 554.159729,927.299744 
	C548.385376,927.277222 547.690552,926.590393 547.671692,920.501282 
	C547.620789,904.010193 547.650574,887.518860 547.650024,871.027588 
	C547.649841,866.529968 547.756897,862.029480 547.625549,857.535767 
	C547.528992,854.230469 548.668518,852.553101 552.223206,852.718140 
	C563.346008,853.234802 574.485046,852.092957 585.625793,853.499634 
	C592.644043,854.385742 598.426941,856.887024 600.943848,863.630066 
	C603.663513,870.916382 603.704590,878.327576 598.293091,884.817688 
	C597.559814,885.697144 596.798950,886.553589 595.771362,887.744690 
	C599.016357,889.805847 601.944336,891.973450 603.462524,895.901062 
M587.227173,899.429443 
	C580.510742,893.337158 572.431152,896.923828 564.707153,895.643066 
	C564.522888,897.534119 564.311646,898.815491 564.286072,900.100464 
	C564.002136,914.400391 565.893860,915.983032 580.242126,913.514038 
	C587.606079,912.246887 590.325989,907.308899 587.227173,899.429443 
M581.150024,867.158752 
	C576.616089,865.688904 571.952820,866.648743 567.352295,866.435669 
	C565.317444,866.341370 564.545227,867.416382 564.265076,869.428345 
	C562.703918,880.641235 563.549500,881.706848 574.526672,881.694946 
	C576.015686,881.693298 577.510864,881.754028 578.992493,881.642944 
	C582.480957,881.381226 585.748169,880.414490 586.538635,876.500977 
	C587.358215,872.443420 586.540039,868.852356 581.150024,867.158752 
z"/>
<path fill="#000000" opacity="1.000000" stroke="none" 
	d="
M216.637772,923.966553 
	C207.733353,928.828003 198.606705,929.491821 189.220673,927.531494 
	C178.687073,925.331421 173.321884,917.985291 171.919983,908.018250 
	C170.601929,898.647400 173.958511,890.667786 182.062256,885.137756 
	C183.136551,884.404663 184.547531,884.089172 185.046463,882.667114 
	C179.238449,866.245117 180.506912,858.323547 189.729248,853.396118 
	C199.221313,848.324585 213.058319,850.262817 218.708282,857.445435 
	C222.748245,862.581299 223.206833,868.512878 221.871674,874.509033 
	C220.533615,880.518188 215.792480,884.167603 210.621719,887.426208 
	C213.740952,891.921143 217.340637,895.006042 221.145538,898.230896 
	C223.704041,896.306213 224.283112,893.407959 225.748840,891.106140 
	C226.664291,889.668518 226.522903,886.924194 228.927551,887.219421 
	C232.328186,887.636902 235.936630,887.767944 238.948151,889.608398 
	C240.188873,890.366699 239.498825,892.157593 239.088043,893.350830 
	C237.470169,898.049927 236.369446,903.004883 233.299927,907.064697 
	C231.075211,910.007202 231.542221,912.263794 234.072556,914.858093 
	C237.388855,918.257996 240.283539,922.069214 243.453049,925.814026 
	C236.152466,929.217163 226.901154,927.481262 220.762589,921.781799 
	C219.550842,922.420349 218.251923,923.104797 216.637772,923.966553 
M210.865509,907.527161 
	C207.261795,903.393616 203.573029,899.330261 200.083557,895.102417 
	C197.666199,892.173706 195.421234,892.060791 192.542816,894.491882 
	C188.846405,897.613892 186.528748,901.178162 187.712204,906.187134 
	C188.933472,911.356079 192.884918,915.138672 198.286438,915.267273 
	C203.330399,915.387268 208.064056,913.726562 211.427307,909.529602 
	C211.626190,909.281494 211.284882,908.600342 210.865509,907.527161 
M195.446747,870.908936 
	C196.489624,873.969666 198.273331,876.405579 201.148682,878.069214 
	C204.969452,875.395081 208.792831,872.829407 207.239395,867.602783 
	C206.307404,864.467102 203.636856,862.785583 200.216995,863.288452 
	C196.340103,863.858704 195.079620,866.514038 195.446747,870.908936 
z"/>
<path fill="#000000" opacity="1.000000" stroke="none" 
	d="
M191.355103,807.334351 
	C195.122025,816.121338 207.562576,818.419189 214.097321,811.931030 
	C217.994080,808.061951 217.083221,803.238159 211.776077,800.674377 
	C207.700027,798.705200 203.129868,798.398682 198.780045,797.354980 
	C194.397247,796.303345 190.122681,795.013855 186.191803,792.727966 
	C179.057922,788.579407 175.637238,782.268188 175.704407,774.160034 
	C175.769653,766.279480 179.591568,760.414368 186.608292,757.014648 
	C199.453171,750.791199 212.302017,750.534790 224.453110,758.690186 
	C229.466644,762.055054 231.146072,767.592224 231.303436,773.509705 
	C231.351349,775.310913 230.820847,777.053894 228.750381,777.168457 
	C225.101791,777.370422 221.433807,777.307312 217.776550,777.230408 
	C216.026306,777.193665 215.828369,775.770203 215.661148,774.383484 
	C215.130096,769.979309 211.940384,768.002441 208.177124,767.548035 
	C202.924149,766.913696 197.235397,766.279846 193.381790,771.136108 
	C191.082687,774.033447 192.447189,776.795044 195.231277,778.832336 
	C198.577820,781.281128 202.625992,781.669617 206.487701,782.604065 
	C210.355652,783.539917 214.320648,784.202698 218.063721,785.502014 
	C228.146759,789.001892 233.228531,795.981140 233.336472,805.912537 
	C233.449585,816.317200 228.817703,824.050598 218.620636,827.232727 
	C205.825027,831.225769 193.012207,831.272278 181.805466,822.160767 
	C177.563644,818.711975 175.707153,813.978821 175.312698,808.596069 
	C175.222427,807.364136 175.321762,806.211182 176.222137,805.361694 
	C178.129242,803.562256 189.491211,804.786011 191.355103,807.334351 
z"/>
<path fill="#000000" opacity="1.000000" stroke="none" 
	d="
M457.513885,828.299927 
	C454.904968,828.362427 452.741669,828.392517 450.578522,828.385071 
	C442.984039,828.358887 442.845093,828.209290 445.333191,820.747009 
	C451.532257,802.155029 457.654694,783.535889 464.056854,765.013733 
	C468.383942,752.494934 466.186768,754.732727 478.404755,754.705078 
	C489.943146,754.679016 487.929535,752.860229 491.891571,764.116882 
	C498.673096,783.384155 505.275452,802.714844 511.879761,822.043884 
	C512.448608,823.708862 513.372986,825.410278 512.750244,827.693115 
	C508.524841,829.052917 504.065277,828.346619 499.677338,828.188049 
	C497.261139,828.100647 496.653168,825.864197 495.905853,824.026978 
	C490.152466,809.882568 493.961884,812.438171 478.326080,812.229248 
	C465.630981,812.059570 465.641663,812.198303 461.154510,824.126038 
	C460.524719,825.800232 460.108185,827.717896 457.513885,828.299927 
M477.324280,775.592529 
	C475.232941,781.510925 473.140045,787.428833 471.051300,793.348206 
	C470.432312,795.102234 469.540863,797.312622 472.426453,797.491516 
	C476.943695,797.771423 481.539368,798.205933 486.359955,797.068481 
	C485.882294,795.098267 485.636444,793.477295 485.095551,791.961670 
	C483.096008,786.358643 481.014526,780.784546 478.920135,775.216064 
	C478.642609,774.478149 478.074127,774.198059 477.324280,775.592529 
z"/>
<path fill="#000000" opacity="1.000000" stroke="none" 
	d="
M355.324249,812.276245 
	C348.899048,812.234802 342.898621,812.363953 336.911163,812.141968 
	C333.550262,812.017334 331.506134,813.187439 330.673981,816.454224 
	C330.469513,817.256958 330.134247,818.026550 329.856293,818.810364 
	C326.222931,829.058289 322.315491,830.865356 310.829376,827.340881 
	C311.254089,821.183594 314.068176,815.629517 315.958496,809.877625 
	C321.409271,793.291931 327.279205,776.844177 332.768646,760.270813 
	C334.110199,756.220398 336.050049,754.404236 340.586060,754.556580 
	C357.870850,755.137207 353.897461,751.807983 359.984039,768.156189 
	C366.766815,786.374329 372.810364,804.868042 379.113403,823.263184 
	C379.576294,824.614075 380.370575,826.044983 379.507141,827.871643 
	C375.244202,828.851379 370.762939,828.289795 366.313995,828.262817 
	C364.242920,828.250305 363.582855,826.587830 362.988251,825.022766 
	C361.866943,822.071411 360.810760,819.094788 359.761597,816.116638 
	C359.068634,814.149597 358.236023,812.370239 355.324249,812.276245 
M341.835510,782.212219 
	C341.342712,783.612305 340.820740,785.002991 340.361664,786.414001 
	C336.231476,799.108521 334.113159,797.645142 349.432312,797.660889 
	C349.597534,797.661072 349.762756,797.650757 349.928009,797.647949 
	C352.069946,797.611572 353.185577,796.389893 352.484100,794.457092 
	C350.147430,788.018616 348.472015,781.308777 344.856934,774.497070 
	C343.772705,777.302429 342.959106,779.407593 341.835510,782.212219 
z"/>
<path fill="#000000" opacity="1.000000" stroke="none" 
	d="
M437.515869,853.176392 
	C440.387848,857.236816 439.209991,861.444763 438.815094,865.462341 
	C438.578339,867.871033 436.029175,867.365967 434.284180,867.376465 
	C425.960022,867.426331 417.629456,867.582336 409.313446,867.316528 
	C405.272308,867.187378 404.132233,868.720520 404.178467,872.538879 
	C404.325317,884.667175 403.559570,882.455261 413.814697,882.632385 
	C419.473663,882.730225 425.137787,882.751709 430.795410,882.624023 
	C433.911255,882.553650 435.222778,883.626709 435.329193,886.921631 
	C435.604523,895.447083 435.316803,895.896179 426.630463,895.929260 
	C420.636963,895.952087 414.642334,896.006348 408.650238,895.914246 
	C405.491821,895.865723 404.321625,897.152405 404.193146,900.364502 
	C403.702087,912.641418 403.606018,912.635925 416.088074,912.631348 
	C422.248077,912.629089 428.410217,912.733093 434.567200,912.597656 
	C438.001892,912.522095 439.475677,913.909424 439.213348,917.338257 
	C439.086853,918.991211 439.208618,920.666138 439.264740,922.329468 
	C439.375031,925.596313 437.946228,927.311340 434.550568,927.305115 
	C420.565735,927.279480 406.580597,927.254456 392.596039,927.323242 
	C389.495087,927.338501 388.628113,925.862915 388.635468,923.019714 
	C388.692169,901.043274 388.691620,879.066589 388.639740,857.090149 
	C388.632965,854.217102 389.621063,852.762329 392.664001,852.783386 
	C407.475311,852.885864 422.287170,852.916565 437.515869,853.176392 
z"/>
<path fill="#000000" opacity="1.000000" stroke="none" 
	d="
M246.644272,767.796509 
	C258.599609,749.073059 283.906830,749.452881 297.554718,759.955811 
	C302.103027,763.455933 304.799561,768.146301 306.109528,773.643799 
	C306.809357,776.580750 306.004364,778.393921 302.438751,778.431519 
	C296.629578,778.492798 291.808594,778.602905 287.591400,772.487976 
	C281.773071,764.051331 266.665253,765.682861 261.376892,774.588379 
	C254.975006,785.368896 255.703293,796.564758 261.469452,807.332703 
	C267.424286,818.453003 282.061981,817.008057 288.140961,809.339294 
	C291.545471,805.044434 295.001709,804.729492 299.542328,804.585388 
	C309.696777,804.262878 308.213135,806.656250 304.935852,813.537476 
	C300.860992,822.093323 293.536316,826.961853 284.383850,828.593567 
	C266.652496,831.754578 251.438507,826.856140 244.594406,810.890625 
	C238.473236,796.611450 238.884369,782.071167 246.644272,767.796509 
z"/>
<path fill="#000000" opacity="1.000000" stroke="none" 
	d="
M487.012939,917.922485 
	C483.846252,912.438843 480.871185,907.269043 477.304565,901.071289 
	C473.658539,907.002502 469.567780,911.804443 467.537262,917.359436 
	C463.719879,927.802734 455.924286,928.182495 447.086487,927.231201 
	C446.465942,927.164368 445.869598,926.872681 445.354340,926.714050 
	C444.580139,924.596191 445.998657,923.407227 446.849426,922.055054 
	C453.140930,912.055664 459.361298,902.009216 465.819916,892.118530 
	C467.632385,889.342896 467.676483,887.251282 465.839447,884.461121 
	C460.257751,875.983704 454.945709,867.328369 449.555939,858.725220 
	C448.608154,857.212402 447.294006,855.833435 447.386230,853.219971 
	C452.686005,852.235474 458.083618,852.579529 463.441254,852.957581 
	C465.483582,853.101685 466.155792,855.255432 467.056519,856.795898 
	C470.480011,862.650818 473.825104,868.551575 477.476654,874.918457 
	C481.578064,871.144714 483.333649,866.580383 485.762878,862.559204 
	C492.230835,851.852722 494.537872,850.746277 507.556396,853.326965 
	C508.310394,855.416077 506.719604,856.750061 505.809753,858.214111 
	C500.802887,866.270386 496.011444,874.487366 490.528564,882.210754 
	C487.395264,886.624451 487.665070,889.905701 490.602448,894.177246 
	C496.540222,902.811829 502.024261,911.760925 507.596588,920.642334 
	C508.692627,922.389221 510.507172,923.940063 509.962433,926.998962 
	C504.480255,927.576172 498.776489,928.024475 493.385559,926.867371 
	C489.630157,926.061218 489.361420,921.107849 487.012939,917.922485 
z"/>
<path fill="#000000" opacity="1.000000" stroke="none" 
	d="
M277.156677,852.677979 
	C290.306488,852.675598 302.974121,852.814880 315.635864,852.601624 
	C319.963593,852.528748 321.567047,853.921814 321.429932,858.337341 
	C321.209869,865.424011 320.461945,867.078125 315.572906,867.162415 
	C307.575897,867.300354 299.574341,867.312500 291.576843,867.210327 
	C288.432526,867.170105 287.199219,868.299683 287.030396,871.544678 
	C286.348572,884.652100 286.256927,884.647461 299.228119,884.655518 
	C304.560883,884.658875 309.895447,884.749817 315.225922,884.640625 
	C320.964752,884.523193 319.668121,888.857178 319.961121,892.047607 
	C320.271149,895.422913 319.987000,898.474060 315.241058,898.399231 
	C307.410675,898.275696 299.574005,898.506409 291.745422,898.336426 
	C288.260132,898.260803 286.969879,899.598450 287.036926,903.003906 
	C287.161469,909.333801 286.970825,915.669678 287.075684,922.000244 
	C287.137146,925.710999 285.818054,927.349854 281.831116,927.396484 
	C271.646088,927.515381 271.647797,927.674377 271.648682,917.590759 
	C271.650452,897.759521 271.709595,877.927979 271.603271,858.097290 
	C271.583405,854.391296 272.623932,852.285400 277.156677,852.677979 
z"/>
<path fill="#000000" opacity="1.000000" stroke="none" 
	d="
M786.720093,776.207642 
	C782.960449,769.209045 778.807373,762.819153 775.525757,755.152466 
	C781.523132,754.276001 786.787109,754.597229 792.019409,754.802673 
	C794.371338,754.895020 795.081421,757.120605 795.982727,758.879883 
	C799.472961,765.693115 802.907654,772.534912 806.430908,779.330933 
	C807.166016,780.748840 807.527710,782.555420 809.710388,783.168335 
	C811.854980,781.384827 812.803650,778.672180 814.120239,776.247009 
	C817.057739,770.836365 819.825256,765.333130 822.785278,759.935181 
	C823.863342,757.969299 824.334412,755.077271 827.089172,754.849487 
	C831.719849,754.466553 836.463074,754.036011 841.004089,755.112732 
	C843.070496,755.602722 842.298401,757.863220 841.511475,759.360596 
	C839.344299,763.484253 837.100769,767.568054 834.864746,771.655151 
	C832.947205,775.159912 831.260132,778.826355 829.016785,782.110962 
	C820.676575,794.322510 816.175659,807.467712 818.322327,822.438293 
	C818.978394,827.013306 816.874329,828.533875 812.305603,828.474731 
	C800.932007,828.327576 800.319153,828.469177 801.092529,816.976257 
	C801.835205,805.937561 799.065002,796.407410 792.888550,787.472290 
	C790.536011,784.069153 788.862122,780.197021 786.720093,776.207642 
z"/>
<path fill="#000000" opacity="1.000000" stroke="none" 
	d="
M816.498901,889.415894 
	C810.005676,877.490540 803.680603,865.895142 796.940735,853.539490 
	C803.253784,852.301208 808.358948,852.615479 813.405762,853.081360 
	C815.587646,853.282715 816.325256,855.646667 817.236389,857.388855 
	C820.708191,864.027222 824.082397,870.716614 827.553894,877.355103 
	C828.385864,878.945923 829.118286,880.659302 831.000610,881.967468 
	C835.951965,875.017029 839.709412,867.407288 843.290955,859.825928 
	C845.917053,854.267090 849.319580,851.903748 855.271545,852.750061 
	C858.018127,853.140503 860.918884,852.207886 863.634399,853.619934 
	C864.632751,856.278137 862.740662,858.106995 861.704651,860.027283 
	C855.064636,872.335205 848.388367,884.626038 841.497253,896.794128 
	C839.937073,899.549133 839.264648,902.222412 839.326111,905.302856 
	C839.438965,910.965027 839.219360,916.635986 839.419434,922.293396 
	C839.543335,925.798767 838.581421,927.347717 834.707581,927.411133 
	C822.692078,927.607910 822.398071,927.746277 822.787964,915.741211 
	C823.090820,906.415283 822.694336,897.478333 816.498901,889.415894 
z"/>
<path fill="#000000" opacity="1.000000" stroke="none" 
	d="
M791.968872,854.401978 
	C793.039124,867.406189 793.039124,867.392212 780.717773,867.401733 
	C767.815674,867.411682 769.407227,866.193054 769.346008,878.997009 
	C769.278320,893.156982 769.160767,907.320496 769.418030,921.476074 
	C769.503296,926.169739 767.838562,927.497925 763.341431,927.415466 
	C753.655396,927.237793 753.651855,927.437134 753.651184,917.537781 
	C753.650146,902.544495 753.547974,887.550110 753.717468,872.558777 
	C753.760742,868.728577 752.731506,867.075317 748.646729,867.331482 
	C743.834900,867.633240 738.986328,867.292969 734.158752,867.421143 
	C731.064026,867.503296 729.734741,866.453613 729.595276,863.145630 
	C729.157959,852.772583 729.037415,852.769043 739.585693,852.766479 
	C754.912109,852.762756 770.238586,852.752502 785.564880,852.800781 
	C787.674377,852.807434 789.943787,852.303162 791.968872,854.401978 
z"/>
<path fill="#000000" opacity="1.000000" stroke="none" 
	d="
M645.123901,890.000000 
	C645.160217,879.179626 645.249634,868.858948 645.206665,858.538940 
	C645.188782,854.236511 646.740417,852.483826 651.405029,852.595825 
	C662.069946,852.851624 662.084106,852.600769 662.088806,863.149841 
	C662.095032,877.134216 662.088623,891.118652 662.084473,905.103027 
	C662.082458,911.904419 662.079102,911.916931 669.122986,911.937073 
	C675.948669,911.956665 682.774536,911.921631 689.600098,911.957031 
	C696.236450,911.991455 696.527893,912.340332 696.190552,919.208313 
	C696.141541,920.205688 696.057068,921.206299 696.092102,922.201782 
	C696.226379,926.019958 694.463806,927.421875 690.623474,927.377441 
	C677.140320,927.221313 663.653870,927.267151 650.169556,927.363708 
	C646.972778,927.386658 645.324402,926.715881 645.368225,922.947998 
	C645.493958,912.134399 645.232727,901.316345 645.123901,890.000000 
z"/>
<path fill="#000000" opacity="1.000000" stroke="none" 
	d="
M746.327454,782.018677 
	C746.325745,796.012939 746.210327,809.511902 746.388855,823.006836 
	C746.443970,827.172180 744.923462,828.549194 740.831482,828.445557 
	C729.030823,828.146729 730.747131,829.530273 730.674500,818.322449 
	C730.579529,803.659180 730.428650,788.989746 730.768066,774.333740 
	C730.889282,769.101501 728.984802,767.570007 724.139160,767.885376 
	C719.825684,768.166199 715.474609,767.806519 711.146790,767.942444 
	C705.945251,768.105835 705.757385,764.819580 705.889893,760.976196 
	C706.010925,757.468384 705.819824,754.485352 711.022400,754.552734 
	C729.182251,754.788025 747.347595,754.657227 765.510254,754.558167 
	C768.740173,754.540588 770.730225,755.361084 770.328552,759.019470 
	C769.938171,762.574768 771.525757,767.392212 765.777405,767.893311 
	C761.148376,768.296814 756.449707,768.066101 751.789734,767.898987 
	C747.733765,767.753601 745.950928,769.393311 746.289001,773.526733 
	C746.505676,776.175049 746.327881,778.855713 746.327454,782.018677 
z"/>
<path fill="#000000" opacity="1.000000" stroke="none" 
	d="
M349.340271,911.883667 
	C357.961853,911.914917 366.125793,912.038086 374.285187,911.897339 
	C378.659851,911.821899 380.538635,913.312866 380.435364,918.011230 
	C380.239044,926.940674 380.120117,927.320068 371.330505,927.321655 
	C359.170563,927.323853 347.008698,927.193237 334.851776,927.383301 
	C330.665558,927.448730 328.829590,926.226440 328.857971,921.753235 
	C328.992310,900.599243 328.973022,879.443359 328.823486,858.289429 
	C328.792664,853.927063 330.388824,852.450867 334.711823,852.611206 
	C345.197571,852.999939 344.968475,850.994873 344.988770,862.892822 
	C345.013489,877.384583 345.004486,891.876404 344.993835,906.368164 
	C344.991791,909.144104 344.879639,911.944458 349.340271,911.883667 
z"/>
<path fill="#000000" opacity="1.000000" stroke="none" 
	d="
M637.349060,775.000488 
	C637.349304,786.327332 637.523193,797.158386 637.263123,807.979126 
	C637.160278,812.258484 638.310669,813.953552 642.839844,813.757629 
	C650.487793,813.426697 658.164307,813.812134 665.820740,813.601501 
	C669.815369,813.491577 671.848938,814.693481 671.332703,818.979675 
	C671.134583,820.624146 671.245361,822.307129 671.235474,823.972656 
	C671.217102,827.078552 669.699768,828.419250 666.566162,828.404114 
	C652.741394,828.337158 638.915894,828.332642 625.091125,828.396118 
	C621.854858,828.410950 620.671753,826.932800 620.678406,823.835815 
	C620.725159,802.182129 620.728882,780.528137 620.684509,758.874451 
	C620.678589,755.981812 621.760315,754.547363 624.769104,754.582031 
	C639.104797,754.747192 637.211975,751.744507 637.344788,766.005615 
	C637.371155,768.837036 637.348755,771.668945 637.349060,775.000488 
z"/>
<path fill="#000000" opacity="1.000000" stroke="none" 
	d="
M405.104736,777.000061 
	C405.098663,787.484131 405.271027,797.472900 405.009033,807.450317 
	C404.887054,812.095520 406.224335,814.031738 411.185028,813.766968 
	C418.319946,813.386108 425.492249,813.768250 432.644989,813.633240 
	C436.054291,813.568848 437.297607,814.898438 437.401520,818.324707 
	C437.707123,828.399597 437.825378,828.390747 427.969604,828.384460 
	C416.820587,828.377319 405.668823,828.237915 394.523987,828.453247 
	C390.334503,828.534180 388.734009,826.627991 388.727539,822.876160 
	C388.690948,801.576660 388.735352,780.277100 388.671021,758.977783 
	C388.661194,755.721252 390.110596,754.566711 393.214844,754.608093 
	C407.422577,754.797668 404.796814,753.121948 405.104340,766.016907 
	C405.187622,769.509338 405.109467,773.005615 405.104736,777.000061 
z"/>
<path fill="#000000" opacity="1.000000" stroke="none" 
	d="
M517.650146,890.999878 
	C517.650940,879.850037 517.793823,869.197327 517.581787,858.551697 
	C517.498840,854.390747 518.582092,852.509583 523.143982,852.620667 
	C536.283325,852.940491 534.241089,851.406982 534.311279,863.792114 
	C534.419739,882.927979 534.205750,902.066528 534.442566,921.200134 
	C534.502747,926.064453 532.858093,927.545166 528.127441,927.406494 
	C516.244751,927.058228 517.748657,928.378235 517.663025,916.959656 
	C517.599426,908.473511 517.650391,899.986572 517.650146,890.999878 
z"/>
<path fill="#000000" opacity="1.000000" stroke="none" 
	d="
M703.653076,876.000000 
	C703.660645,869.503296 703.733765,863.505737 703.650085,857.510315 
	C703.603027,854.138184 705.057800,852.687073 708.447021,852.715027 
	C722.498657,852.831177 720.254639,851.623962 720.320129,863.726074 
	C720.423828,882.881775 720.208740,902.040039 720.441528,921.193481 
	C720.501038,926.096313 718.759338,927.497681 714.068970,927.417297 
	C703.657898,927.238831 703.652710,927.435120 703.651733,916.977844 
	C703.650452,903.485229 703.652466,889.992554 703.653076,876.000000 
z"/>
<path fill="#000000" opacity="1.000000" stroke="none" 
	d="
M697.349976,794.000122 
	C697.347961,804.160034 697.231262,813.821960 697.402161,823.478821 
	C697.466248,827.097839 696.300171,828.508789 692.552673,828.433472 
	C678.455627,828.150208 680.839050,829.922302 680.734436,816.967957 
	C680.582520,798.148987 680.821167,779.326477 680.603394,760.508789 
	C680.550476,755.935730 681.959229,754.422058 686.550964,754.563538 
	C699.162476,754.952026 697.184875,753.040771 697.327209,765.519836 
	C697.433533,774.845459 697.349182,784.173218 697.349976,794.000122 
z"/>
<path fill="#000000" opacity="1.000000" stroke="none" 
	d="
M298.341736,200.710815 
	C298.242371,206.555573 294.334229,207.290634 290.365417,207.152039 
	C286.223267,207.007370 283.441101,204.877213 283.718323,200.178040 
	C283.728119,200.012100 283.718475,199.844757 283.713623,199.678207 
	C283.428375,189.883682 283.428314,189.883698 273.896667,189.310623 
	C269.683441,189.057312 267.485596,186.366882 267.693939,181.426697 
	C267.866180,177.342438 269.179169,174.542587 274.200165,174.559647 
	C283.587708,174.591583 283.588379,174.390457 283.651459,164.844391 
	C283.694275,158.366882 285.353394,156.345917 291.027740,155.859436 
	C295.232361,155.498932 298.124634,157.925659 298.307220,162.127594 
	C298.430084,164.955795 298.467926,167.799164 298.323273,170.624451 
	C298.165344,173.708313 299.557556,174.853714 302.502014,174.654099 
	C304.160522,174.541672 305.834015,174.626251 307.500183,174.655350 
	C313.324432,174.757095 315.319092,176.594543 315.338959,181.850739 
	C315.358765,187.091965 313.249054,189.131897 307.630859,189.303787 
	C298.354584,189.587585 298.354584,189.587570 298.341736,200.710815 
z"/>
<path fill="#000000" opacity="1.000000" stroke="none" 
	d="
M616.651001,876.000000 
	C616.652954,869.668579 616.804138,863.831970 616.603271,858.007568 
	C616.475647,854.307800 617.470581,852.576050 621.597961,852.656738 
	C634.065247,852.900452 632.273560,851.690552 632.320984,863.315063 
	C632.399109,882.475281 632.202148,901.637756 632.440063,920.795288 
	C632.500916,925.691467 631.257690,927.632141 626.035828,927.433289 
	C615.256042,927.022583 616.729065,928.112427 616.671143,917.986511 
	C616.592102,904.158142 616.651245,890.328857 616.651001,876.000000 
z"/>
<path fill="#000000" opacity="1.000000" stroke="none" 
	d="
M606.244385,825.797119 
	C604.058044,828.336792 593.880127,829.330383 591.879578,827.641663 
	C590.577087,826.542236 590.674072,824.970947 590.673279,823.481873 
	C590.662292,802.006165 590.704041,780.530273 590.622742,759.054871 
	C590.610779,755.889893 591.691040,754.558167 594.948181,754.604309 
	C608.627563,754.797974 606.241943,753.133484 606.323059,765.385986 
	C606.455261,785.362061 606.321045,805.339844 606.244385,825.797119 
z"/>
</svg>